<?xml version="1.0" encoding="UTF-8" standalone="no"?><!-- Generator: Gravit.io --><svg xmlns="http://www.w3.org/2000/svg" xmlns:xlink="http://www.w3.org/1999/xlink" style="isolation:isolate" viewBox="0 0 2000 1000" width="2000pt" height="1000pt"><defs><clipPath id="_clipPath_9JaJauOiiVuxtMVgw60RAWnOHgZSxjT4"><rect width="2000" height="1000"/></clipPath></defs><g clip-path="url(#_clipPath_9JaJauOiiVuxtMVgw60RAWnOHgZSxjT4)"><path d=" M 714 433 Q 687.156 468.219 659 466 C 630.844 463.781 335.375 490 335.938 478 C 336.5 466 319.5 451 330 449 C 340.5 447 469 443.5 480 441 C 491 438.5 518.5 437.5 526 436 C 533.5 434.5 634.5 439.5 659 436 Q 683.5 432.5 714 433 Z " fill="rgb(208,190,178)"/><defs><filter id="YZiidLZ5bKRYOpTsFyDgArX5Q2gUutQf" x="-200%" y="-200%" width="400%" height="400%" filterUnits="objectBoundingBox" color-interpolation-filters="sRGB"><feGaussianBlur xmlns="http://www.w3.org/2000/svg" in="SourceGraphic" stdDeviation="2.146804531419514"/><feOffset xmlns="http://www.w3.org/2000/svg" dx="0" dy="0" result="pf_100_offsetBlur"/><feFlood xmlns="http://www.w3.org/2000/svg" flood-color="#000000" flood-opacity="0.65"/><feComposite xmlns="http://www.w3.org/2000/svg" in2="pf_100_offsetBlur" operator="in" result="pf_100_dropShadow"/><feBlend xmlns="http://www.w3.org/2000/svg" in="SourceGraphic" in2="pf_100_dropShadow" mode="normal"/></filter></defs><g filter="url(#YZiidLZ5bKRYOpTsFyDgArX5Q2gUutQf)"><path d=" M 939 483 Q 896.5 522 881 527 C 865.5 532 715 592 707 610 C 699 628 770 776.5 840 788 C 910 799.5 1334 840.5 1376 795 C 1418 749.5 1696 763 1720 716 C 1744 669 1705.125 446 1664.062 447 C 1623 448 1066 454 1035 462 Q 1004 470 939 483 Z " fill="rgb(161,113,118)"/></g><path d=" M 1167 429 Q 1158.375 445.938 1164 449 C 1169.625 452.063 1331.563 441.125 1330 436 C 1328.438 430.875 1299.563 418.812 1287 421 Q 1274.438 423.188 1167 429 Z " fill="rgb(121,118,123)" vector-effect="non-scaling-stroke" stroke-width="1" stroke="rgb(0,0,0)" stroke-linejoin="miter" stroke-linecap="square" stroke-miterlimit="3"/><path d=" M 939 432 Q 941 442.188 943 443 C 945 443.813 1068.125 447.688 1069 439 C 1069.875 430.313 1063.594 405.219 1041 412 Q 1018.406 418.781 939 432 Z " fill="rgb(121,118,123)"/><path d=" M 1173 418 Q 1173.313 423.984 1177 423 C 1180.688 422.016 1238.75 423.969 1237 418 C 1235.25 412.031 1227.219 389.875 1210 398 Q 1192.781 406.125 1173 418 Z " fill="rgb(121,118,123)" vector-effect="non-scaling-stroke" stroke-width="1" stroke="rgb(0,0,0)" stroke-linejoin="miter" stroke-linecap="square" stroke-miterlimit="3"/><path d=" M 985 455 Q 951 486 888 483 C 825 480 833.667 480.333 820 481 C 806.333 481.667 719 488.667 695 489 C 671 489.333 330.5 519 301 534 C 271.5 549 239.75 491.25 289 489 C 338.25 486.75 329 472.5 340 474 C 351 475.5 520.5 454.25 531 457 C 541.5 459.75 568.875 450.125 579 451 C 589.125 451.875 625.125 453.5 642 460 C 658.875 466.5 679 447.125 695 445 C 711 442.875 707.375 432.375 715 432 C 722.625 431.625 754 426 755 432 C 756 438 761.625 441.75 768 441 C 774.375 440.25 788.375 432 790 429 C 791.625 426 822.5 424.5 823 429 C 823.5 433.5 829.5 436 837 434 C 844.5 432 925.625 424.125 934 432 C 942.375 439.875 969.25 439.625 974 445 Q 978.75 450.375 985 455 Z " fill="rgb(120,124,136)"/><path d=" M 1126 400 Q 1145.188 398.172 1141 407 C 1136.813 415.828 1087.75 430.797 1085 425 C 1082.25 419.203 1081.891 405.141 1091 405 Q 1100.109 404.859 1126 400 Z " fill="rgb(121,118,123)" vector-effect="non-scaling-stroke" stroke-width="1" stroke="rgb(0,0,0)" stroke-linejoin="miter" stroke-linecap="square" stroke-miterlimit="3"/><path d=" M 1518 408 Q 1690.667 416.667 1697 426 C 1703.333 435.333 1683.875 465.25 1664.063 465 C 1644.25 464.75 1458.25 471.25 1447 470 C 1435.75 468.75 1359.25 458.75 1345 452 C 1330.75 445.25 1325.438 439.375 1323 437 C 1320.563 434.625 1323.313 431.125 1318 431 C 1312.688 430.875 1269.563 427.375 1260 431 C 1250.438 434.625 1222.125 435.313 1218 433 C 1213.875 430.688 1173.438 429.313 1169 433 C 1164.563 436.688 1168.563 451.375 1163 452 C 1157.438 452.625 1150.5 451.313 1149 447 C 1147.5 442.688 1146.875 451.563 1144 452 C 1141.125 452.438 1135.563 450.188 1133 447 C 1130.438 443.813 1124 451.438 1120 451 C 1116 450.563 1105.938 453 1103 450 C 1100.063 447 1090.438 459.813 1084 458 C 1077.563 456.188 1052.563 463.563 1051 461 C 1049.438 458.438 1054.75 453 1051 454 C 1047.25 455 1036 458.5 1031 461 C 1026 463.5 1009.5 470.25 1007 465 C 1004.5 459.75 1002 458.25 993 458 C 984 457.75 980.75 463.25 979 461 C 977.25 458.75 967.75 454.5 963 452 C 958.25 449.5 961.75 449 953 451 C 944.25 453 932.75 437.25 941 437 C 949.25 436.75 1032.5 440.5 1043 437 C 1053.5 433.5 1075 415.5 1084 414 C 1093 412.5 1108 419 1117 414 C 1126 409 1140.5 398 1144 399 C 1147.5 400 1155.75 400.5 1161 408 C 1166.25 415.5 1171.5 422.25 1187 420 C 1202.5 417.75 1236.25 416.25 1240 411 C 1243.75 405.75 1258.5 389.25 1263 389 C 1267.5 388.75 1307.6 411.6 1311 415 C 1313.188 417.188 1311.25 415.25 1315 416 C 1318.75 416.75 1349 422.25 1354 422 C 1359 421.75 1485 421.333 1495 416 Q 1505 410.667 1518 408 Z " fill="rgb(167,165,176)"/><path d=" M 1311 415 C 1308.797 416.25 1327.125 419.688 1338 422 C 1348.875 424.313 1374.375 422.313 1386 422 C 1397.625 421.688 1433.563 423.25 1441 422 C 1448.438 420.75 1477.875 419.063 1485 420 C 1492.125 420.938 1508.25 420.5 1516 426 C 1523.75 431.5 1519.5 406.5 1516 405 C 1512.5 403.5 1438.063 408.047 1432 408 C 1425.938 407.953 1354.828 411.375 1347 411 C 1339.172 410.625 1313.203 413.75 1311 415 Z " fill="rgb(208,190,178)"/><path d=" M 1346 457 Q 1213 467.75 1201 468 C 1189 468.25 1052.75 474.25 1044 472 C 1035.25 469.75 1006.875 471.687 996 475 C 985.125 478.313 945.563 498.438 933 500 C 920.438 501.563 833.5 505.625 832 496 C 830.5 486.375 824.875 482.125 832 478 C 839.125 473.875 835.875 467.875 845 468 C 854.125 468.125 943.5 470.125 953 468 C 962.5 465.875 982.344 456.781 985 457 C 987.656 457.219 1061.656 444.656 1066 447 C 1070.344 449.344 1149.188 439.75 1158 440 C 1166.813 440.25 1317.25 437.063 1322 432 Q 1326.75 426.938 1346 455 L 1346 457 Z " fill="rgb(208,190,178)"/><path d=" M 813 438 C 814 435 814.438 434.688 815 433 C 815.563 431.313 818.813 425.75 819 423 C 819.188 420.25 823.5 411.938 824 409 C 824.5 406.063 825 405.438 827 404 C 829 402.563 830.938 399.75 833 401 C 835.063 402.25 836.563 404.813 839 404 C 841.438 403.188 850.375 397.813 861 400 C 871.625 402.188 874.125 402.75 877 402 C 879.875 401.25 896.875 400.5 900 401 C 903.125 401.5 949 400.625 955 402 C 961 403.375 986.375 403.125 991 402 C 995.625 400.875 1001.5 402.375 1004 402 C 1006.5 401.625 1010 399.25 1011 401 C 1012 402.75 1018 406 1020 404 C 1022 402 1028.75 401.078 1033 401 C 1037.25 400.922 1085.125 401.188 1091 400 C 1096.875 398.813 1149.828 386.875 1159 383 C 1168.172 379.125 1184.922 368.484 1202 375 C 1219.078 381.516 1311.333 406 1310 412 C 1308.667 418 1271.667 420.333 1260 419 C 1248.333 417.667 1199.667 410 1192 412 C 1184.333 414 1170 423.333 1167 419 C 1164 414.667 1154.667 401.333 1149 402 C 1143.333 402.667 1089.688 412.828 1084 417 C 1078.313 421.172 1048.516 436.797 1040 437 C 1031.484 437.203 994.5 437.25 987 435 C 979.5 432.75 953 438 947 437 C 941 436 922.75 440.25 920 437 C 917.25 433.75 907.5 429.75 902 431 C 896.5 432.25 890.75 438.5 883 438 C 875.25 437.5 847.25 432 837 440 C 826.75 448 820.25 451 817 445 C 813.75 439 812 441 813 438 Z " fill="rgb(208,190,178)"/><path d=" M 925 499 Q 848.75 756.25 829 776 C 809.25 795.75 294.667 780.667 276 801 C 257.333 821.333 228.667 531.333 286 517 C 343.333 502.667 794.667 450 833 469 Q 871.333 488 925 499 Z " fill="rgb(99,97,108)"/><path d=" M 792 429 C 796.5 430.75 775.5 451.25 767 447 C 758.5 442.75 749.75 433.25 753 432 C 756.25 430.75 787.5 427.25 792 429 Z " fill="rgb(161,157,172)"/></g></svg>