<?xml version="1.0" encoding="UTF-8" standalone="no"?><!-- Generator: Gravit.io --><svg xmlns="http://www.w3.org/2000/svg" xmlns:xlink="http://www.w3.org/1999/xlink" style="isolation:isolate" viewBox="0 0 800 800" width="800pt" height="800pt"><defs><clipPath id="_clipPath_vPTXoq8kZdhyjzBwNoQYi6Henpe3JZIj"><rect width="800" height="800"/></clipPath></defs><g clip-path="url(#_clipPath_vPTXoq8kZdhyjzBwNoQYi6Henpe3JZIj)"><g><path d=" M 352.953 229.823 C 356.779 242.79 403.97 266.598 411.41 272.975 Q 418.851 279.352 453.925 227.485 Q 434.368 216.431 430.329 208.991 Q 426.291 201.551 405.884 225.784 Q 391.003 213.667 384.626 215.793" fill="rgb(245,223,202)" vector-effect="non-scaling-stroke" stroke-width="1" stroke="rgb(0,0,0)" stroke-linejoin="miter" stroke-linecap="square" stroke-miterlimit="3"/><g><path d=" M 448.717 189.753 Q 456.582 206.121 464.979 206.652 Q 473.375 207.184 471.569 206.015 L 448.717 189.753 Z " fill="rgb(255,255,255)"/><path d=" M 445.914 184.718 Q 456.317 205.164 465.643 206.838 C 474.97 208.512 474.372 205.882 473.774 207.675 C 473.176 209.469 469.709 217.72 468.274 218.796 C 466.839 219.872 459.665 229.557 458.11 229.677 C 456.556 229.796 438.022 227.405 431.924 215.806 C 425.826 204.208 424.391 206.001 426.304 203.849 Q 428.217 201.697 445.914 184.718 Z " fill="rgb(224,192,187)" vector-effect="non-scaling-stroke" stroke-width="1" stroke="rgb(0,0,0)" stroke-linejoin="miter" stroke-linecap="square" stroke-miterlimit="3"/><path d=" M 447.588 185.076 C 446.99 178.739 445.555 167.26 457.393 155.901 C 469.23 144.541 464.447 146.813 466.958 145.378 C 469.469 143.943 477.959 140.835 480.709 142.03 C 483.459 143.226 484.296 139.519 488.362 142.509 C 492.427 145.498 496.732 146.694 498.286 150.998 C 499.841 155.303 506.417 162.716 505.7 164.629 C 504.982 166.543 506.896 172.163 504.385 172.282 C 501.874 172.402 504.969 175.391 506.284 176.587 C 507.6 177.782 507.002 183.641 494.327 186.033 C 481.653 188.424 477.6 198.708 476.763 200.86 C 475.926 203.012 475.807 207.436 473.535 206.838 C 471.263 206.241 448.186 191.414 447.588 185.076 Z " fill="rgb(227,195,189)" vector-effect="non-scaling-stroke" stroke-width="1" stroke="rgb(0,0,0)" stroke-linejoin="miter" stroke-linecap="square" stroke-miterlimit="3"/><path d=" M 559.375 96.261 Q 547.298 104.87 545.504 107.5 Q 543.711 110.131 492.534 153.177 L 488.349 147.796 L 486.077 143.611 Q 528.644 110.49 533.786 107.62 C 538.928 104.75 546.939 102.957 548.733 101.522 Q 550.526 100.087 559.375 96.261 Z " fill="rgb(162,170,196)" vector-effect="non-scaling-stroke" stroke-width="0.25" stroke="rgb(0,0,0)" stroke-linejoin="miter" stroke-linecap="square" stroke-miterlimit="3"/><path d=" M 569.99 110.463 Q 557.913 119.072 556.12 121.703 Q 554.326 124.334 503.149 167.38 L 498.964 161.999 L 496.692 157.814 Q 539.26 124.692 544.401 121.823 C 549.543 118.953 557.554 117.159 559.348 115.724 Q 561.142 114.29 569.99 110.463 Z " fill="rgb(162,170,196)" vector-effect="non-scaling-stroke" stroke-width="0.25" stroke="rgb(0,0,0)" stroke-linejoin="miter" stroke-linecap="square" stroke-miterlimit="3"/></g><g><path d=" M 339.132 609.606 Q 298.55 686.491 297.765 693.937 C 296.98 701.382 267.122 680.536 268.537 676.34 C 269.951 672.143 295.167 626.665 304.924 597.609 Q 309.268 584.672 315.478 560.277 L 357.21 574.577 L 339.132 609.606 Z " fill="rgb(245,223,202)" vector-effect="non-scaling-stroke" stroke-width="1" stroke="rgb(0,0,0)" stroke-linejoin="miter" stroke-linecap="square" stroke-miterlimit="3"/><path d=" M 324.778 394.021 Q 282.043 428.735 286.653 460.103 C 291.262 491.47 306.882 522.926 300.456 554.683 C 294.03 586.44 292.912 598.834 292.518 606.477 C 292.124 614.119 365.471 631.31 367.116 617.984 Q 368.761 604.659 386.212 410.67 Q 401.331 432.239 351.726 412.005 Q 306.794 393.677 324.778 394.021 Z " fill="rgb(79,75,90)" vector-effect="non-scaling-stroke" stroke-width="1" stroke="rgb(0,0,0)" stroke-linejoin="miter" stroke-linecap="square" stroke-miterlimit="3"/><path d=" M 307.164 699.339 Q 310.102 707.556 307.931 711.236 C 305.76 714.916 329.568 750.032 338.277 757.208 C 346.986 764.384 346.073 778.212 342.039 778.681 C 338.005 779.15 290.085 751.396 281.627 743.877 C 273.17 736.358 263.716 711.503 264.539 708.943 C 265.362 706.383 252.049 717.71 250.427 721.001 C 248.804 724.292 227.958 711.381 230.175 707.998 C 232.392 704.615 248.698 691.003 250.663 687.963 C 252.629 684.923 256.181 671.449 259.541 671.54 C 262.901 671.631 274.97 682.852 284.97 687.548 Q 294.97 692.244 307.164 699.339 Z " fill="rgb(255,255,255)" vector-effect="non-scaling-stroke" stroke-width="1" stroke="rgb(0,0,0)" stroke-linejoin="miter" stroke-linecap="square" stroke-miterlimit="3"/></g><g><path d=" M 406.871 410.404 C 408.127 409.806 409.384 423.078 406.871 425.35 C 404.358 427.622 389.275 429.177 385.048 429.296 C 380.821 429.416 304.966 421.165 302.338 419.611 Q 299.711 418.056 287.83 418.163 Q 290.457 407.893 290.8 405.143 C 291.143 402.392 290.572 397.37 293.428 398.327 C 296.284 399.283 361.4 412.197 374.538 412.078 C 387.676 411.958 405.614 411.002 406.871 410.404 Z " fill="rgb(61,16,13)" vector-effect="non-scaling-stroke" stroke-width="0.5" stroke="rgb(0,0,0)" stroke-linejoin="miter" stroke-linecap="square" stroke-miterlimit="3"/><path d=" M 387.921 204.952 Q 403.226 221.958 404.289 228.122 C 405.352 234.287 409.816 277.227 410.241 283.604 C 410.666 289.981 414.493 294.445 407.903 309.963 C 401.313 325.481 402.164 327.181 403.014 330.795 C 403.864 334.409 403.226 345.888 402.801 350.564 C 402.376 355.241 398.55 360.555 400.25 362.894 C 401.951 365.232 407.265 371.822 409.178 377.986 C 411.092 384.151 415.981 388.615 418.744 392.866 Q 421.508 397.118 423.421 402.007 Q 409.816 412.423 402.801 410.723 C 395.786 409.022 390.259 409.66 384.095 411.785 C 377.93 413.911 344.556 410.935 341.793 408.172 C 339.029 405.408 323.512 404.345 312.67 404.771 C 301.829 405.196 283.335 395.417 282.272 392.229 C 281.209 389.04 288.862 384.789 289.287 381.813 C 289.712 378.837 282.485 369.696 287.587 361.193 C 292.688 352.69 293.539 354.178 294.176 348.651 C 294.814 343.124 303.742 322.717 304.593 314.852 C 305.443 306.987 292.476 250.017 292.263 243.002 C 292.051 235.988 291.626 217.919 292.476 213.242 C 293.326 208.566 293.539 204.102 297.578 198.575 C 301.616 193.048 305.868 194.111 306.931 190.284 C 307.994 186.458 305.655 179.656 307.994 177.743 C 310.332 175.829 313.308 180.081 320.748 180.719 C 328.188 181.356 339.242 181.994 347.32 185.82 C 355.397 189.647 358.586 196.662 360.712 195.174 C 362.838 193.686 374.529 194.111 378.781 196.662 Q 383.032 199.212 387.921 204.952 Z " fill="rgb(164,177,167)" vector-effect="non-scaling-stroke" stroke-width="1" stroke="rgb(0,0,0)" stroke-linejoin="miter" stroke-linecap="square" stroke-miterlimit="3"/></g><g><path d=" M 510.569 48.654 Q 507.976 66.083 508.747 69.786 Q 509.519 73.489 504.145 152.757 L 496.092 151.901 L 490.639 150.394 Q 497.404 86.672 499.188 79.908 C 500.973 73.144 506.044 64.812 506.295 62.095 Q 506.547 59.377 510.569 48.654 Z " fill="rgb(162,170,196)" vector-effect="non-scaling-stroke" stroke-width="0.25" stroke="rgb(0,0,0)" stroke-linejoin="miter" stroke-linecap="square" stroke-miterlimit="3"/><path d=" M 531.47 51.283 Q 528.877 68.712 529.649 72.415 Q 530.42 76.118 525.047 155.387 L 516.993 154.53 L 511.54 153.023 Q 518.305 89.302 520.09 82.538 C 521.874 75.773 526.945 67.442 527.196 64.724 Q 527.448 62.007 531.47 51.283 Z " fill="rgb(162,170,196)" vector-effect="non-scaling-stroke" stroke-width="0.25" stroke="rgb(0,0,0)" stroke-linejoin="miter" stroke-linecap="square" stroke-miterlimit="3"/><path d=" M 513.658 225.465 C 517.797 228.98 503.773 266.917 500.266 272.975 C 496.759 279.034 488.787 292.107 485.917 293.063 C 483.048 294.02 474.757 298.165 469.974 296.571 Q 465.191 294.977 415.768 273.294 Q 429.798 236.306 438.407 238.538 Q 447.016 240.77 458.495 248.104 Q 477.946 219.407 480.178 216.218 C 482.41 213.03 496.759 211.117 513.658 225.465 Z " fill="rgb(245,223,202)" vector-effect="non-scaling-stroke" stroke-width="1" stroke="rgb(0,0,0)" stroke-linejoin="miter" stroke-linecap="square" stroke-miterlimit="3"/><path d=" M 477.733 192.516 C 476.989 193.686 497.928 183.695 506.537 187.521 C 515.146 191.347 528.219 200.169 528.857 206.546 C 529.495 212.923 531.727 202.72 531.195 200.913 C 530.664 199.106 524.712 190.816 521.523 189.54 C 518.335 188.265 507.387 182.313 503.029 183.269 C 498.672 184.226 478.477 191.347 477.733 192.516 Z " fill="rgb(255,255,255)"/><path d=" M 514.615 236.944 C 512.064 235.669 521.311 236.306 519.079 229.929 C 516.847 223.552 503.773 212.711 491.976 213.349 C 480.178 213.986 481.919 209.695 473.163 218.45 Q 471.569 220.045 474.438 222.595 Q 469.018 220.045 469.337 214.943 C 469.655 209.841 474.438 206.015 476.352 201.232 Q 478.265 196.449 478.265 192.942 Q 492.294 182.419 510.469 189.115 C 528.644 195.811 529.92 206.334 528.963 210.16 C 528.007 213.986 525.137 228.973 523.862 231.842 C 522.586 234.712 517.166 238.22 514.615 236.944 Z " fill="rgb(228,202,195)" vector-effect="non-scaling-stroke" stroke-width="1" stroke="rgb(0,0,0)" stroke-linejoin="miter" stroke-linecap="square" stroke-miterlimit="3"/><path d=" M 477.707 191.706 Q 486.435 185.249 488.349 184.651 C 490.262 184.053 504.491 179.151 518.122 186.803 Q 531.753 194.456 527.568 199.359 L 530.079 203.424 Q 533.547 200.435 533.786 197.326 C 534.025 194.217 536.656 179.51 536.417 171.618 C 536.178 163.726 537.373 160.498 535.938 158.943 C 534.504 157.389 527.21 152.367 526.612 150.932 C 526.014 149.497 523.862 144.714 520.872 143.757 C 517.883 142.801 516.687 144.236 515.252 143.04 C 513.818 141.844 510.948 138.975 506.643 139.931 C 502.339 140.888 500.904 142.681 497.795 140.29 C 494.686 137.898 489.066 131.561 483.566 134.55 Q 478.065 137.54 477.587 139.692 Q 469.456 143.757 469.695 146.627 C 469.934 149.497 472.326 155.595 473.641 155.715 C 474.957 155.834 472.565 159.302 472.445 161.335 C 472.326 163.367 472.565 173.77 473.282 175.803 Q 474 177.836 477.707 191.706 Z " fill="rgb(227,195,189)" vector-effect="non-scaling-stroke" stroke-width="1" stroke="rgb(0,0,0)" stroke-linejoin="miter" stroke-linecap="square" stroke-miterlimit="3"/><path d=" M 448.504 241.089 C 448.651 242.285 446.193 240.146 444.705 239.296 C 443.217 238.445 439.444 233.198 432.987 238.538 C 423.718 246.205 418.957 257.883 418.107 261.071 C 417.256 264.26 408.541 281.266 408.753 285.942 C 408.966 290.619 408.169 289.383 410.507 286.407 Q 412.845 283.431 415.768 275.048 L 425.334 279.352 L 412.367 294.658 Q 409.776 297.182 406.8 296.332 C 403.824 295.481 379.206 291.894 374.954 289.131 C 370.703 286.367 331.164 254.694 344.131 221.533 C 357.098 188.371 382.182 196.236 384.945 199.638 C 387.709 203.039 390.472 206.44 394.086 207.078 C 397.7 207.715 398.762 215.793 401.313 216.006 C 403.864 216.218 409.604 220.257 412.367 219.619 C 415.13 218.982 414.493 221.32 421.083 225.146 C 427.672 228.973 431.711 230.461 434.9 230.673 C 438.088 230.886 447.346 231.611 448.504 241.089 Z " fill="rgb(164,177,167)" vector-effect="non-scaling-stroke" stroke-width="1" stroke="rgb(0,0,0)" stroke-linejoin="miter" stroke-linecap="square" stroke-miterlimit="3"/><path d=" M 477.707 214.611 Q 471.608 218.557 472.206 220.47 Q 472.804 222.383 475.196 222.742 Q 479.62 214.611 477.707 214.611 Z " fill="rgb(0,0,0)"/><path d=" M 513.937 225.372 L 513.22 237.329 L 519.677 234.101 Q 518.481 224.774 515.97 225.731 Q 513.459 226.687 513.937 225.372 Z " fill="rgb(0,0,0)"/></g><path d=" M 320.961 178.805 Q 313.627 177.105 314.902 176.361 C 316.178 175.617 322.555 177.53 323.618 175.936 C 324.681 174.341 333.29 163.713 328.401 158.824 C 323.512 153.934 276.639 124.812 285.992 91.332 C 295.346 57.851 306.718 35.637 327.657 27.666 C 348.595 19.695 373.572 28.304 392.81 37.019 C 412.048 45.735 441.702 63.591 442.659 71.775 C 443.615 79.959 434.9 109.719 434.581 111.101 C 434.262 112.483 435.431 114.183 432.88 116.947 C 430.329 119.71 425.334 125.237 425.015 127.363 C 424.696 129.488 422.571 132.996 423.315 133.527 C 424.059 134.059 425.759 148.089 422.571 155.741 C 419.382 163.394 416.087 167.433 413.642 169.133 C 411.198 170.834 407.265 178.061 405.352 179.762 C 403.439 181.463 394.936 181.356 389.515 179.762 C 384.095 178.168 379.631 173.916 374.848 179.868 C 370.065 185.82 369.215 192.304 367.939 192.835 C 366.664 193.367 362.838 194.111 359.011 192.198 C 355.185 190.284 336.478 181.037 334.034 180.825 Q 331.589 180.612 320.961 178.805 Z " fill="rgb(245,223,202)" vector-effect="non-scaling-stroke" stroke-width="1" stroke="rgb(0,0,0)" stroke-linejoin="miter" stroke-linecap="square" stroke-miterlimit="3"/><g><path d=" M 404.236 158.664 C 402.217 161.215 405.618 161.374 405.033 162.544 C 404.449 163.713 402.403 162.929 402.934 164.364 C 403.466 165.799 412.739 167.114 413.749 166.317 C 415.399 165.014 416.074 162.65 415.17 161.693 C 414.267 160.737 406.256 156.113 404.236 158.664 Z " fill="rgb(117,21,15)"/><path d=" M 404.449 157.229 Q 411.982 159.142 412.938 159.86 C 413.895 160.577 414.851 162.331 415.649 162.371 C 416.446 162.411 416.924 162.769 417.163 162.251 C 417.402 161.733 419.196 155.635 418.997 153.642 C 418.797 151.649 416.326 149.736 414.772 150.693 C 413.217 151.649 407.119 155.316 406.402 155.396 C 405.684 155.476 404.449 155.276 404.369 156.073 Q 404.289 156.871 404.449 157.229 Z " fill="rgb(117,21,15)"/></g><g><path d=" M 421.508 118.169 Q 418.718 121.756 418.797 123.749 C 418.877 125.742 422.783 133.155 423.979 134.351 C 425.175 135.547 427.167 135.467 427.566 136.583 C 427.965 137.699 424.457 140.728 422.066 141.366 C 419.674 142.004 413.297 143.917 412.101 143.439" fill="rgb(245,223,202)" vector-effect="non-scaling-stroke" stroke-width="1" stroke="rgb(0,0,0)" stroke-linejoin="miter" stroke-linecap="square" stroke-miterlimit="3"/><path d=" M 414.254 137.619 C 413.616 135.786 408.116 138.177 408.195 139.134" fill="none" vector-effect="non-scaling-stroke" stroke-width="1" stroke="rgb(0,0,0)" stroke-linejoin="miter" stroke-linecap="square" stroke-miterlimit="3"/></g><g><path d=" M 402.555 111.891 C 403.034 113.805 400.044 118.109 399.267 119.903 C 398.49 121.696 399.207 124.207 397.713 123.49 C 396.218 122.772 385.098 115.06 385.158 113.446 C 385.217 111.832 390.12 109.022 392.153 108.962 C 394.185 108.902 402.077 109.978 402.555 111.891 Z " fill="rgb(255,255,255)" vector-effect="non-scaling-stroke" stroke-width="0.1" stroke="rgb(0,0,0)" stroke-linejoin="miter" stroke-linecap="square" stroke-miterlimit="3"/><ellipse vector-effect="non-scaling-stroke" cx="397.150925610811" cy="115.27597895241207" rx="3.099451752108223" ry="3.377918120461686" fill="rgb(131,163,202)"/><path d=" M 417.416 103.661 Q 415.715 108.019 414.28 108.337 C 412.845 108.656 403.598 105.893 401.898 104.724 C 400.197 103.555 395.946 102.067 392.491 101.801 C 389.037 101.535 382.713 101.429 382.288 101.269 C 381.863 101.11 393.82 97.496 396.105 96.646 C 398.39 95.796 417.894 98.134 418.372 99.675 Q 418.851 101.216 417.416 103.661 Z " fill="rgb(15,15,15)"/><path d=" M 402.555 112.131 Q 403.452 113.805 403.751 113.715 C 404.05 113.625 406.591 112.758 406.74 111.712 C 406.89 110.666 405.963 109.201 406.023 108.693 C 406.083 108.185 404.827 108.723 404.499 108.484 C 404.17 108.244 399.656 107.198 398.938 107.676 C 398.221 108.155 392.362 107.527 389.761 108.334 C 387.161 109.141 383.753 111.682 383.543 112.041 Q 383.334 112.4 385.546 112.639 Q 390.598 109.261 391.435 109.62 Q 392.272 109.978 402.555 112.131 Z " fill="rgb(15,15,15)"/></g><g><path d=" M 422.172 120.215 Q 425.042 121.172 425.068 121.889 C 425.095 122.606 425.414 124.094 424.138 125.37 C 422.863 126.645 421.747 127.124 421.614 126.884 C 421.481 126.645 420.312 124.174 420.339 123.616 C 420.365 123.058 421.694 119.923 422.172 120.215 Z " fill="rgb(255,255,255)" vector-effect="non-scaling-stroke" stroke-width="0.05" stroke="rgb(0,0,0)" stroke-linejoin="miter" stroke-linecap="square" stroke-miterlimit="3"/><path d=" M 424.339 124.057 C 424.559 123.095 424.279 122.21 423.714 122.08 C 423.149 121.951 422.511 122.627 422.291 123.589 C 422.071 124.55 422.351 125.436 422.917 125.565 C 423.482 125.695 424.119 125.019 424.339 124.057 Z " fill="rgb(131,163,202)"/><path d=" M 431.817 110.463 C 430.914 110.516 428.788 111.313 427.779 112.111 C 426.769 112.908 425.6 114.608 426.291 114.608 C 426.981 114.608 431.871 115.352 431.658 116.256 C 431.445 117.159 430.276 118.7 430.276 119.551 C 430.276 120.401 433.359 116.787 433.837 115.246 C 434.315 113.705 435.431 111.739 434.74 111.42 C 434.049 111.101 432.721 110.41 431.817 110.463 Z " fill="rgb(15,15,15)"/><path d=" M 422.119 120.242 Q 424.67 121.118 424.882 121.73 C 425.095 122.341 424.882 124.759 424.51 125.104 C 424.138 125.45 426.211 125.609 426.716 125.45 C 427.221 125.29 429.134 125.529 429.771 124.998 C 430.409 124.466 432.774 123.749 432.774 123.457 C 432.774 123.164 430.967 121.597 430.542 121.437 C 430.117 121.278 430.25 121.172 430.755 120.64 C 431.259 120.109 430.197 120.614 430.303 120.162 C 430.409 119.71 422.81 119.258 422.597 119.551 Q 422.385 119.843 422.119 120.242 Z " fill="rgb(15,15,15)"/></g><path d=" M 334.778 140.861 Q 333.396 146.813 333.928 149.045 C 334.459 151.277 335.894 159.621 335.974 160.537 C 336.053 161.454 335.216 161.813 335.137 161.215 C 335.057 160.617 332.705 152.327 332.705 150.852 C 332.705 149.377 332.665 145.192 332.386 146.069 C 332.107 146.946 331.31 152.965 331.39 153.802 C 331.47 154.639 332.785 160.577 333.064 161.454 C 333.343 162.331 333.223 163.327 332.825 162.849 C 332.426 162.371 332.028 160.856 331.51 161.095 C 330.991 161.335 330.433 161.932 330.433 162.73 C 330.433 163.527 330.115 165.121 329.756 165.001 C 329.397 164.882 329.477 161.494 329.238 162.132 C 328.999 162.769 328.181 166.895 326.149 169.107 C 324.116 171.319 315.387 177.058 314.192 176.46 C 312.996 175.863 300.799 180.227 297.571 177.357 C 294.343 174.488 288.125 168.449 287.049 165.041 C 285.972 161.634 285.514 149.497 285.355 146.468 C 285.195 143.439 286.232 135.627 289.181 133.713 C 292.13 131.8 293.406 133.235 292.768 131.8 C 292.13 130.365 284.876 117.85 284.558 112.27 C 284.239 106.69 286.79 85.964 289.181 82.138 C 291.572 78.312 294.602 60.137 295.877 56.629 C 297.152 53.122 313.574 33.99 318.994 30.961 C 324.415 27.932 361.403 17.888 369.055 22.511 C 376.708 27.135 377.505 29.048 378.781 30.483 C 380.056 31.917 388.825 27.932 393.129 30.323 C 397.434 32.715 398.709 35.903 401.738 35.903 C 404.768 35.903 410.507 39.57 412.261 40.367 C 414.014 41.164 419.754 41.324 420.232 44.353 C 420.711 47.382 423.261 46.107 425.972 46.266 C 428.682 46.426 449.727 63.963 451.002 65.876 C 452.278 67.789 461.206 91.066 460.409 96.487 C 459.611 101.907 457.559 112.669 456.961 113.625 C 456.363 114.582 451.52 120.261 450.743 120.74 C 449.966 121.218 455.466 115.419 456.303 112.669 C 457.14 109.918 459.233 101.13 459.233 100.233 Q 458.994 99.516 458.515 101.01 C 458.037 102.505 456.004 107.527 454.45 110.397 C 452.895 113.266 450.922 117.75 450.444 118.827 Q 449.966 119.903 445.721 123.37 Q 447.993 121.397 450.145 116.017 C 452.298 110.636 454.151 106.75 454.27 105.375 C 454.39 104 454.629 98.918 454.33 99.755 C 454.031 100.592 450.982 109.201 449.846 110.755 C 448.71 112.31 441.656 119.185 440.639 119.723 Q 439.623 120.261 437.949 120.261 Q 443.868 115.718 444.764 112.429 C 445.661 109.141 446.08 109.022 445.362 109.679 C 444.645 110.337 438.128 114.701 436.693 114.522 Q 435.258 114.343 434.362 112.848 Q 441.357 111.353 441.596 109.44 C 441.835 107.527 442.313 105.494 441.357 106.331 C 440.4 107.168 435.079 111.712 435.079 111.174 C 435.079 110.636 438.846 91.146 437.949 90.189 C 437.052 89.232 437.112 94.912 433.345 98.978 C 429.579 103.043 420.611 109.62 417.98 110.337 Q 415.35 111.054 409.072 110.576 Q 420.013 106.152 418.937 105.255 C 417.861 104.358 396.637 100.114 395.68 99.994 C 394.723 99.874 400.044 98.798 399.805 98.38 C 399.566 97.961 398.191 96.766 396.816 97.184 C 395.441 97.603 400.516 91.704 402.057 88.462 Q 403.598 85.22 405.618 81.075 Q 393.661 92.979 391.057 94.414 C 388.453 95.849 374.37 103.076 367.461 109.825 C 360.552 116.575 361.19 113.067 360.021 116.15 C 358.852 119.232 356.832 128.372 357.683 131.933 C 358.533 135.494 357.895 134.909 358.32 137.513 C 358.745 140.117 364.272 151.543 365.495 153.669 C 366.717 155.794 369.852 161.906 369.906 163.66 C 369.959 165.413 371.022 168.655 368.736 169.665 Q 366.451 170.675 365.92 169.93 Q 367.461 169.558 367.674 168.442 C 367.886 167.326 365.92 160.896 363.954 158.824 C 361.987 156.751 351.305 146.441 350.668 143.997 C 350.03 141.552 344.384 111.592 342.949 110.158 C 341.514 108.723 333.861 101.429 332.426 102.864 C 330.991 104.299 320.589 107.766 321.784 111.712 C 322.98 115.658 331.709 133.594 333.383 135.866 Q 335.057 138.138 334.778 140.861 Z " fill="rgb(90,43,33)" vector-effect="non-scaling-stroke" stroke-width="0.1" stroke="rgb(0,0,0)" stroke-linejoin="miter" stroke-linecap="square" stroke-miterlimit="3"/><g><path d=" M 380.98 618.971 Q 389.309 724.452 391.285 731.667 C 393.261 738.882 350.335 741.483 349.629 737.126 C 348.636 731.007 343.813 671.252 346.39 625.11 Q 347.319 608.486 348.931 585.992 L 387.492 584.428 L 380.98 618.971 Z " fill="rgb(245,223,202)" vector-effect="non-scaling-stroke" stroke-width="1" stroke="rgb(0,0,0)" stroke-linejoin="miter" stroke-linecap="square" stroke-miterlimit="3"/><path d=" M 299.074 419.145 Q 284.326 453.819 296.392 483.138 C 308.458 512.457 323.861 540.609 325.314 572.977 C 326.767 605.344 328.683 617.641 330.15 625.151 C 331.618 632.662 406.945 631.585 405.315 618.258 C 404.585 612.29 398.777 537.253 398.227 493.248 C 398.052 479.266 396.114 465.159 398.288 453.451 Q 400.811 439.871 405.972 425.426 Q 393.548 429.755 340.521 422.131 Q 292.488 415.225 299.074 419.145 Z " fill="rgb(79,75,90)" vector-effect="non-scaling-stroke" stroke-width="1" stroke="rgb(0,0,0)" stroke-linejoin="miter" stroke-linecap="square" stroke-miterlimit="3"/><path d=" M 398.33 726.734 Q 405.262 732.034 405.44 736.303 C 405.617 740.572 444.687 757.11 455.898 758.4 C 467.108 759.691 473.857 771.794 470.726 774.38 C 467.594 776.966 412.285 779.713 401.099 777.998 C 389.914 776.284 368.47 760.558 367.769 757.962 C 367.068 755.366 362.049 772.109 362.476 775.753 C 362.903 779.398 338.388 779.889 338.41 775.845 C 338.432 771.8 344.722 751.512 344.719 747.892 C 344.717 744.272 340.376 731.03 343.246 729.281 C 346.116 727.531 362.345 730.391 373.292 728.898 Q 384.238 727.405 398.33 726.734 Z " fill="rgb(255,255,255)" vector-effect="non-scaling-stroke" stroke-width="1" stroke="rgb(0,0,0)" stroke-linejoin="miter" stroke-linecap="square" stroke-miterlimit="3"/></g></g></g></svg>