<?xml version="1.0" encoding="UTF-8" standalone="no"?><!-- Generator: Gravit.io --><svg xmlns="http://www.w3.org/2000/svg" xmlns:xlink="http://www.w3.org/1999/xlink" style="isolation:isolate" viewBox="0 0 1000 1000" width="1000pt" height="1000pt"><defs><clipPath id="_clipPath_Rt3FlyhQrV2qfdRLJfAZX7Y2wtca6isg"><rect width="1000" height="1000"/></clipPath></defs><g clip-path="url(#_clipPath_Rt3FlyhQrV2qfdRLJfAZX7Y2wtca6isg)"><g style="isolation:isolate"><g><path d=" M 449.923 288.914 C 453.749 301.881 500.94 325.689 508.38 332.066 Q 515.82 338.443 550.895 286.576 Q 531.338 275.522 527.299 268.082 Q 523.26 260.642 502.853 284.875 Q 487.973 272.758 481.596 274.884" fill="rgb(234,212,192)" vector-effect="non-scaling-stroke" stroke-width="1" stroke="rgb(0,0,0)" stroke-linejoin="miter" stroke-linecap="square" stroke-miterlimit="3"/><g><path d=" M 545.687 248.844 Q 553.552 265.212 561.949 265.743 Q 570.345 266.275 568.538 265.106 L 545.687 248.844 Z " fill="rgb(255,255,255)"/><path d=" M 542.883 243.809 Q 553.286 264.255 562.613 265.929 C 571.939 267.603 571.342 264.973 570.744 266.766 C 570.146 268.56 566.678 276.81 565.243 277.887 C 563.809 278.963 556.634 288.648 555.08 288.768 C 553.525 288.887 534.992 286.496 528.893 274.897 C 522.795 263.299 521.36 265.092 523.274 262.94 Q 525.187 260.788 542.883 243.809 Z " fill="rgb(224,192,187)" vector-effect="non-scaling-stroke" stroke-width="1" stroke="rgb(0,0,0)" stroke-linejoin="miter" stroke-linecap="square" stroke-miterlimit="3"/><path d=" M 544.557 244.167 C 543.96 237.83 542.525 226.351 554.362 214.992 C 566.2 203.632 561.417 205.904 563.928 204.469 C 566.439 203.034 574.929 199.925 577.679 201.121 C 580.429 202.317 581.266 198.61 585.332 201.599 C 589.397 204.589 593.702 205.785 595.256 210.089 C 596.811 214.394 603.387 221.807 602.67 223.72 C 601.952 225.634 603.865 231.253 601.354 231.373 C 598.843 231.493 601.939 234.482 603.254 235.678 C 604.569 236.873 603.972 242.732 591.297 245.124 C 578.622 247.515 574.57 257.798 573.733 259.951 C 572.896 262.103 572.776 266.527 570.505 265.929 C 568.233 265.332 545.155 250.505 544.557 244.167 Z " fill="rgb(227,195,189)" vector-effect="non-scaling-stroke" stroke-width="1" stroke="rgb(0,0,0)" stroke-linejoin="miter" stroke-linecap="square" stroke-miterlimit="3"/><path d=" M 656.344 155.352 Q 644.267 163.961 642.474 166.591 Q 640.68 169.222 589.503 212.268 L 585.318 206.887 L 583.046 202.702 Q 625.614 169.581 630.756 166.711 C 635.897 163.841 643.909 162.048 645.702 160.613 Q 647.496 159.178 656.344 155.352 Z " fill="rgb(162,170,196)" vector-effect="non-scaling-stroke" stroke-width="0.25" stroke="rgb(0,0,0)" stroke-linejoin="miter" stroke-linecap="square" stroke-miterlimit="3"/><path d=" M 666.96 169.554 Q 654.883 178.163 653.089 180.794 Q 651.296 183.424 600.119 226.471 L 595.934 221.09 L 593.662 216.905 Q 636.23 183.783 641.371 180.913 C 646.513 178.044 654.524 176.25 656.318 174.815 Q 658.111 173.38 666.96 169.554 Z " fill="rgb(162,170,196)" vector-effect="non-scaling-stroke" stroke-width="0.25" stroke="rgb(0,0,0)" stroke-linejoin="miter" stroke-linecap="square" stroke-miterlimit="3"/></g><path d=" M 536.188 293.278 C 543.501 293.56 545.001 293.091 545.188 296.653 C 545.376 300.216 509.563 354.591 507.032 353.278 C 504.501 351.966 497.188 343.997 499.532 339.028 C 501.876 334.06 528.876 292.997 536.188 293.278 Z " fill="rgb(115,142,121)"/><path d=" M 415.767 245.208 Q 414.491 244.335 415.767 243.591 C 417.042 242.847 419.525 236.621 420.588 235.027 C 421.65 233.432 430.26 222.804 425.37 217.914 C 420.481 213.025 373.609 183.903 382.962 150.423 C 392.315 116.942 403.688 94.728 424.626 86.757 C 445.565 78.785 470.542 87.395 489.78 96.11 C 509.018 104.826 538.672 122.682 539.628 130.866 C 540.585 139.05 531.869 168.81 531.551 170.192 C 531.232 171.574 532.401 173.274 529.85 176.038 C 527.299 178.801 522.304 184.328 521.985 186.454 C 521.666 188.579 519.54 192.087 520.284 192.618 C 521.028 193.15 522.729 207.18 519.54 214.832 C 516.352 222.485 513.057 226.524 510.612 228.224 C 508.168 229.925 504.235 237.152 502.322 238.853 C 500.409 240.553 491.906 240.447 486.485 238.853 C 481.065 237.259 476.6 233.007 471.818 238.959 C 467.035 244.911 464.362 264.575 463.087 265.107 C 461.811 265.638 455.523 270.324 451.696 268.411 C 447.87 266.498 434.102 248.936 431.657 248.724 Q 429.213 248.511 415.767 245.208 Z " fill="rgb(245,223,202)" vector-effect="non-scaling-stroke" stroke-width="1" stroke="rgb(0,0,0)" stroke-linejoin="miter" stroke-linecap="square" stroke-miterlimit="3"/><g><path d=" M 436.466 693.613 Q 391.947 777.956 391.086 786.124 C 390.224 794.292 364.561 777.633 366.112 773.03 C 367.664 768.426 379.537 710.699 392.441 678.686 Q 398.124 664.586 410.517 639.498 L 456.298 655.185 L 436.466 693.613 Z " fill="rgb(234,212,192)" vector-effect="non-scaling-stroke" stroke-width="1" stroke="rgb(0,0,0)" stroke-linejoin="miter" stroke-linecap="square" stroke-miterlimit="3"/><path d=" M 420.719 457.113 Q 373.839 495.194 378.895 529.605 C 383.952 564.016 401.087 598.524 394.038 633.361 C 386.988 668.199 385.762 681.796 385.33 690.179 C 384.898 698.563 465.361 717.421 467.165 702.803 Q 468.969 688.186 488.113 475.377 Q 504.699 499.038 450.282 476.841 Q 400.991 456.736 420.719 457.113 Z " fill="rgb(79,75,90)" vector-effect="non-scaling-stroke" stroke-width="1" stroke="rgb(0,0,0)" stroke-linejoin="miter" stroke-linecap="square" stroke-miterlimit="3"/><path d=" M 395.245 776.154 C 407.8 790.34 400.559 819.256 415.557 840.227 C 423.143 850.835 434.016 863.094 429.436 864.119 C 424.856 865.143 405.646 857.046 395.019 849.422 C 384.393 841.799 360.655 807.292 361.292 804.251 C 361.929 801.209 343.65 797.97 345.543 794.239 C 347.435 790.508 360.272 766.463 364.144 766.163 C 368.017 765.863 370.638 777.401 382.697 781.594 C 394.757 785.787 390.361 776.511 395.245 776.154 Z " fill="rgb(255,255,255)" vector-effect="non-scaling-stroke" stroke-width="1" stroke="rgb(0,0,0)" stroke-linejoin="miter" stroke-linecap="square" stroke-miterlimit="3"/><path d=" M 346.597 793.203 C 346.997 793.389 361.154 804.021 361.794 803.808 C 362.435 803.595 350.087 821.492 349.275 822.189 C 348.463 822.886 342.636 821.969 339.446 818.827 C 336.255 815.686 336.429 815.039 336.985 814 C 337.541 812.961 346.196 793.017 346.597 793.203 Z " fill="rgb(255,255,255)" vector-effect="non-scaling-stroke" stroke-width="1" stroke="rgb(0,0,0)" stroke-linejoin="miter" stroke-linecap="square" stroke-miterlimit="3"/></g><g><path d=" M 503.841 469.495 C 505.097 468.897 506.354 482.169 503.841 484.441 C 501.327 486.713 486.245 488.267 482.018 488.387 C 477.791 488.507 401.936 480.256 399.308 478.702 Q 396.681 477.147 384.8 477.254 Q 387.427 466.984 387.77 464.233 C 388.113 461.483 387.541 456.461 390.397 457.418 C 393.253 458.374 458.37 471.288 471.508 471.169 C 484.645 471.049 502.584 470.092 503.841 469.495 Z " fill="rgb(61,16,13)" vector-effect="non-scaling-stroke" stroke-width="0.5" stroke="rgb(0,0,0)" stroke-linejoin="miter" stroke-linecap="square" stroke-miterlimit="3"/><path d=" M 484.891 264.043 Q 500.196 281.049 501.259 287.213 C 502.322 293.378 506.786 336.318 507.211 342.695 C 507.636 349.072 511.462 353.536 504.873 369.054 C 498.283 384.572 499.133 386.272 499.984 389.886 C 500.834 393.5 500.196 404.979 499.771 409.655 C 499.346 414.332 495.519 419.646 497.22 421.985 C 498.921 424.323 504.235 430.913 506.148 437.077 C 508.061 443.242 512.95 447.706 515.714 451.957 Q 518.477 456.209 520.391 461.098 Q 507.985 475.458 500.97 473.758 C 493.955 472.057 490.468 474.298 484.303 476.424 C 478.138 478.55 441.526 470.026 438.762 467.263 C 435.999 464.499 420.481 463.436 409.64 463.861 C 398.799 464.287 380.305 454.508 379.242 451.32 C 378.179 448.131 385.832 443.88 386.257 440.904 C 386.682 437.928 379.455 428.787 384.556 420.284 C 389.658 411.781 390.508 413.269 391.146 407.742 C 391.784 402.215 400.712 381.808 401.562 373.943 C 402.413 366.078 389.446 309.108 389.233 302.093 C 389.02 295.078 388.595 277.01 389.446 272.333 C 390.296 267.657 390.508 263.193 394.547 257.666 C 398.586 252.139 402.838 253.202 403.901 249.375 C 404.963 245.549 402.625 238.747 404.963 236.833 C 407.302 234.92 410.278 239.172 417.718 239.809 C 425.158 240.447 436.212 241.085 444.289 244.911 C 452.367 248.738 455.556 255.752 457.681 254.264 C 459.807 252.776 471.499 253.202 475.75 255.752 Q 480.002 258.303 484.891 264.043 Z " fill="rgb(164,177,167)" vector-effect="non-scaling-stroke" stroke-width="1" stroke="rgb(0,0,0)" stroke-linejoin="miter" stroke-linecap="square" stroke-miterlimit="3"/></g><g><path d=" M 607.539 107.745 Q 604.946 125.173 605.717 128.877 Q 606.489 132.58 601.115 211.848 L 593.062 210.992 L 587.609 209.485 Q 594.373 145.763 596.158 138.999 C 597.942 132.235 603.013 123.903 603.265 121.186 Q 603.516 118.468 607.539 107.745 Z " fill="rgb(162,170,196)" vector-effect="non-scaling-stroke" stroke-width="0.25" stroke="rgb(0,0,0)" stroke-linejoin="miter" stroke-linecap="square" stroke-miterlimit="3"/><path d=" M 628.44 110.374 Q 625.847 127.803 626.618 131.506 Q 627.39 135.209 622.016 214.478 L 613.963 213.621 L 608.51 212.114 Q 615.275 148.393 617.059 141.628 C 618.844 134.864 623.915 126.532 624.166 123.815 Q 624.418 121.098 628.44 110.374 Z " fill="rgb(162,170,196)" vector-effect="non-scaling-stroke" stroke-width="0.25" stroke="rgb(0,0,0)" stroke-linejoin="miter" stroke-linecap="square" stroke-miterlimit="3"/><path d=" M 610.065 281.556 C 614.205 285.071 600.181 323.008 596.673 329.066 C 593.166 335.125 585.194 348.198 582.325 349.154 C 579.455 350.111 571.164 354.256 566.382 352.662 Q 561.599 351.067 512.175 329.385 Q 526.205 292.397 534.814 294.629 Q 543.424 296.861 554.903 304.195 Q 574.353 275.498 576.585 272.309 C 578.817 269.121 593.166 267.207 610.065 281.556 Z " fill="rgb(245,223,202)" vector-effect="non-scaling-stroke" stroke-width="1" stroke="rgb(0,0,0)" stroke-linejoin="miter" stroke-linecap="square" stroke-miterlimit="3"/><path d=" M 574.703 251.607 C 573.959 252.776 594.897 242.786 603.507 246.612 C 612.116 250.438 625.189 259.26 625.827 265.637 C 626.464 272.014 628.696 261.811 628.165 260.004 C 627.634 258.197 622.299 247.995 619.11 246.72 C 615.922 245.444 594.577 235.197 590.22 236.153 C 585.862 237.11 575.447 250.438 574.703 251.607 Z " fill="rgb(255,255,255)"/><path d=" M 609.173 296.794 C 606.622 295.519 618.28 295.397 616.048 289.02 C 613.816 282.643 600.743 271.802 588.945 272.439 C 577.148 273.077 578.888 268.786 570.133 277.541 Q 568.538 279.135 571.408 281.686 Q 565.987 279.135 566.306 274.034 C 566.625 268.932 571.408 265.106 573.321 260.323 Q 575.234 255.54 575.234 252.032 Q 589.264 241.51 607.439 248.206 C 625.614 254.902 626.89 265.425 625.933 269.251 C 624.976 273.077 622.107 288.064 620.831 290.933 C 619.556 293.803 611.724 298.069 609.173 296.794 Z " fill="rgb(228,202,195)" vector-effect="non-scaling-stroke" stroke-width="1" stroke="rgb(0,0,0)" stroke-linejoin="miter" stroke-linecap="square" stroke-miterlimit="3"/><path d=" M 574.676 250.797 Q 583.405 244.34 585.318 243.742 C 587.231 243.144 601.461 238.242 615.092 245.894 Q 628.723 253.547 625.532 262.763 L 626.774 267.462 Q 630.517 259.526 630.756 256.417 C 630.995 253.308 633.626 238.6 633.386 230.709 C 633.147 222.817 634.343 219.588 632.908 218.034 C 631.473 216.48 624.179 211.458 623.581 210.023 C 622.984 208.588 620.831 203.805 617.842 202.848 C 614.853 201.892 613.657 203.327 612.222 202.131 C 610.787 200.935 607.917 198.065 603.613 199.022 C 599.308 199.979 597.873 201.772 594.765 199.381 C 591.656 196.989 586.036 190.652 580.535 193.641 Q 575.035 196.631 574.557 198.783 Q 566.426 202.848 566.665 205.718 C 566.904 208.588 569.296 214.686 570.611 214.806 C 571.926 214.925 569.535 218.393 569.415 220.425 C 569.296 222.458 569.535 232.861 570.252 234.894 Q 570.97 236.926 574.676 250.797 Z " fill="rgb(227,195,189)" vector-effect="non-scaling-stroke" stroke-width="1" stroke="rgb(0,0,0)" stroke-linejoin="miter" stroke-linecap="square" stroke-miterlimit="3"/><path d=" M 548.376 299.372 C 548.522 300.568 545.458 298.91 543.97 298.06 C 542.482 297.209 538.476 292.101 532.019 297.442 C 522.75 305.109 517.989 316.786 517.139 319.975 C 516.288 323.163 507.573 340.169 507.785 344.846 C 507.998 349.522 507.201 348.287 509.539 345.311 Q 511.878 342.335 516.97 332.091 L 525.876 336.028 L 511.399 353.561 Q 508.809 356.085 505.832 355.235 C 502.856 354.385 478.238 350.798 473.986 348.034 C 469.735 345.271 430.196 313.597 443.163 280.436 C 456.13 247.275 481.214 255.14 483.977 258.541 C 486.741 261.942 489.504 265.343 493.118 265.981 C 496.732 266.619 497.795 274.697 500.345 274.909 C 502.896 275.122 508.636 279.161 511.399 278.523 C 514.163 277.885 513.525 280.223 520.115 284.05 C 526.704 287.876 530.743 289.364 533.932 289.577 C 537.121 289.789 547.217 289.893 548.376 299.372 Z " fill="rgb(164,177,167)" vector-effect="non-scaling-stroke" stroke-width="1" stroke="rgb(0,0,0)" stroke-linejoin="miter" stroke-linecap="square" stroke-miterlimit="3"/><path d=" M 574.676 273.702 Q 568.578 277.647 569.176 279.561 Q 569.774 281.474 572.165 281.833 Q 576.59 273.702 574.676 273.702 Z " fill="rgb(0,0,0)"/><path d=" M 610.907 284.463 L 609.267 296.044 Q 615.961 294.397 616.626 291.403 C 616.72 290.982 613.418 281.681 610.907 282.638 Q 608.396 283.594 610.907 284.463 Z " fill="rgb(0,0,0)"/></g><g><path d=" M 501.206 217.755 C 499.186 220.306 502.588 220.465 502.003 221.634 C 501.418 222.804 499.372 222.02 499.904 223.455 C 500.435 224.89 509.709 226.205 510.718 225.408 C 512.369 224.105 513.043 221.741 512.14 220.784 C 511.237 219.828 503.225 215.204 501.206 217.755 Z " fill="rgb(117,21,15)"/><path d=" M 501.418 216.32 Q 508.951 218.233 509.908 218.951 C 510.865 219.668 511.821 221.422 512.618 221.462 C 513.415 221.502 513.894 221.86 514.133 221.342 C 514.372 220.824 516.166 214.726 515.966 212.733 C 515.767 210.74 513.296 208.827 511.741 209.784 C 510.187 210.74 504.089 214.407 503.371 214.487 C 502.654 214.566 501.418 214.367 501.339 215.164 Q 501.259 215.961 501.418 216.32 Z " fill="rgb(117,21,15)"/></g><g><path d=" M 518.477 177.26 Q 515.687 180.847 515.767 182.84 C 515.847 184.833 519.753 192.246 520.949 193.442 C 522.144 194.638 524.137 194.558 524.536 195.674 C 524.934 196.79 521.427 199.819 519.035 200.457 C 516.644 201.095 510.267 203.008 509.071 202.529" fill="rgb(245,223,202)" vector-effect="non-scaling-stroke" stroke-width="1" stroke="rgb(0,0,0)" stroke-linejoin="miter" stroke-linecap="square" stroke-miterlimit="3"/><path d=" M 511.223 196.71 C 510.586 194.877 505.085 197.268 505.165 198.225" fill="none" vector-effect="non-scaling-stroke" stroke-width="1" stroke="rgb(0,0,0)" stroke-linejoin="miter" stroke-linecap="square" stroke-miterlimit="3"/></g><g><path d=" M 499.525 170.982 C 500.003 172.895 497.014 177.2 496.237 178.994 C 495.46 180.787 496.177 183.298 494.682 182.581 C 493.188 181.863 482.068 174.151 482.127 172.537 C 482.187 170.923 487.09 168.113 489.122 168.053 C 491.155 167.993 499.047 169.069 499.525 170.982 Z " fill="rgb(255,255,255)" vector-effect="non-scaling-stroke" stroke-width="0.1" stroke="rgb(0,0,0)" stroke-linejoin="miter" stroke-linecap="square" stroke-miterlimit="3"/><ellipse vector-effect="non-scaling-stroke" cx="494.120622580508" cy="174.3668880433212" rx="3.099451752108223" ry="3.377918120461686" fill="rgb(131,163,202)"/><path d=" M 514.385 162.752 Q 512.685 167.11 511.25 167.428 C 509.815 167.747 500.568 164.984 498.868 163.815 C 497.167 162.645 492.915 161.157 489.461 160.892 C 486.007 160.626 479.683 160.52 479.258 160.36 C 478.833 160.201 490.79 156.587 493.075 155.737 C 495.36 154.887 514.864 157.225 515.342 158.766 Q 515.82 160.307 514.385 162.752 Z " fill="rgb(15,15,15)"/><path d=" M 499.525 171.221 Q 500.422 172.895 500.721 172.806 C 501.02 172.716 503.561 171.849 503.71 170.803 C 503.86 169.757 502.933 168.292 502.993 167.784 C 503.053 167.276 501.797 167.814 501.468 167.575 C 501.139 167.335 496.626 166.289 495.908 166.767 C 495.191 167.246 489.332 166.618 486.731 167.425 C 484.13 168.232 480.722 170.773 480.513 171.132 Q 480.304 171.491 482.516 171.73 Q 487.568 168.352 488.405 168.71 Q 489.242 169.069 499.525 171.221 Z " fill="rgb(15,15,15)"/></g><g><path d=" M 519.142 179.306 Q 522.011 180.262 522.038 180.98 C 522.065 181.697 522.383 183.185 521.108 184.461 C 519.833 185.736 518.717 186.215 518.584 185.975 C 518.451 185.736 517.282 183.265 517.308 182.707 C 517.335 182.149 518.663 179.014 519.142 179.306 Z " fill="rgb(255,255,255)" vector-effect="non-scaling-stroke" stroke-width="0.05" stroke="rgb(0,0,0)" stroke-linejoin="miter" stroke-linecap="square" stroke-miterlimit="3"/><path d=" M 521.309 183.148 C 521.529 182.186 521.249 181.301 520.684 181.171 C 520.118 181.042 519.481 181.718 519.261 182.679 C 519.041 183.641 519.321 184.527 519.886 184.656 C 520.452 184.785 521.089 184.11 521.309 183.148 Z " fill="rgb(131,163,202)"/><path d=" M 528.787 169.554 C 527.884 169.607 525.758 170.404 524.748 171.202 C 523.739 171.999 522.569 173.699 523.26 173.699 C 523.951 173.699 528.84 174.443 528.628 175.347 C 528.415 176.25 527.246 177.791 527.246 178.642 C 527.246 179.492 530.328 175.878 530.807 174.337 C 531.285 172.796 532.401 170.83 531.71 170.511 C 531.019 170.192 529.691 169.501 528.787 169.554 Z " fill="rgb(15,15,15)"/><path d=" M 519.089 179.332 Q 521.639 180.209 521.852 180.82 C 522.065 181.432 521.852 183.85 521.48 184.195 C 521.108 184.54 523.181 184.7 523.685 184.54 C 524.19 184.381 526.103 184.62 526.741 184.089 C 527.379 183.557 529.744 182.84 529.744 182.548 C 529.744 182.255 527.937 180.688 527.512 180.528 C 527.087 180.369 527.219 180.262 527.724 179.731 C 528.229 179.2 527.166 179.704 527.273 179.253 C 527.379 178.801 519.779 178.349 519.567 178.642 Q 519.354 178.934 519.089 179.332 Z " fill="rgb(15,15,15)"/></g><path d=" M 494.794 722.844 Q 496.803 828.523 500.344 836.908 C 503.885 845.294 470.062 842.885 469.1 837.588 C 468.138 832.29 448.722 769.926 444.085 731.955 Q 442.043 715.231 440.622 684.252 L 493.441 674.937 L 494.794 722.844 Z " fill="rgb(245,223,202)" vector-effect="non-scaling-stroke" stroke-width="1" stroke="rgb(0,0,0)" stroke-linejoin="miter" stroke-linecap="square" stroke-miterlimit="3"/><g><path d=" M 384.321 476.453 Q 367.319 516.425 381.229 550.224 C 395.138 584.024 412.896 616.478 414.57 653.791 C 416.245 691.105 418.454 705.281 420.146 713.939 C 421.838 722.597 508.676 721.356 506.797 705.992 C 505.955 699.112 499.259 612.609 498.625 561.879 C 498.424 545.76 496.189 529.498 498.696 516.002 Q 501.604 500.346 507.553 483.694 Q 493.231 488.684 432.101 479.895 Q 376.728 471.934 384.321 476.453 Z " fill="rgb(79,75,90)" vector-effect="non-scaling-stroke" stroke-width="1" stroke="rgb(0,0,0)" stroke-linejoin="miter" stroke-linecap="square" stroke-miterlimit="3"/><path d=" M 498.725 798.985 C 519.714 807.733 527.033 842.759 554.214 857.558 C 567.963 865.044 586.127 872.592 581.716 876.097 C 577.305 879.603 552.315 880.914 536.845 878.244 C 521.375 875.574 477.666 850.731 476.761 847.112 C 475.857 843.493 454.416 849.565 454.507 844.544 C 454.598 839.523 455.873 806.83 459.899 804.478 C 463.925 802.126 472.797 813.216 488.019 811.431 C 503.241 809.645 493.636 801.927 498.725 798.985 Z " fill="rgb(255,255,255)" vector-effect="non-scaling-stroke" stroke-width="1" stroke="rgb(0,0,0)" stroke-linejoin="miter" stroke-linecap="square" stroke-miterlimit="3"/><path d=" M 455.103 842.873 C 455.633 842.865 476.492 846.937 477.072 846.371 C 477.653 845.805 473.686 871.602 473.174 872.78 C 472.662 873.958 465.888 876.02 460.797 874.296 C 455.706 872.573 455.555 871.784 455.611 870.371 C 455.668 868.957 454.573 842.882 455.103 842.873 Z " fill="rgb(255,255,255)" vector-effect="non-scaling-stroke" stroke-width="1" stroke="rgb(0,0,0)" stroke-linejoin="miter" stroke-linecap="square" stroke-miterlimit="3"/></g><path d=" M 431.748 199.952 Q 430.366 205.904 430.897 208.136 C 431.429 210.368 432.864 218.712 432.943 219.628 C 433.023 220.545 432.186 220.904 432.106 220.306 C 432.027 219.708 429.675 211.418 429.675 209.943 C 429.675 208.468 429.635 204.283 429.356 205.16 C 429.077 206.037 428.28 212.055 428.36 212.892 C 428.439 213.729 429.755 219.668 430.034 220.545 C 430.313 221.422 430.193 222.418 429.795 221.94 C 429.396 221.462 428.997 219.947 428.479 220.186 C 427.961 220.425 427.403 221.023 427.403 221.82 C 427.403 222.618 427.084 224.212 426.726 224.092 C 426.367 223.973 426.447 220.585 426.207 221.223 C 425.968 221.86 425.151 225.986 423.118 228.198 C 421.086 230.41 412.357 236.149 411.161 235.551 C 409.965 234.954 397.769 239.318 394.541 236.448 C 391.312 233.578 385.094 227.54 384.018 224.132 C 382.942 220.724 382.484 208.588 382.324 205.559 C 382.165 202.529 383.201 194.717 386.151 192.804 C 389.1 190.891 390.376 192.326 389.738 190.891 C 389.1 189.456 381.846 176.941 381.527 171.361 C 381.208 165.781 383.759 145.055 386.151 141.229 C 388.542 137.402 391.571 119.227 392.847 115.72 C 394.122 112.213 410.543 93.081 415.964 90.052 C 421.385 87.023 458.372 76.979 466.025 81.602 C 473.678 86.225 474.475 88.139 475.75 89.574 C 477.026 91.008 485.794 87.023 490.099 89.414 C 494.403 91.806 495.679 94.994 498.708 94.994 C 501.737 94.994 507.477 98.661 509.23 99.458 C 510.984 100.255 516.724 100.415 517.202 103.444 C 517.68 106.473 520.231 105.198 522.941 105.357 C 525.652 105.516 546.696 123.054 547.972 124.967 C 549.247 126.88 558.175 150.157 557.378 155.577 C 556.581 160.998 554.528 171.76 553.931 172.716 C 553.333 173.673 548.49 179.352 547.713 179.831 C 546.936 180.309 552.436 174.51 553.273 171.76 C 554.11 169.009 556.202 160.221 556.202 159.324 Q 555.963 158.607 555.485 160.101 C 555.007 161.596 552.974 166.618 551.42 169.488 C 549.865 172.357 547.892 176.841 547.414 177.918 Q 546.936 178.994 542.691 182.461 Q 544.963 180.488 547.115 175.108 C 549.267 169.727 551.121 165.841 551.24 164.466 C 551.36 163.091 551.599 158.009 551.3 158.846 C 551.001 159.683 547.952 168.292 546.816 169.846 C 545.68 171.401 538.625 178.276 537.609 178.814 Q 536.593 179.352 534.919 179.352 Q 540.837 174.809 541.734 171.52 C 542.631 168.232 543.049 168.113 542.332 168.77 C 541.615 169.428 535.098 173.792 533.663 173.613 Q 532.228 173.434 531.331 171.939 Q 538.326 170.444 538.566 168.531 C 538.805 166.618 539.283 164.585 538.326 165.422 C 537.37 166.259 532.049 170.803 532.049 170.265 C 532.049 169.727 535.815 150.237 534.919 149.28 C 534.022 148.323 534.082 154.003 530.315 158.069 C 526.549 162.134 517.581 168.71 514.95 169.428 Q 512.319 170.145 506.042 169.667 Q 516.983 165.243 515.907 164.346 C 514.83 163.449 493.606 159.204 492.65 159.085 C 491.693 158.965 497.014 157.889 496.775 157.471 C 496.536 157.052 495.161 155.856 493.786 156.275 C 492.411 156.693 497.486 150.795 499.027 147.553 Q 500.568 144.311 502.588 140.166 Q 490.63 152.07 488.026 153.505 C 485.422 154.94 471.339 162.167 464.431 168.916 C 457.522 175.666 458.16 172.158 456.991 175.24 C 455.821 178.323 453.802 187.463 454.652 191.024 C 455.503 194.585 454.865 194 455.29 196.604 C 455.715 199.208 461.242 210.634 462.464 212.76 C 463.687 214.885 466.822 220.997 466.875 222.75 C 466.928 224.504 467.991 227.746 465.706 228.756 Q 463.421 229.765 462.89 229.021 Q 464.431 228.649 464.643 227.533 C 464.856 226.417 462.89 219.987 460.923 217.914 C 458.957 215.842 448.275 205.532 447.637 203.087 C 447 200.643 441.353 170.683 439.918 169.249 C 438.483 167.814 430.831 160.52 429.396 161.955 C 427.961 163.389 417.558 166.857 418.754 170.803 C 419.95 174.749 428.679 192.685 430.353 194.957 Q 432.027 197.228 431.748 199.952 Z " fill="rgb(90,43,33)" vector-effect="non-scaling-stroke" stroke-width="0.1" stroke="rgb(0,0,0)" stroke-linejoin="miter" stroke-linecap="square" stroke-miterlimit="3"/><g><path d=" M 428.588 190.492 Q 423.336 182.562 422.1 179.782 C 420.864 177.001 417.735 170.114 417.595 166.247 C 417.505 163.773 426.014 159.598 427.352 160.113 C 428.691 160.627 435.282 166.085 435.591 167.63 C 435.9 169.175 436.003 171.955 435.797 173.603 C 435.591 175.251 433.428 175.354 433.428 176.795 C 433.428 178.237 432.501 181.018 433.634 181.533 C 434.767 182.047 436.518 195.538 433.119 193.993 Q 429.721 192.449 428.588 190.492 Z " fill="rgb(245,223,202)" vector-effect="non-scaling-stroke" stroke-width="1" stroke="rgb(0,0,0)" stroke-linejoin="miter" stroke-linecap="square" stroke-miterlimit="3"/><path d=" M 434.355 175.663 Q 432.707 171.749 431.06 173.397 C 429.412 175.045 427.146 176.075 429 178.752 C 430.854 181.43 430.957 182.356 432.604 181.945 C 434.252 181.533 432.604 179.576 433.016 177.928 Q 433.428 176.281 434.355 175.663 Z " fill="rgb(202,174,148)" vector-effect="non-scaling-stroke" stroke-width="0.5" stroke="rgb(0,0,0)" stroke-linejoin="miter" stroke-linecap="square" stroke-miterlimit="3"/><path d=" M 431.782 182.591 C 431.782 183.402 434.149 192.178 433.106 191.483 C 432.064 190.788 418.625 172.599 419.32 168.544 C 420.015 164.489 425.808 161.361 427.43 162.52 C 429.051 163.678 432.643 166.69 432.99 167.965 C 433.338 169.239 433.24 173.504 434.282 174.778 C 435.325 176.053 435.899 173.989 435.782 171.778 C 435.657 169.403 435.959 168.65 435.032 167.028 C 434.105 165.406 428.472 159.508 426.966 159.855 C 425.46 160.203 417.664 164.27 417.806 166.036 C 417.946 167.794 420.829 178.763 428.704 190.788 C 430.23 193.118 432.99 194.959 434.033 193.8 C 435.076 192.642 434.826 189.89 434.595 187.341 C 434.363 184.792 433.852 182.028 433.157 182.028 C 432.462 182.028 431.782 181.78 431.782 182.591 Z " fill="rgb(232,211,192)"/></g></g></g></g></svg>