<?xml version="1.0" encoding="UTF-8" standalone="no"?><!-- Generator: Gravit.io --><svg xmlns="http://www.w3.org/2000/svg" xmlns:xlink="http://www.w3.org/1999/xlink" style="isolation:isolate" viewBox="0 0 1000 1000" width="1000pt" height="1000pt"><defs><clipPath id="_clipPath_p95uOpo4yNtP3H3CgXi2Dmi4rGiraCoS"><rect width="1000" height="1000"/></clipPath></defs><g clip-path="url(#_clipPath_p95uOpo4yNtP3H3CgXi2Dmi4rGiraCoS)"><g style="isolation:isolate"><g><g><path d=" M 452.95 296.29 C 457.441 309.042 505.799 330.382 513.558 336.367 Q 521.317 342.351 553.667 288.742 Q 533.566 278.712 529.148 271.491 Q 524.731 264.269 505.602 289.524 Q 490.116 278.191 483.857 280.644" fill="rgb(234,212,192)" vector-effect="non-scaling-stroke" stroke-width="1" stroke="rgb(0,0,0)" stroke-linejoin="miter" stroke-linecap="square" stroke-miterlimit="3"/><path d=" M 547.383 253.538 Q 556.083 269.478 564.496 269.575 Q 572.909 269.672 571.044 268.598 L 547.383 253.538 Z " fill="rgb(255,255,255)"/><path d=" M 544.324 248.654 Q 555.768 268.536 565.169 269.726 C 574.57 270.917 573.837 268.321 573.332 270.143 C 572.828 271.965 569.791 280.383 568.413 281.532 C 567.036 282.681 560.371 292.724 558.825 292.923 C 557.279 293.123 538.646 291.691 531.958 280.423 C 525.269 269.155 523.928 271.02 525.728 268.772 Q 527.527 266.524 544.324 248.654 Z " fill="rgb(224,192,187)" vector-effect="non-scaling-stroke" stroke-width="1" stroke="rgb(0,0,0)" stroke-linejoin="miter" stroke-linecap="square" stroke-miterlimit="3"/><path d=" M 546.014 248.925 C 545.09 242.627 543.064 231.238 554.3 219.283 C 565.535 207.327 560.876 209.843 563.31 208.28 C 565.743 206.718 574.061 203.175 576.869 204.227 C 579.677 205.279 580.322 201.534 584.536 204.309 C 588.751 207.085 593.111 208.057 594.886 212.275 C 596.66 216.494 603.611 223.558 602.993 225.506 C 602.376 227.453 604.576 232.967 602.075 233.216 C 599.573 233.465 602.819 236.291 604.194 237.417 C 605.57 238.543 605.275 244.425 592.741 247.468 C 580.206 250.51 576.691 260.989 575.966 263.182 C 575.241 265.374 575.35 269.799 573.05 269.319 C 570.751 268.839 546.938 255.224 546.014 248.925 Z " fill="rgb(227,195,189)" vector-effect="non-scaling-stroke" stroke-width="1" stroke="rgb(0,0,0)" stroke-linejoin="miter" stroke-linecap="square" stroke-miterlimit="3"/><path d=" M 653.067 154.457 Q 641.45 163.678 639.795 166.398 Q 638.14 169.118 589.253 214.748 L 584.796 209.591 L 582.311 205.529 Q 623.112 170.254 628.099 167.122 C 633.085 163.991 640.993 161.786 642.711 160.261 Q 644.428 158.735 653.067 154.457 Z " fill="rgb(162,170,196)" vector-effect="non-scaling-stroke" stroke-width="0.25" stroke="rgb(0,0,0)" stroke-linejoin="miter" stroke-linecap="square" stroke-miterlimit="3"/><path d=" M 664.401 168.093 Q 652.785 177.314 651.13 180.034 Q 649.474 182.753 600.588 228.384 L 596.13 223.226 L 593.646 219.164 Q 634.447 183.889 639.433 180.758 C 644.42 177.627 652.328 175.422 654.045 173.896 Q 655.762 172.371 664.401 168.093 Z " fill="rgb(162,170,196)" vector-effect="non-scaling-stroke" stroke-width="0.25" stroke="rgb(0,0,0)" stroke-linejoin="miter" stroke-linecap="square" stroke-miterlimit="3"/></g><path d=" M 536.188 293.278 C 543.501 293.56 545.001 293.091 545.188 296.653 C 545.376 300.216 509.563 354.591 507.032 353.278 C 504.501 351.966 497.188 343.997 499.532 339.028 C 501.876 334.06 528.876 292.997 536.188 293.278 Z " fill="rgb(115,142,121)"/><path d=" M 415.767 245.208 Q 414.491 244.335 415.767 243.591 C 417.042 242.847 419.525 236.621 420.588 235.027 C 421.65 233.432 430.26 222.804 425.37 217.914 C 420.481 213.025 373.609 183.903 382.962 150.423 C 392.315 116.942 403.688 94.728 424.626 86.757 C 445.565 78.785 470.542 87.395 489.78 96.11 C 509.018 104.826 538.672 122.682 539.628 130.866 C 540.585 139.05 531.869 168.81 531.551 170.192 C 531.232 171.574 532.401 173.274 529.85 176.038 C 527.299 178.801 522.304 184.328 521.985 186.454 C 521.666 188.579 519.54 192.087 520.284 192.618 C 521.028 193.15 522.729 207.18 519.54 214.832 C 516.352 222.485 513.057 226.524 510.612 228.224 C 508.168 229.925 504.235 237.152 502.322 238.853 C 500.409 240.553 491.906 240.447 486.485 238.853 C 481.065 237.259 476.45 233.381 471.667 239.333 C 466.884 245.285 464.362 264.575 463.087 265.107 C 461.811 265.638 455.523 270.324 451.696 268.411 C 447.87 266.498 434.102 248.936 431.657 248.724 Q 429.213 248.511 415.767 245.208 Z " fill="rgb(245,223,202)" vector-effect="non-scaling-stroke" stroke-width="1" stroke="rgb(0,0,0)" stroke-linejoin="miter" stroke-linecap="square" stroke-miterlimit="3"/><g><path d=" M 436.466 693.613 Q 391.947 777.956 391.086 786.124 C 390.224 794.292 364.561 777.633 366.112 773.03 C 367.664 768.426 379.537 710.699 392.441 678.686 Q 398.124 664.586 410.517 639.498 L 456.298 655.185 L 436.466 693.613 Z " fill="rgb(234,212,192)" vector-effect="non-scaling-stroke" stroke-width="1" stroke="rgb(0,0,0)" stroke-linejoin="miter" stroke-linecap="square" stroke-miterlimit="3"/><path d=" M 420.719 457.113 Q 373.839 495.194 378.895 529.605 C 383.952 564.016 401.087 598.524 394.038 633.361 C 386.988 668.199 385.762 681.796 385.33 690.179 C 384.898 698.563 465.361 717.421 467.165 702.803 Q 468.969 688.186 488.113 475.377 Q 504.699 499.038 450.282 476.841 Q 400.991 456.736 420.719 457.113 Z " fill="rgb(79,75,90)" vector-effect="non-scaling-stroke" stroke-width="1" stroke="rgb(0,0,0)" stroke-linejoin="miter" stroke-linecap="square" stroke-miterlimit="3"/><path d=" M 395.245 776.154 C 407.8 790.34 400.559 819.256 415.557 840.227 C 423.143 850.835 434.016 863.094 429.436 864.119 C 424.856 865.143 405.646 857.046 395.019 849.422 C 384.393 841.799 360.655 807.292 361.292 804.251 C 361.929 801.209 343.65 797.97 345.543 794.239 C 347.435 790.508 360.272 766.463 364.144 766.163 C 368.017 765.863 370.638 777.401 382.697 781.594 C 394.757 785.787 390.361 776.511 395.245 776.154 Z " fill="rgb(255,255,255)" vector-effect="non-scaling-stroke" stroke-width="1" stroke="rgb(0,0,0)" stroke-linejoin="miter" stroke-linecap="square" stroke-miterlimit="3"/><path d=" M 346.597 793.203 C 346.997 793.389 361.154 804.021 361.794 803.808 C 362.435 803.595 350.087 821.492 349.275 822.189 C 348.463 822.886 342.636 821.969 339.446 818.827 C 336.255 815.686 336.429 815.039 336.985 814 C 337.541 812.961 346.196 793.017 346.597 793.203 Z " fill="rgb(255,255,255)" vector-effect="non-scaling-stroke" stroke-width="1" stroke="rgb(0,0,0)" stroke-linejoin="miter" stroke-linecap="square" stroke-miterlimit="3"/></g><g><path d=" M 503.841 469.495 C 505.097 468.897 508.513 484.061 506 486.333 C 503.487 488.605 486.245 488.267 482.018 488.387 C 477.791 488.507 401.936 480.256 399.308 478.702 Q 396.681 477.147 384.8 477.254 Q 387.427 466.984 387.77 464.233 C 388.113 461.483 387.541 456.461 390.397 457.418 C 393.253 458.374 458.37 471.288 471.508 471.169 C 484.645 471.049 502.584 470.092 503.841 469.495 Z " fill="rgb(61,16,13)" vector-effect="non-scaling-stroke" stroke-width="0.5" stroke="rgb(0,0,0)" stroke-linejoin="miter" stroke-linecap="square" stroke-miterlimit="3"/><path d=" M 484.891 264.043 Q 500.196 281.049 501.259 287.213 C 502.322 293.378 506.786 336.318 507.211 342.695 C 507.636 349.072 510.465 354.232 503.875 369.75 C 497.285 385.268 499.025 387.136 499.875 390.75 C 500.725 394.364 499.55 404.948 499.125 409.625 C 498.7 414.302 495.174 419.63 496.875 421.969 C 498.576 424.307 504.235 430.913 506.148 437.077 C 508.061 443.242 512.487 448.561 515.25 452.812 Q 518.013 457.064 518.156 461.438 Q 507.985 475.458 500.97 473.758 C 493.955 472.057 490.468 474.298 484.303 476.424 C 478.138 478.55 441.526 470.026 438.762 467.263 C 435.999 464.499 420.481 463.436 409.64 463.861 C 398.799 464.287 382.063 454.782 381 451.594 C 379.937 448.405 385.832 443.88 386.257 440.904 C 386.682 437.928 379.455 428.787 384.556 420.284 C 389.658 411.781 390.508 413.269 391.146 407.742 C 391.784 402.215 400.712 381.808 401.562 373.943 C 402.413 366.078 389.446 309.108 389.233 302.093 C 389.02 295.078 389.618 277.489 390.469 272.813 C 391.319 268.136 393.961 263.194 398 257.667 C 402.039 252.14 402.838 253.202 403.901 249.375 C 404.963 245.549 404.349 239.757 406.688 237.844 C 409.026 235.931 411.529 240.769 418.969 241.406 C 426.409 242.044 435.641 245.924 443.719 249.75 C 451.797 253.576 456.593 257.332 458.719 255.844 C 460.844 254.356 472.415 255.116 476.667 257.667 Q 480.918 260.218 484.891 264.043 Z " fill="rgb(164,177,167)" vector-effect="non-scaling-stroke" stroke-width="1" stroke="rgb(0,0,0)" stroke-linejoin="miter" stroke-linecap="square" stroke-miterlimit="3"/></g><g><path d=" M 604.618 109.718 Q 602.573 127.219 603.46 130.897 Q 604.347 134.574 601.462 213.972 L 593.386 213.368 L 587.888 212.033 Q 592.652 148.131 594.223 141.314 C 595.794 134.497 600.602 126.01 600.768 123.286 Q 600.934 120.562 604.618 109.718 Z " fill="rgb(162,170,196)" vector-effect="non-scaling-stroke" stroke-width="0.25" stroke="rgb(0,0,0)" stroke-linejoin="miter" stroke-linecap="square" stroke-miterlimit="3"/><path d=" M 625.592 111.691 Q 623.547 129.192 624.434 132.87 Q 625.321 136.547 622.435 215.945 L 614.359 215.341 L 608.862 214.006 Q 613.625 150.103 615.196 143.287 C 616.768 136.47 621.575 127.983 621.741 125.259 Q 621.908 122.535 625.592 111.691 Z " fill="rgb(162,170,196)" vector-effect="non-scaling-stroke" stroke-width="0.25" stroke="rgb(0,0,0)" stroke-linejoin="miter" stroke-linecap="square" stroke-miterlimit="3"/><path d=" M 612.593 283.365 C 616.841 286.748 603.583 321.995 600.267 328.16 C 596.951 334.325 591.595 346.93 588.757 347.976 C 585.919 349.022 577.058 356.077 572.227 354.633 Q 567.397 353.19 516.251 334.239 Q 529.114 296.83 537.789 298.791 Q 546.464 300.752 562.018 307.44 Q 579.746 278.511 581.877 275.254 C 584.008 271.997 595.252 269.553 612.593 283.365 Z " fill="rgb(245,223,202)" vector-effect="non-scaling-stroke" stroke-width="1" stroke="rgb(0,0,0)" stroke-linejoin="miter" stroke-linecap="square" stroke-miterlimit="3"/><path d=" M 578.108 255.151 C 577.381 256.33 598.178 246.049 606.84 249.755 C 615.501 253.461 628.696 262.1 629.422 268.468 C 630.149 274.836 632.238 264.602 631.682 262.803 C 631.125 261.004 625.649 250.877 622.443 249.646 C 619.237 248.415 597.753 238.465 593.409 239.482 C 589.065 240.499 578.836 253.971 578.108 255.151 Z " fill="rgb(255,255,255)"/><path d=" M 611.379 299.227 C 608.811 297.987 622.29 298.33 619.97 291.985 C 617.649 285.639 604.427 274.981 592.639 275.783 C 580.851 276.584 582.532 272.269 573.899 281.145 Q 572.327 282.762 575.232 285.273 Q 569.776 282.797 570.024 277.692 C 570.272 272.586 575.001 268.693 576.848 263.884 Q 578.694 259.075 578.646 255.568 Q 592.528 244.852 610.794 251.294 C 629.06 257.737 630.482 268.241 629.579 272.08 C 628.675 275.919 626.014 290.944 624.779 293.831 C 623.544 296.718 613.948 300.466 611.379 299.227 Z " fill="rgb(228,202,195)" vector-effect="non-scaling-stroke" stroke-width="1" stroke="rgb(0,0,0)" stroke-linejoin="miter" stroke-linecap="square" stroke-miterlimit="3"/><path d=" M 578.07 254.341 Q 586.709 247.763 588.613 247.138 C 590.518 246.514 604.677 241.414 618.414 248.877 Q 632.15 256.339 629.088 265.598 L 630.395 270.28 Q 634.027 262.292 634.223 259.18 C 634.418 256.068 636.844 241.326 636.495 233.438 C 636.147 225.55 637.297 222.305 635.841 220.771 C 634.385 219.237 627.022 214.317 626.404 212.89 C 625.786 211.464 623.567 206.711 620.565 205.796 C 617.563 204.882 616.387 206.333 614.936 205.157 C 613.484 203.982 610.575 201.152 606.284 202.168 C 601.993 203.185 600.584 204.998 597.442 202.65 C 594.3 200.302 588.592 194.044 583.134 197.109 Q 577.676 200.175 577.228 202.333 Q 569.154 206.511 569.433 209.378 C 569.712 212.244 572.188 218.308 573.505 218.409 C 574.822 218.511 572.479 222.011 572.387 224.045 C 572.296 226.079 572.68 236.478 573.426 238.5 Q 574.171 240.523 578.07 254.341 Z " fill="rgb(227,195,189)" vector-effect="non-scaling-stroke" stroke-width="1" stroke="rgb(0,0,0)" stroke-linejoin="miter" stroke-linecap="square" stroke-miterlimit="3"/><path d=" M 551.173 302.803 C 551.356 303.993 548.562 302.736 547.048 301.933 C 545.534 301.129 541.228 298.118 534.941 303.659 C 525.918 311.613 521.667 321.464 520.917 324.678 C 520.167 327.892 511.989 345.162 512.348 349.83 C 512.707 354.498 511.872 353.288 514.116 350.24 Q 516.359 347.192 521.128 336.794 L 528.844 339.202 L 516.233 358.428 Q 513.723 361.032 510.722 360.276 C 507.721 359.519 483.002 356.706 478.666 354.077 C 474.33 351.448 433.817 321.03 445.738 287.478 C 457.659 253.927 482.446 260.488 485.314 263.801 C 488.183 267.114 491.231 272.284 494.863 272.808 C 498.495 273.332 500.163 280.029 502.719 280.161 C 505.275 280.294 511.443 285.691 514.185 284.967 C 516.927 284.243 516.415 288.221 523.122 291.839 C 529.828 295.457 533.555 293.656 536.749 293.768 C 539.943 293.881 549.718 293.365 551.173 302.803 Z " fill="rgb(164,177,167)" vector-effect="non-scaling-stroke" stroke-width="1" stroke="rgb(0,0,0)" stroke-linejoin="miter" stroke-linecap="square" stroke-miterlimit="3"/><path d=" M 580.559 275.267 Q 572.346 281.273 572.971 283.178 Q 573.595 285.083 575.991 285.408 Q 582.472 275.241 580.559 275.267 Z " fill="rgb(0,0,0)"/><path d=" M 613.827 287.317 L 611.204 298.36 Q 619.957 297.362 620.581 294.36 C 620.668 293.937 616.172 283.922 613.538 284.454 Q 612.671 284.629 613.827 287.317 Z " fill="rgb(0,0,0)"/></g><g><path d=" M 501.047 219.094 C 499.027 221.645 502.124 220.456 501.539 221.625 C 500.954 222.794 499.372 222.02 499.904 223.455 C 500.435 224.89 509.709 226.205 510.718 225.408 C 512.369 224.105 513.043 221.741 512.14 220.784 C 511.237 219.828 503.066 216.543 501.047 219.094 Z " fill="rgb(117,21,15)"/><path d=" M 501.188 216.984 Q 508.951 218.233 509.908 218.951 C 510.865 219.668 511.821 221.422 512.618 221.462 C 513.415 221.502 513.894 221.86 514.133 221.342 C 514.372 220.824 515.871 214.618 515.672 212.625 C 515.473 210.632 512.586 208.997 511.031 209.953 C 509.477 210.91 504.061 214.795 503.344 214.875 C 502.626 214.955 501.418 214.367 501.339 215.164 Q 501.259 215.961 501.188 216.984 Z " fill="rgb(117,21,15)"/></g><g><path d=" M 518.477 177.26 Q 515.687 180.847 515.767 182.84 C 515.847 184.833 519.753 192.246 520.949 193.442 C 522.144 194.638 523.992 195.478 524.391 196.594 C 524.789 197.71 521.427 199.819 519.035 200.457 C 516.644 201.095 510.267 203.008 509.071 202.529" fill="rgb(245,223,202)" vector-effect="non-scaling-stroke" stroke-width="1" stroke="rgb(0,0,0)" stroke-linejoin="miter" stroke-linecap="square" stroke-miterlimit="3"/><path d=" M 511.223 196.71 C 510.586 194.877 505.085 197.268 505.165 198.225" fill="none" vector-effect="non-scaling-stroke" stroke-width="1" stroke="rgb(0,0,0)" stroke-linejoin="miter" stroke-linecap="square" stroke-miterlimit="3"/></g><g><path d=" M 499.525 170.982 C 500.003 172.895 497.014 177.2 496.237 178.994 C 495.46 180.787 496.12 182.311 494.625 181.594 C 493.13 180.876 482.378 174.02 482.438 172.406 C 482.497 170.792 487.09 168.113 489.122 168.053 C 491.155 167.993 499.047 169.069 499.525 170.982 Z " fill="rgb(255,255,255)" vector-effect="non-scaling-stroke" stroke-width="0.1" stroke="rgb(0,0,0)" stroke-linejoin="miter" stroke-linecap="square" stroke-miterlimit="3"/><ellipse vector-effect="non-scaling-stroke" cx="494.026872580508" cy="174.3668880433212" rx="3.099451752108223" ry="3.377918120461686" fill="rgb(131,163,202)"/><path d=" M 514.385 162.752 Q 512.685 167.11 511.25 167.428 C 509.815 167.747 500.568 164.984 498.868 163.815 C 497.167 162.645 492.915 161.157 489.461 160.892 C 486.007 160.626 479.581 160.941 479.156 160.781 C 478.731 160.622 490.79 156.587 493.075 155.737 C 495.36 154.887 514.864 157.225 515.342 158.766 Q 515.82 160.307 514.385 162.752 Z " fill="rgb(15,15,15)"/><path d=" M 499.525 171.221 Q 500.422 172.895 500.721 172.806 C 501.02 172.716 503.561 171.849 503.71 170.803 C 503.86 169.757 502.933 168.292 502.993 167.784 C 503.053 167.276 501.797 167.814 501.468 167.575 C 501.139 167.335 496.626 166.289 495.908 166.767 C 495.191 167.246 489.332 166.618 486.731 167.425 C 484.13 168.232 480.722 170.773 480.513 171.132 Q 480.304 171.491 482.516 171.73 Q 487.568 168.352 488.405 168.71 Q 489.242 169.069 499.525 171.221 Z " fill="rgb(15,15,15)"/></g><g><path d=" M 519.188 179.531 Q 522.011 180.262 522.038 180.98 C 522.065 181.697 522.383 183.185 521.108 184.461 C 519.833 185.736 518.664 186.52 518.531 186.281 C 518.398 186.042 517.348 183.058 517.375 182.5 C 517.402 181.942 518.709 179.239 519.188 179.531 Z " fill="rgb(255,255,255)" vector-effect="non-scaling-stroke" stroke-width="0.05" stroke="rgb(0,0,0)" stroke-linejoin="miter" stroke-linecap="square" stroke-miterlimit="3"/><path d=" M 521.309 183.148 C 521.529 182.186 521.249 181.301 520.684 181.171 C 520.118 181.042 519.481 181.718 519.261 182.679 C 519.041 183.641 519.321 184.527 519.886 184.656 C 520.452 184.785 521.089 184.11 521.309 183.148 Z " fill="rgb(131,163,202)"/><path d=" M 528.787 169.554 C 527.884 169.607 525.758 170.404 524.748 171.202 C 523.739 171.999 522.569 173.699 523.26 173.699 C 523.951 173.699 528.84 174.443 528.628 175.347 C 528.415 176.25 527.246 177.791 527.246 178.642 C 527.246 179.492 530.328 175.878 530.807 174.337 C 531.285 172.796 532.401 170.83 531.71 170.511 C 531.019 170.192 529.691 169.501 528.787 169.554 Z " fill="rgb(15,15,15)"/><path d=" M 519.089 179.332 Q 521.639 180.209 521.852 180.82 C 522.065 181.432 521.852 183.85 521.48 184.195 C 521.108 184.54 523.181 184.7 523.685 184.54 C 524.19 184.381 526.103 184.62 526.741 184.089 C 527.379 183.557 530.156 183.292 530.156 183 C 530.156 182.708 527.937 180.688 527.512 180.528 C 527.087 180.369 527.219 180.262 527.724 179.731 C 528.229 179.2 527.166 179.704 527.273 179.253 C 527.379 178.801 519.779 178.349 519.567 178.642 Q 519.354 178.934 519.089 179.332 Z " fill="rgb(15,15,15)"/></g><g><path d=" M 494.794 722.844 Q 496.803 828.523 500.344 836.908 C 503.885 845.294 470.062 842.885 469.1 837.588 C 468.138 832.29 448.722 769.926 444.085 731.955 Q 442.043 715.231 440.622 684.252 L 493.441 674.937 L 494.794 722.844 Z " fill="rgb(245,223,202)" vector-effect="non-scaling-stroke" stroke-width="1" stroke="rgb(0,0,0)" stroke-linejoin="miter" stroke-linecap="square" stroke-miterlimit="3"/><path d=" M 384.321 476.453 Q 367.319 516.425 381.229 550.224 C 395.138 584.024 412.896 616.478 414.57 653.791 C 416.245 691.105 418.454 705.281 420.146 713.939 C 421.838 722.597 508.676 721.356 506.797 705.992 C 505.955 699.112 499.259 612.609 498.625 561.879 C 498.424 545.76 496.189 529.498 498.696 516.002 Q 501.604 500.346 507.553 483.694 Q 493.231 488.684 432.101 479.895 Q 376.728 471.934 384.321 476.453 Z " fill="rgb(79,75,90)" vector-effect="non-scaling-stroke" stroke-width="1" stroke="rgb(0,0,0)" stroke-linejoin="miter" stroke-linecap="square" stroke-miterlimit="3"/><path d=" M 498.725 798.985 C 519.714 807.733 527.033 842.759 554.214 857.558 C 567.963 865.044 586.127 872.592 581.716 876.097 C 577.305 879.603 552.315 880.914 536.845 878.244 C 521.375 875.574 477.666 850.731 476.761 847.112 C 475.857 843.493 454.416 849.565 454.507 844.544 C 454.598 839.523 455.873 806.83 459.899 804.478 C 463.925 802.126 472.797 813.216 488.019 811.431 C 503.241 809.645 493.636 801.927 498.725 798.985 Z " fill="rgb(255,255,255)" vector-effect="non-scaling-stroke" stroke-width="1" stroke="rgb(0,0,0)" stroke-linejoin="miter" stroke-linecap="square" stroke-miterlimit="3"/><path d=" M 455.103 842.873 C 455.633 842.865 476.492 846.937 477.072 846.371 C 477.653 845.805 473.686 871.602 473.174 872.78 C 472.662 873.958 465.888 876.02 460.797 874.296 C 455.706 872.573 455.555 871.784 455.611 870.371 C 455.668 868.957 454.573 842.882 455.103 842.873 Z " fill="rgb(255,255,255)" vector-effect="non-scaling-stroke" stroke-width="1" stroke="rgb(0,0,0)" stroke-linejoin="miter" stroke-linecap="square" stroke-miterlimit="3"/></g><path d=" M 431.748 199.952 Q 430.366 205.904 430.897 208.136 C 431.429 210.368 432.483 217.052 432.563 217.969 C 432.642 218.885 431.658 221.66 431.578 221.063 C 431.498 220.465 429.675 211.418 429.675 209.943 C 429.675 208.468 429.635 204.283 429.356 205.16 C 429.077 206.037 428.28 212.055 428.36 212.892 C 428.439 213.729 429.755 219.668 430.034 220.545 C 430.313 221.422 430.193 222.418 429.795 221.94 C 429.396 221.462 428.997 219.947 428.479 220.186 C 427.961 220.425 427.403 221.023 427.403 221.82 C 427.403 222.618 427.084 224.212 426.726 224.092 C 426.367 223.973 426.447 220.585 426.207 221.223 C 425.968 221.86 425.151 225.986 423.118 228.198 C 421.086 230.41 412.357 236.149 411.161 235.551 C 409.965 234.954 397.769 239.318 394.541 236.448 C 391.312 233.578 385.094 227.54 384.018 224.132 C 382.942 220.724 382.484 208.588 382.324 205.559 C 382.165 202.529 383.201 194.717 386.151 192.804 C 389.1 190.891 390.376 192.326 389.738 190.891 C 389.1 189.456 381.846 176.941 381.527 171.361 C 381.208 165.781 383.759 145.055 386.151 141.229 C 388.542 137.402 391.571 119.227 392.847 115.72 C 394.122 112.213 410.543 93.081 415.964 90.052 C 421.385 87.023 458.372 76.979 466.025 81.602 C 473.678 86.225 474.475 88.139 475.75 89.574 C 477.026 91.008 485.794 87.023 490.099 89.414 C 494.403 91.806 495.679 94.994 498.708 94.994 C 501.737 94.994 507.477 98.661 509.23 99.458 C 510.984 100.255 516.724 100.415 517.202 103.444 C 517.68 106.473 520.231 105.198 522.941 105.357 C 525.652 105.516 546.696 123.054 547.972 124.967 C 549.247 126.88 558.175 150.157 557.378 155.577 C 556.581 160.998 554.528 171.76 553.931 172.716 C 553.333 173.673 549.215 179.615 548.437 180.094 C 547.66 180.572 552.436 174.51 553.273 171.76 C 554.11 169.009 556.202 160.221 556.202 159.324 Q 555.963 158.607 555.485 160.101 C 555.007 161.596 552.974 166.618 551.42 169.488 C 549.865 172.357 547.892 176.841 547.414 177.918 Q 546.936 178.994 543.187 182.906 Q 544.963 180.488 547.115 175.108 C 549.267 169.727 551.121 165.841 551.24 164.466 C 551.36 163.091 551.599 158.009 551.3 158.846 C 551.001 159.683 547.952 168.292 546.816 169.846 C 545.68 171.401 538.141 178.212 537.125 178.75 Q 536.109 179.288 534.5 179.125 Q 540.478 174.663 541.375 171.375 C 542.272 168.087 543.049 168.113 542.332 168.77 C 541.615 169.428 535.098 173.792 533.663 173.613 Q 532.228 173.434 531.331 171.939 Q 538.326 170.444 538.566 168.531 C 538.805 166.618 539.283 164.585 538.326 165.422 C 537.37 166.259 532.049 170.803 532.049 170.265 C 532.049 169.727 535.815 150.237 534.919 149.28 C 534.022 148.323 534.082 154.003 530.315 158.069 C 526.549 162.134 517.881 168.126 515.25 168.844 Q 512.619 169.561 505.406 169.734 Q 516.983 165.243 515.907 164.346 C 514.83 163.449 493.606 159.204 492.65 159.085 C 491.693 158.965 497.014 157.889 496.775 157.471 C 496.536 157.052 495.161 155.856 493.786 156.275 C 492.411 156.693 497.486 150.795 499.027 147.553 Q 500.568 144.311 502.588 140.166 Q 490.63 152.07 488.026 153.505 C 485.422 154.94 471.339 162.167 464.431 168.916 C 457.522 175.666 458.16 172.158 456.991 175.24 C 455.821 178.323 453.802 187.463 454.652 191.024 C 455.503 194.585 455.95 194.458 456.375 197.063 C 456.8 199.667 461.242 210.634 462.464 212.76 C 463.687 214.885 465.627 220.574 465.68 222.328 C 465.733 224.082 467.034 228.613 464.906 229.922 Q 462.469 231.422 463.406 231.281 Q 463.537 227.866 463.75 226.75 C 463.963 225.634 463.216 217.698 461.25 215.625 C 459.284 213.552 448.95 206.257 448.313 203.813 C 447.675 201.368 441.353 170.683 439.918 169.249 C 438.483 167.814 430.831 160.52 429.396 161.955 C 427.961 163.389 417.558 166.857 418.754 170.803 C 419.95 174.749 428.679 192.685 430.353 194.957 Q 432.027 197.228 431.748 199.952 Z " fill="rgb(90,43,33)" vector-effect="non-scaling-stroke" stroke-width="0.1" stroke="rgb(0,0,0)" stroke-linejoin="miter" stroke-linecap="square" stroke-miterlimit="3"/><g><path d=" M 428.588 190.492 Q 423.336 182.562 422.1 179.782 C 420.864 177.001 417.735 170.114 417.595 166.247 C 417.505 163.773 426.014 159.598 427.352 160.113 C 428.691 160.627 435.282 166.085 435.591 167.63 C 435.9 169.175 436.003 171.955 435.797 173.603 C 435.591 175.251 433.428 175.354 433.428 176.795 C 433.428 178.237 432.501 181.018 433.634 181.533 C 434.767 182.047 436.518 195.538 433.119 193.993 Q 429.721 192.449 428.588 190.492 Z " fill="rgb(245,223,202)" vector-effect="non-scaling-stroke" stroke-width="1" stroke="rgb(0,0,0)" stroke-linejoin="miter" stroke-linecap="square" stroke-miterlimit="3"/><path d=" M 434.355 175.663 Q 432.707 171.749 431.06 173.397 C 429.412 175.045 427.146 176.075 429 178.752 C 430.854 181.43 430.957 182.356 432.604 181.945 C 434.252 181.533 432.604 179.576 433.016 177.928 Q 433.428 176.281 434.355 175.663 Z " fill="rgb(202,174,148)" vector-effect="non-scaling-stroke" stroke-width="0.5" stroke="rgb(0,0,0)" stroke-linejoin="miter" stroke-linecap="square" stroke-miterlimit="3"/><path d=" M 431.782 182.591 C 431.782 183.402 434.149 192.178 433.106 191.483 C 432.064 190.788 418.625 172.599 419.32 168.544 C 420.015 164.489 425.808 161.361 427.43 162.52 C 429.051 163.678 432.643 166.69 432.99 167.965 C 433.338 169.239 433.24 173.504 434.282 174.778 C 435.325 176.053 435.899 173.989 435.782 171.778 C 435.657 169.403 435.959 168.65 435.032 167.028 C 434.105 165.406 428.472 159.508 426.966 159.855 C 425.46 160.203 417.664 164.27 417.806 166.036 C 417.946 167.794 420.829 178.763 428.704 190.788 C 430.23 193.118 432.99 194.959 434.033 193.8 C 435.076 192.642 434.826 189.89 434.595 187.341 C 434.363 184.792 433.852 182.028 433.157 182.028 C 432.462 182.028 431.782 181.78 431.782 182.591 Z " fill="rgb(232,211,192)"/></g></g></g></g></svg>