<?xml version="1.0" encoding="UTF-8" standalone="no"?><!-- Generator: Gravit.io --><svg xmlns="http://www.w3.org/2000/svg" xmlns:xlink="http://www.w3.org/1999/xlink" style="isolation:isolate" viewBox="0 0 1000 1000" width="1000pt" height="1000pt"><defs><clipPath id="_clipPath_24L5iyJMOOTduYDPXcqir0N7Ap969Nws"><rect width="1000" height="1000"/></clipPath></defs><g clip-path="url(#_clipPath_24L5iyJMOOTduYDPXcqir0N7Ap969Nws)"><g style="isolation:isolate"><g><path d=" M 449.923 288.914 C 453.749 301.881 500.94 325.689 508.38 332.066 Q 515.82 338.443 550.895 286.576 Q 531.338 275.522 527.299 268.082 Q 523.26 260.642 502.853 284.875 Q 487.973 272.758 481.596 274.884" fill="rgb(234,212,192)" vector-effect="non-scaling-stroke" stroke-width="1" stroke="rgb(0,0,0)" stroke-linejoin="miter" stroke-linecap="square" stroke-miterlimit="3"/><g><path d=" M 546.437 251.094 Q 554.302 267.462 562.699 267.993 Q 571.095 268.525 569.288 267.356 L 546.437 251.094 Z " fill="rgb(255,255,255)"/><path d=" M 543.633 246.059 Q 554.036 266.505 563.363 268.179 C 572.689 269.853 572.092 267.223 571.494 269.016 C 570.896 270.81 567.428 279.06 565.993 280.137 C 564.559 281.213 557.384 290.898 555.83 291.018 C 554.275 291.137 535.742 288.746 529.643 277.147 C 523.545 265.549 522.11 267.342 524.024 265.19 Q 525.937 263.038 543.633 246.059 Z " fill="rgb(224,192,187)" vector-effect="non-scaling-stroke" stroke-width="1" stroke="rgb(0,0,0)" stroke-linejoin="miter" stroke-linecap="square" stroke-miterlimit="3"/><path d=" M 545.307 246.417 C 544.71 240.08 543.275 228.601 555.112 217.242 C 566.95 205.882 562.167 208.154 564.678 206.719 C 567.189 205.284 575.679 202.175 578.429 203.371 C 581.179 204.567 582.016 200.86 586.082 203.849 C 590.147 206.839 594.452 208.035 596.006 212.339 C 597.561 216.644 604.137 224.057 603.42 225.97 C 602.702 227.884 604.615 233.503 602.104 233.623 C 599.593 233.743 602.689 236.732 604.004 237.928 C 605.319 239.123 604.722 244.982 592.047 247.374 C 579.372 249.765 575.32 260.048 574.483 262.201 C 573.646 264.353 573.526 268.777 571.255 268.179 C 568.983 267.582 545.905 252.755 545.307 246.417 Z " fill="rgb(227,195,189)" vector-effect="non-scaling-stroke" stroke-width="1" stroke="rgb(0,0,0)" stroke-linejoin="miter" stroke-linecap="square" stroke-miterlimit="3"/><path d=" M 657.094 157.602 Q 645.017 166.211 643.224 168.841 Q 641.43 171.472 590.253 214.518 L 586.068 209.137 L 583.796 204.952 Q 626.364 171.831 631.506 168.961 C 636.647 166.091 644.659 164.298 646.452 162.863 Q 648.246 161.428 657.094 157.602 Z " fill="rgb(162,170,196)" vector-effect="non-scaling-stroke" stroke-width="0.25" stroke="rgb(0,0,0)" stroke-linejoin="miter" stroke-linecap="square" stroke-miterlimit="3"/><path d=" M 667.71 171.804 Q 655.633 180.413 653.839 183.044 Q 652.046 185.674 600.869 228.721 L 596.684 223.34 L 594.412 219.155 Q 636.98 186.033 642.121 183.163 C 647.263 180.294 655.274 178.5 657.068 177.065 Q 658.861 175.63 667.71 171.804 Z " fill="rgb(162,170,196)" vector-effect="non-scaling-stroke" stroke-width="0.25" stroke="rgb(0,0,0)" stroke-linejoin="miter" stroke-linecap="square" stroke-miterlimit="3"/></g><path d=" M 536.188 293.278 C 543.501 293.56 545.001 293.091 545.188 296.653 C 545.376 300.216 509.563 354.591 507.032 353.278 C 504.501 351.966 497.188 343.997 499.532 339.028 C 501.876 334.06 528.876 292.997 536.188 293.278 Z " fill="rgb(115,142,121)"/><path d=" M 415.767 245.208 Q 414.491 244.335 415.767 243.591 C 417.042 242.847 419.525 236.621 420.588 235.027 C 421.65 233.432 430.26 222.804 425.37 217.914 C 420.481 213.025 373.609 183.903 382.962 150.423 C 392.315 116.942 403.688 94.728 424.626 86.757 C 445.565 78.785 470.542 87.395 489.78 96.11 C 509.018 104.826 538.672 122.682 539.628 130.866 C 540.585 139.05 531.869 168.81 531.551 170.192 C 531.232 171.574 532.401 173.274 529.85 176.038 C 527.299 178.801 522.304 184.328 521.985 186.454 C 521.666 188.579 519.54 192.087 520.284 192.618 C 521.028 193.15 522.729 207.18 519.54 214.832 C 516.352 222.485 513.057 226.524 510.612 228.224 C 508.168 229.925 504.235 237.152 502.322 238.853 C 500.409 240.553 491.906 240.447 486.485 238.853 C 481.065 237.259 476.6 233.007 471.818 238.959 C 467.035 244.911 464.362 264.575 463.087 265.107 C 461.811 265.638 455.523 270.324 451.696 268.411 C 447.87 266.498 434.102 248.936 431.657 248.724 Q 429.213 248.511 415.767 245.208 Z " fill="rgb(245,223,202)" vector-effect="non-scaling-stroke" stroke-width="1" stroke="rgb(0,0,0)" stroke-linejoin="miter" stroke-linecap="square" stroke-miterlimit="3"/><g><path d=" M 436.466 693.613 Q 391.947 777.956 391.086 786.124 C 390.224 794.292 364.561 777.633 366.112 773.03 C 367.664 768.426 379.537 710.699 392.441 678.686 Q 398.124 664.586 410.517 639.498 L 456.298 655.185 L 436.466 693.613 Z " fill="rgb(234,212,192)" vector-effect="non-scaling-stroke" stroke-width="1" stroke="rgb(0,0,0)" stroke-linejoin="miter" stroke-linecap="square" stroke-miterlimit="3"/><path d=" M 420.719 457.113 Q 373.839 495.194 378.895 529.605 C 383.952 564.016 401.087 598.524 394.038 633.361 C 386.988 668.199 385.762 681.796 385.33 690.179 C 384.898 698.563 465.361 717.421 467.165 702.803 Q 468.969 688.186 488.113 475.377 Q 504.699 499.038 450.282 476.841 Q 400.991 456.736 420.719 457.113 Z " fill="rgb(79,75,90)" vector-effect="non-scaling-stroke" stroke-width="1" stroke="rgb(0,0,0)" stroke-linejoin="miter" stroke-linecap="square" stroke-miterlimit="3"/><path d=" M 395.245 776.154 C 407.8 790.34 400.559 819.256 415.557 840.227 C 423.143 850.835 434.016 863.094 429.436 864.119 C 424.856 865.143 405.646 857.046 395.019 849.422 C 384.393 841.799 360.655 807.292 361.292 804.251 C 361.929 801.209 343.65 797.97 345.543 794.239 C 347.435 790.508 360.272 766.463 364.144 766.163 C 368.017 765.863 370.638 777.401 382.697 781.594 C 394.757 785.787 390.361 776.511 395.245 776.154 Z " fill="rgb(255,255,255)" vector-effect="non-scaling-stroke" stroke-width="1" stroke="rgb(0,0,0)" stroke-linejoin="miter" stroke-linecap="square" stroke-miterlimit="3"/><path d=" M 346.597 793.203 C 346.997 793.389 361.154 804.021 361.794 803.808 C 362.435 803.595 350.087 821.492 349.275 822.189 C 348.463 822.886 342.636 821.969 339.446 818.827 C 336.255 815.686 336.429 815.039 336.985 814 C 337.541 812.961 346.196 793.017 346.597 793.203 Z " fill="rgb(255,255,255)" vector-effect="non-scaling-stroke" stroke-width="1" stroke="rgb(0,0,0)" stroke-linejoin="miter" stroke-linecap="square" stroke-miterlimit="3"/></g><g><path d=" M 503.841 469.495 C 505.097 468.897 506.354 482.169 503.841 484.441 C 501.327 486.713 486.245 488.267 482.018 488.387 C 477.791 488.507 401.936 480.256 399.308 478.702 Q 396.681 477.147 384.8 477.254 Q 387.427 466.984 387.77 464.233 C 388.113 461.483 387.541 456.461 390.397 457.418 C 393.253 458.374 458.37 471.288 471.508 471.169 C 484.645 471.049 502.584 470.092 503.841 469.495 Z " fill="rgb(61,16,13)" vector-effect="non-scaling-stroke" stroke-width="0.5" stroke="rgb(0,0,0)" stroke-linejoin="miter" stroke-linecap="square" stroke-miterlimit="3"/><path d=" M 484.891 264.043 Q 500.196 281.049 501.259 287.213 C 502.322 293.378 506.786 336.318 507.211 342.695 C 507.636 349.072 511.462 353.536 504.873 369.054 C 498.283 384.572 499.133 386.272 499.984 389.886 C 500.834 393.5 500.196 404.979 499.771 409.655 C 499.346 414.332 495.519 419.646 497.22 421.985 C 498.921 424.323 504.235 430.913 506.148 437.077 C 508.061 443.242 512.95 447.706 515.714 451.957 Q 518.477 456.209 520.391 461.098 Q 507.985 475.458 500.97 473.758 C 493.955 472.057 490.468 474.298 484.303 476.424 C 478.138 478.55 441.526 470.026 438.762 467.263 C 435.999 464.499 420.481 463.436 409.64 463.861 C 398.799 464.287 380.305 454.508 379.242 451.32 C 378.179 448.131 385.832 443.88 386.257 440.904 C 386.682 437.928 379.455 428.787 384.556 420.284 C 389.658 411.781 390.508 413.269 391.146 407.742 C 391.784 402.215 400.712 381.808 401.562 373.943 C 402.413 366.078 389.446 309.108 389.233 302.093 C 389.02 295.078 388.595 277.01 389.446 272.333 C 390.296 267.657 390.508 263.193 394.547 257.666 C 398.586 252.139 402.838 253.202 403.901 249.375 C 404.963 245.549 402.625 238.747 404.963 236.833 C 407.302 234.92 410.278 239.172 417.718 239.809 C 425.158 240.447 436.212 241.085 444.289 244.911 C 452.367 248.738 455.556 255.752 457.681 254.264 C 459.807 252.776 471.499 253.202 475.75 255.752 Q 480.002 258.303 484.891 264.043 Z " fill="rgb(164,177,167)" vector-effect="non-scaling-stroke" stroke-width="1" stroke="rgb(0,0,0)" stroke-linejoin="miter" stroke-linecap="square" stroke-miterlimit="3"/></g><g><path d=" M 611.765 110.246 Q 608.573 127.575 609.216 131.303 Q 609.86 135.03 601.758 214.066 L 593.739 212.933 L 588.341 211.239 Q 597.298 147.788 599.314 141.089 C 601.331 134.391 606.686 126.239 607.031 123.532 Q 607.376 120.825 611.765 110.246 Z " fill="rgb(162,170,196)" vector-effect="non-scaling-stroke" stroke-width="0.25" stroke="rgb(0,0,0)" stroke-linejoin="miter" stroke-linecap="square" stroke-miterlimit="3"/><path d=" M 632.563 113.594 Q 629.371 130.923 630.015 134.651 Q 630.658 138.378 622.556 217.415 L 614.537 216.281 L 609.139 214.587 Q 618.096 151.136 620.112 144.438 C 622.129 137.739 627.484 129.587 627.829 126.88 Q 628.174 124.173 632.563 113.594 Z " fill="rgb(162,170,196)" vector-effect="non-scaling-stroke" stroke-width="0.25" stroke="rgb(0,0,0)" stroke-linejoin="miter" stroke-linecap="square" stroke-miterlimit="3"/><path d=" M 608.3 284.041 C 612.316 287.696 596.993 325.128 593.279 331.062 C 589.565 336.995 581.147 349.786 578.246 350.643 C 575.345 351.5 566.917 355.357 562.192 353.599 Q 557.467 351.841 508.82 328.468 Q 524.116 291.986 532.643 294.513 Q 541.171 297.041 552.39 304.766 Q 572.818 276.756 575.158 273.646 C 577.499 270.536 591.905 269.119 608.3 284.041 Z " fill="rgb(245,223,202)" vector-effect="non-scaling-stroke" stroke-width="1" stroke="rgb(0,0,0)" stroke-linejoin="miter" stroke-linecap="square" stroke-miterlimit="3"/><path d=" M 573.991 252.891 C 573.207 254.034 594.477 244.771 602.95 248.892 C 611.422 253.012 624.183 262.279 624.601 268.675 C 625.018 275.07 627.601 264.95 627.132 263.126 C 626.663 261.301 621.683 250.922 618.54 249.537 C 615.398 248.153 594.419 237.176 590.031 237.982 C 585.643 238.787 574.775 251.749 573.991 252.891 Z " fill="rgb(255,255,255)"/><path d=" M 606.883 299.239 C 604.378 297.877 616.033 298.157 614.022 291.707 C 612.012 285.257 599.32 273.971 587.507 274.202 C 575.694 274.433 577.582 270.204 568.53 278.652 Q 566.881 280.191 569.661 282.839 Q 564.332 280.103 564.826 275.015 C 565.321 269.927 570.233 266.268 572.31 261.554 Q 574.387 256.84 574.507 253.335 Q 588.892 243.302 606.825 250.621 C 624.758 257.939 625.67 268.499 624.583 272.29 C 623.495 276.081 620.11 290.96 618.737 293.784 C 617.363 296.608 609.388 300.602 606.883 299.239 Z " fill="rgb(228,202,195)" vector-effect="non-scaling-stroke" stroke-width="1" stroke="rgb(0,0,0)" stroke-linejoin="miter" stroke-linecap="square" stroke-miterlimit="3"/><path d=" M 573.992 252.081 Q 582.938 245.928 584.871 245.397 C 586.804 244.865 601.193 240.456 614.553 248.574 Q 627.912 256.692 624.406 265.792 L 625.485 270.531 Q 629.499 262.729 629.845 259.63 C 630.191 256.531 633.327 241.923 633.36 234.028 C 633.393 226.132 634.699 222.947 633.319 221.344 C 631.938 219.741 624.822 214.471 624.274 213.016 C 623.726 211.561 621.739 206.707 618.785 205.648 C 615.83 204.589 614.586 205.982 613.193 204.738 C 611.8 203.493 609.031 200.526 604.696 201.334 C 600.361 202.141 598.865 203.885 595.841 201.387 C 592.816 198.89 587.418 192.363 581.818 195.161 Q 576.218 197.959 575.665 200.093 Q 567.399 203.876 567.539 206.753 C 567.679 209.629 569.859 215.806 571.17 215.971 C 572.48 216.135 569.971 219.519 569.781 221.546 C 569.591 223.573 569.472 233.978 570.119 236.034 Q 570.766 238.091 573.992 252.081 Z " fill="rgb(227,195,189)" vector-effect="non-scaling-stroke" stroke-width="1" stroke="rgb(0,0,0)" stroke-linejoin="miter" stroke-linecap="square" stroke-miterlimit="3"/><path d=" M 546.033 299.721 C 546.138 300.921 543.133 299.158 541.675 298.257 C 540.217 297.356 536.39 292.113 529.753 297.228 C 520.225 304.571 515.064 316.077 514.105 319.234 C 513.145 322.392 503.849 339.087 503.9 343.768 C 503.951 348.449 503.197 347.187 505.637 344.293 Q 508.076 341.4 513.518 331.338 L 522.284 335.58 L 507.211 352.603 Q 504.535 355.037 501.59 354.084 C 498.645 353.132 474.165 348.698 470.011 345.79 C 465.857 342.882 427.434 309.865 441.536 277.17 C 455.638 244.475 480.436 253.2 483.08 256.694 C 485.725 260.189 488.369 263.683 491.959 264.445 C 495.549 265.207 496.333 273.316 498.875 273.617 C 501.417 273.917 507.013 278.151 509.797 277.609 C 512.581 277.067 511.863 279.382 518.317 283.433 C 524.771 287.485 528.756 289.111 531.936 289.433 C 535.115 289.756 545.202 290.208 546.033 299.721 Z " fill="rgb(164,177,167)" vector-effect="non-scaling-stroke" stroke-width="1" stroke="rgb(0,0,0)" stroke-linejoin="miter" stroke-linecap="square" stroke-miterlimit="3"/><path d=" M 573.203 274.972 Q 566.972 278.705 567.504 280.638 Q 568.036 282.57 570.413 283.011 Q 575.115 275.038 573.203 274.972 Z " fill="rgb(0,0,0)"/><path d=" M 609.041 286.975 L 607.003 298.493 Q 613.75 297.077 614.518 294.109 C 614.626 293.69 611.647 284.282 609.104 285.151 Q 606.562 286.021 609.041 286.975 Z " fill="rgb(0,0,0)"/></g><g><path d=" M 501.206 217.755 C 499.186 220.306 502.588 220.465 502.003 221.634 C 501.418 222.804 499.372 222.02 499.904 223.455 C 500.435 224.89 509.709 226.205 510.718 225.408 C 512.369 224.105 513.043 221.741 512.14 220.784 C 511.237 219.828 503.225 215.204 501.206 217.755 Z " fill="rgb(117,21,15)"/><path d=" M 501.418 216.32 Q 508.951 218.233 509.908 218.951 C 510.865 219.668 511.821 221.422 512.618 221.462 C 513.415 221.502 513.894 221.86 514.133 221.342 C 514.372 220.824 516.166 214.726 515.966 212.733 C 515.767 210.74 513.296 208.827 511.741 209.784 C 510.187 210.74 504.089 214.407 503.371 214.487 C 502.654 214.566 501.418 214.367 501.339 215.164 Q 501.259 215.961 501.418 216.32 Z " fill="rgb(117,21,15)"/></g><g><path d=" M 518.477 177.26 Q 515.687 180.847 515.767 182.84 C 515.847 184.833 519.753 192.246 520.949 193.442 C 522.144 194.638 524.137 194.558 524.536 195.674 C 524.934 196.79 521.427 199.819 519.035 200.457 C 516.644 201.095 510.267 203.008 509.071 202.529" fill="rgb(245,223,202)" vector-effect="non-scaling-stroke" stroke-width="1" stroke="rgb(0,0,0)" stroke-linejoin="miter" stroke-linecap="square" stroke-miterlimit="3"/><path d=" M 511.223 196.71 C 510.586 194.877 505.085 197.268 505.165 198.225" fill="none" vector-effect="non-scaling-stroke" stroke-width="1" stroke="rgb(0,0,0)" stroke-linejoin="miter" stroke-linecap="square" stroke-miterlimit="3"/></g><g><path d=" M 499.525 170.982 C 500.003 172.895 497.014 177.2 496.237 178.994 C 495.46 180.787 496.177 183.298 494.682 182.581 C 493.188 181.863 482.068 174.151 482.127 172.537 C 482.187 170.923 487.09 168.113 489.122 168.053 C 491.155 167.993 499.047 169.069 499.525 170.982 Z " fill="rgb(255,255,255)" vector-effect="non-scaling-stroke" stroke-width="0.1" stroke="rgb(0,0,0)" stroke-linejoin="miter" stroke-linecap="square" stroke-miterlimit="3"/><ellipse vector-effect="non-scaling-stroke" cx="494.120622580508" cy="174.3668880433212" rx="3.099451752108223" ry="3.377918120461686" fill="rgb(131,163,202)"/><path d=" M 514.385 162.752 Q 512.685 167.11 511.25 167.428 C 509.815 167.747 500.568 164.984 498.868 163.815 C 497.167 162.645 492.915 161.157 489.461 160.892 C 486.007 160.626 479.683 160.52 479.258 160.36 C 478.833 160.201 490.79 156.587 493.075 155.737 C 495.36 154.887 514.864 157.225 515.342 158.766 Q 515.82 160.307 514.385 162.752 Z " fill="rgb(15,15,15)"/><path d=" M 499.525 171.221 Q 500.422 172.895 500.721 172.806 C 501.02 172.716 503.561 171.849 503.71 170.803 C 503.86 169.757 502.933 168.292 502.993 167.784 C 503.053 167.276 501.797 167.814 501.468 167.575 C 501.139 167.335 496.626 166.289 495.908 166.767 C 495.191 167.246 489.332 166.618 486.731 167.425 C 484.13 168.232 480.722 170.773 480.513 171.132 Q 480.304 171.491 482.516 171.73 Q 487.568 168.352 488.405 168.71 Q 489.242 169.069 499.525 171.221 Z " fill="rgb(15,15,15)"/></g><g><path d=" M 519.142 179.306 Q 522.011 180.262 522.038 180.98 C 522.065 181.697 522.383 183.185 521.108 184.461 C 519.833 185.736 518.717 186.215 518.584 185.975 C 518.451 185.736 517.282 183.265 517.308 182.707 C 517.335 182.149 518.663 179.014 519.142 179.306 Z " fill="rgb(255,255,255)" vector-effect="non-scaling-stroke" stroke-width="0.05" stroke="rgb(0,0,0)" stroke-linejoin="miter" stroke-linecap="square" stroke-miterlimit="3"/><path d=" M 521.309 183.148 C 521.529 182.186 521.249 181.301 520.684 181.171 C 520.118 181.042 519.481 181.718 519.261 182.679 C 519.041 183.641 519.321 184.527 519.886 184.656 C 520.452 184.785 521.089 184.11 521.309 183.148 Z " fill="rgb(131,163,202)"/><path d=" M 528.787 169.554 C 527.884 169.607 525.758 170.404 524.748 171.202 C 523.739 171.999 522.569 173.699 523.26 173.699 C 523.951 173.699 528.84 174.443 528.628 175.347 C 528.415 176.25 527.246 177.791 527.246 178.642 C 527.246 179.492 530.328 175.878 530.807 174.337 C 531.285 172.796 532.401 170.83 531.71 170.511 C 531.019 170.192 529.691 169.501 528.787 169.554 Z " fill="rgb(15,15,15)"/><path d=" M 519.089 179.332 Q 521.639 180.209 521.852 180.82 C 522.065 181.432 521.852 183.85 521.48 184.195 C 521.108 184.54 523.181 184.7 523.685 184.54 C 524.19 184.381 526.103 184.62 526.741 184.089 C 527.379 183.557 529.744 182.84 529.744 182.548 C 529.744 182.255 527.937 180.688 527.512 180.528 C 527.087 180.369 527.219 180.262 527.724 179.731 C 528.229 179.2 527.166 179.704 527.273 179.253 C 527.379 178.801 519.779 178.349 519.567 178.642 Q 519.354 178.934 519.089 179.332 Z " fill="rgb(15,15,15)"/></g><path d=" M 494.794 722.844 Q 496.803 828.523 500.344 836.908 C 503.885 845.294 470.062 842.885 469.1 837.588 C 468.138 832.29 448.722 769.926 444.085 731.955 Q 442.043 715.231 440.622 684.252 L 493.441 674.937 L 494.794 722.844 Z " fill="rgb(245,223,202)" vector-effect="non-scaling-stroke" stroke-width="1" stroke="rgb(0,0,0)" stroke-linejoin="miter" stroke-linecap="square" stroke-miterlimit="3"/><g><path d=" M 384.321 476.453 Q 367.319 516.425 381.229 550.224 C 395.138 584.024 412.896 616.478 414.57 653.791 C 416.245 691.105 418.454 705.281 420.146 713.939 C 421.838 722.597 508.676 721.356 506.797 705.992 C 505.955 699.112 499.259 612.609 498.625 561.879 C 498.424 545.76 496.189 529.498 498.696 516.002 Q 501.604 500.346 507.553 483.694 Q 493.231 488.684 432.101 479.895 Q 376.728 471.934 384.321 476.453 Z " fill="rgb(79,75,90)" vector-effect="non-scaling-stroke" stroke-width="1" stroke="rgb(0,0,0)" stroke-linejoin="miter" stroke-linecap="square" stroke-miterlimit="3"/><path d=" M 498.725 798.985 C 519.714 807.733 527.033 842.759 554.214 857.558 C 567.963 865.044 586.127 872.592 581.716 876.097 C 577.305 879.603 552.315 880.914 536.845 878.244 C 521.375 875.574 477.666 850.731 476.761 847.112 C 475.857 843.493 454.416 849.565 454.507 844.544 C 454.598 839.523 455.873 806.83 459.899 804.478 C 463.925 802.126 472.797 813.216 488.019 811.431 C 503.241 809.645 493.636 801.927 498.725 798.985 Z " fill="rgb(255,255,255)" vector-effect="non-scaling-stroke" stroke-width="1" stroke="rgb(0,0,0)" stroke-linejoin="miter" stroke-linecap="square" stroke-miterlimit="3"/><path d=" M 455.103 842.873 C 455.633 842.865 476.492 846.937 477.072 846.371 C 477.653 845.805 473.686 871.602 473.174 872.78 C 472.662 873.958 465.888 876.02 460.797 874.296 C 455.706 872.573 455.555 871.784 455.611 870.371 C 455.668 868.957 454.573 842.882 455.103 842.873 Z " fill="rgb(255,255,255)" vector-effect="non-scaling-stroke" stroke-width="1" stroke="rgb(0,0,0)" stroke-linejoin="miter" stroke-linecap="square" stroke-miterlimit="3"/></g><path d=" M 431.748 199.952 Q 430.366 205.904 430.897 208.136 C 431.429 210.368 432.864 218.712 432.943 219.628 C 433.023 220.545 432.186 220.904 432.106 220.306 C 432.027 219.708 429.675 211.418 429.675 209.943 C 429.675 208.468 429.635 204.283 429.356 205.16 C 429.077 206.037 428.28 212.055 428.36 212.892 C 428.439 213.729 429.755 219.668 430.034 220.545 C 430.313 221.422 430.193 222.418 429.795 221.94 C 429.396 221.462 428.997 219.947 428.479 220.186 C 427.961 220.425 427.403 221.023 427.403 221.82 C 427.403 222.618 427.084 224.212 426.726 224.092 C 426.367 223.973 426.447 220.585 426.207 221.223 C 425.968 221.86 425.151 225.986 423.118 228.198 C 421.086 230.41 412.357 236.149 411.161 235.551 C 409.965 234.954 397.769 239.318 394.541 236.448 C 391.312 233.578 385.094 227.54 384.018 224.132 C 382.942 220.724 382.484 208.588 382.324 205.559 C 382.165 202.529 383.201 194.717 386.151 192.804 C 389.1 190.891 390.376 192.326 389.738 190.891 C 389.1 189.456 381.846 176.941 381.527 171.361 C 381.208 165.781 383.759 145.055 386.151 141.229 C 388.542 137.402 391.571 119.227 392.847 115.72 C 394.122 112.213 410.543 93.081 415.964 90.052 C 421.385 87.023 458.372 76.979 466.025 81.602 C 473.678 86.225 474.475 88.139 475.75 89.574 C 477.026 91.008 485.794 87.023 490.099 89.414 C 494.403 91.806 495.679 94.994 498.708 94.994 C 501.737 94.994 507.477 98.661 509.23 99.458 C 510.984 100.255 516.724 100.415 517.202 103.444 C 517.68 106.473 520.231 105.198 522.941 105.357 C 525.652 105.516 546.696 123.054 547.972 124.967 C 549.247 126.88 558.175 150.157 557.378 155.577 C 556.581 160.998 554.528 171.76 553.931 172.716 C 553.333 173.673 548.49 179.352 547.713 179.831 C 546.936 180.309 552.436 174.51 553.273 171.76 C 554.11 169.009 556.202 160.221 556.202 159.324 Q 555.963 158.607 555.485 160.101 C 555.007 161.596 552.974 166.618 551.42 169.488 C 549.865 172.357 547.892 176.841 547.414 177.918 Q 546.936 178.994 542.691 182.461 Q 544.963 180.488 547.115 175.108 C 549.267 169.727 551.121 165.841 551.24 164.466 C 551.36 163.091 551.599 158.009 551.3 158.846 C 551.001 159.683 547.952 168.292 546.816 169.846 C 545.68 171.401 538.625 178.276 537.609 178.814 Q 536.593 179.352 534.919 179.352 Q 540.837 174.809 541.734 171.52 C 542.631 168.232 543.049 168.113 542.332 168.77 C 541.615 169.428 535.098 173.792 533.663 173.613 Q 532.228 173.434 531.331 171.939 Q 538.326 170.444 538.566 168.531 C 538.805 166.618 539.283 164.585 538.326 165.422 C 537.37 166.259 532.049 170.803 532.049 170.265 C 532.049 169.727 535.815 150.237 534.919 149.28 C 534.022 148.323 534.082 154.003 530.315 158.069 C 526.549 162.134 517.581 168.71 514.95 169.428 Q 512.319 170.145 506.042 169.667 Q 516.983 165.243 515.907 164.346 C 514.83 163.449 493.606 159.204 492.65 159.085 C 491.693 158.965 497.014 157.889 496.775 157.471 C 496.536 157.052 495.161 155.856 493.786 156.275 C 492.411 156.693 497.486 150.795 499.027 147.553 Q 500.568 144.311 502.588 140.166 Q 490.63 152.07 488.026 153.505 C 485.422 154.94 471.339 162.167 464.431 168.916 C 457.522 175.666 458.16 172.158 456.991 175.24 C 455.821 178.323 453.802 187.463 454.652 191.024 C 455.503 194.585 454.865 194 455.29 196.604 C 455.715 199.208 461.242 210.634 462.464 212.76 C 463.687 214.885 466.822 220.997 466.875 222.75 C 466.928 224.504 467.991 227.746 465.706 228.756 Q 463.421 229.765 462.89 229.021 Q 464.431 228.649 464.643 227.533 C 464.856 226.417 462.89 219.987 460.923 217.914 C 458.957 215.842 448.275 205.532 447.637 203.087 C 447 200.643 441.353 170.683 439.918 169.249 C 438.483 167.814 430.831 160.52 429.396 161.955 C 427.961 163.389 417.558 166.857 418.754 170.803 C 419.95 174.749 428.679 192.685 430.353 194.957 Q 432.027 197.228 431.748 199.952 Z " fill="rgb(90,43,33)" vector-effect="non-scaling-stroke" stroke-width="0.1" stroke="rgb(0,0,0)" stroke-linejoin="miter" stroke-linecap="square" stroke-miterlimit="3"/><g><path d=" M 428.588 190.492 Q 423.336 182.562 422.1 179.782 C 420.864 177.001 417.735 170.114 417.595 166.247 C 417.505 163.773 426.014 159.598 427.352 160.113 C 428.691 160.627 435.282 166.085 435.591 167.63 C 435.9 169.175 436.003 171.955 435.797 173.603 C 435.591 175.251 433.428 175.354 433.428 176.795 C 433.428 178.237 432.501 181.018 433.634 181.533 C 434.767 182.047 436.518 195.538 433.119 193.993 Q 429.721 192.449 428.588 190.492 Z " fill="rgb(245,223,202)" vector-effect="non-scaling-stroke" stroke-width="1" stroke="rgb(0,0,0)" stroke-linejoin="miter" stroke-linecap="square" stroke-miterlimit="3"/><path d=" M 434.355 175.663 Q 432.707 171.749 431.06 173.397 C 429.412 175.045 427.146 176.075 429 178.752 C 430.854 181.43 430.957 182.356 432.604 181.945 C 434.252 181.533 432.604 179.576 433.016 177.928 Q 433.428 176.281 434.355 175.663 Z " fill="rgb(202,174,148)" vector-effect="non-scaling-stroke" stroke-width="0.5" stroke="rgb(0,0,0)" stroke-linejoin="miter" stroke-linecap="square" stroke-miterlimit="3"/><path d=" M 431.782 182.591 C 431.782 183.402 434.149 192.178 433.106 191.483 C 432.064 190.788 418.625 172.599 419.32 168.544 C 420.015 164.489 425.808 161.361 427.43 162.52 C 429.051 163.678 432.643 166.69 432.99 167.965 C 433.338 169.239 433.24 173.504 434.282 174.778 C 435.325 176.053 435.899 173.989 435.782 171.778 C 435.657 169.403 435.959 168.65 435.032 167.028 C 434.105 165.406 428.472 159.508 426.966 159.855 C 425.46 160.203 417.664 164.27 417.806 166.036 C 417.946 167.794 420.829 178.763 428.704 190.788 C 430.23 193.118 432.99 194.959 434.033 193.8 C 435.076 192.642 434.826 189.89 434.595 187.341 C 434.363 184.792 433.852 182.028 433.157 182.028 C 432.462 182.028 431.782 181.78 431.782 182.591 Z " fill="rgb(232,211,192)"/></g></g></g></g></svg>