<?xml version="1.0" encoding="UTF-8" standalone="no"?><!-- Generator: Gravit.io --><svg xmlns="http://www.w3.org/2000/svg" xmlns:xlink="http://www.w3.org/1999/xlink" style="isolation:isolate" viewBox="0 0 1000 1000" width="1000pt" height="1000pt"><defs><clipPath id="_clipPath_IF8lyQ6S6e4INuxLGQT6TDknfcC6moAf"><rect width="1000" height="1000"/></clipPath></defs><g clip-path="url(#_clipPath_IF8lyQ6S6e4INuxLGQT6TDknfcC6moAf)"><g style="isolation:isolate"><g><g><path d=" M 450.923 293.914 C 454.749 306.881 501.94 330.689 509.38 337.066 Q 516.82 343.443 551.895 291.576 Q 532.338 280.522 528.299 273.082 Q 524.26 265.642 503.853 289.875 Q 488.973 277.758 482.596 279.884" fill="rgb(234,212,192)" vector-effect="non-scaling-stroke" stroke-width="1" stroke="rgb(0,0,0)" stroke-linejoin="miter" stroke-linecap="square" stroke-miterlimit="3"/><path d=" M 547.437 256.094 Q 555.302 272.462 563.699 272.993 Q 572.095 273.525 570.288 272.356 L 547.437 256.094 Z " fill="rgb(255,255,255)"/><path d=" M 544.633 251.059 Q 555.036 271.505 564.363 273.179 C 573.689 274.853 573.092 272.223 572.494 274.016 C 571.896 275.81 568.428 284.06 566.993 285.137 C 565.559 286.213 558.384 295.898 556.83 296.018 C 555.275 296.137 536.742 293.746 530.643 282.147 C 524.545 270.549 523.11 272.342 525.024 270.19 Q 526.937 268.038 544.633 251.059 Z " fill="rgb(224,192,187)" vector-effect="non-scaling-stroke" stroke-width="1" stroke="rgb(0,0,0)" stroke-linejoin="miter" stroke-linecap="square" stroke-miterlimit="3"/><path d=" M 546.307 251.417 C 545.71 245.08 544.275 233.601 556.112 222.242 C 567.95 210.882 563.167 213.154 565.678 211.719 C 568.189 210.284 576.679 207.175 579.429 208.371 C 582.179 209.567 583.016 205.86 587.082 208.849 C 591.147 211.839 595.452 213.035 597.006 217.339 C 598.561 221.644 605.137 229.057 604.42 230.97 C 603.702 232.884 605.615 238.503 603.104 238.623 C 600.593 238.743 603.689 241.732 605.004 242.928 C 606.319 244.123 605.722 249.982 593.047 252.374 C 580.372 254.765 576.32 265.048 575.483 267.201 C 574.646 269.353 574.526 273.777 572.255 273.179 C 569.983 272.582 546.905 257.755 546.307 251.417 Z " fill="rgb(227,195,189)" vector-effect="non-scaling-stroke" stroke-width="1" stroke="rgb(0,0,0)" stroke-linejoin="miter" stroke-linecap="square" stroke-miterlimit="3"/><path d=" M 658.094 162.602 Q 646.017 171.211 644.224 173.841 Q 642.43 176.472 591.253 219.518 L 587.068 214.137 L 584.796 209.952 Q 627.364 176.831 632.506 173.961 C 637.647 171.091 645.659 169.298 647.452 167.863 Q 649.246 166.428 658.094 162.602 Z " fill="rgb(162,170,196)" vector-effect="non-scaling-stroke" stroke-width="0.25" stroke="rgb(0,0,0)" stroke-linejoin="miter" stroke-linecap="square" stroke-miterlimit="3"/><path d=" M 668.71 176.804 Q 656.633 185.413 654.839 188.044 Q 653.046 190.674 601.869 233.721 L 597.684 228.34 L 595.412 224.155 Q 637.98 191.033 643.121 188.163 C 648.263 185.294 656.274 183.5 658.068 182.065 Q 659.861 180.63 668.71 176.804 Z " fill="rgb(162,170,196)" vector-effect="non-scaling-stroke" stroke-width="0.25" stroke="rgb(0,0,0)" stroke-linejoin="miter" stroke-linecap="square" stroke-miterlimit="3"/></g><path d=" M 536.188 293.278 C 543.501 293.56 545.001 293.091 545.188 296.653 C 545.376 300.216 509.563 354.591 507.032 353.278 C 504.501 351.966 497.188 343.997 499.532 339.028 C 501.876 334.06 528.876 292.997 536.188 293.278 Z " fill="rgb(115,142,121)"/><path d=" M 415.767 245.208 Q 414.491 244.335 415.767 243.591 C 417.042 242.847 419.525 236.621 420.588 235.027 C 421.65 233.432 430.26 222.804 425.37 217.914 C 420.481 213.025 373.609 183.903 382.962 150.423 C 392.315 116.942 403.688 94.728 424.626 86.757 C 445.565 78.785 470.542 87.395 489.78 96.11 C 509.018 104.826 538.672 122.682 539.628 130.866 C 540.585 139.05 531.869 168.81 531.551 170.192 C 531.232 171.574 532.401 173.274 529.85 176.038 C 527.299 178.801 522.304 184.328 521.985 186.454 C 521.666 188.579 519.54 192.087 520.284 192.618 C 521.028 193.15 522.729 207.18 519.54 214.832 C 516.352 222.485 513.057 226.524 510.612 228.224 C 508.168 229.925 504.235 237.152 502.322 238.853 C 500.409 240.553 491.906 240.447 486.485 238.853 C 481.065 237.259 476.45 233.381 471.667 239.333 C 466.884 245.285 464.362 264.575 463.087 265.107 C 461.811 265.638 455.523 270.324 451.696 268.411 C 447.87 266.498 434.102 248.936 431.657 248.724 Q 429.213 248.511 415.767 245.208 Z " fill="rgb(245,223,202)" vector-effect="non-scaling-stroke" stroke-width="1" stroke="rgb(0,0,0)" stroke-linejoin="miter" stroke-linecap="square" stroke-miterlimit="3"/><g><path d=" M 436.466 693.613 Q 391.947 777.956 391.086 786.124 C 390.224 794.292 364.561 777.633 366.112 773.03 C 367.664 768.426 379.537 710.699 392.441 678.686 Q 398.124 664.586 410.517 639.498 L 456.298 655.185 L 436.466 693.613 Z " fill="rgb(234,212,192)" vector-effect="non-scaling-stroke" stroke-width="1" stroke="rgb(0,0,0)" stroke-linejoin="miter" stroke-linecap="square" stroke-miterlimit="3"/><path d=" M 420.719 457.113 Q 373.839 495.194 378.895 529.605 C 383.952 564.016 401.087 598.524 394.038 633.361 C 386.988 668.199 385.762 681.796 385.33 690.179 C 384.898 698.563 465.361 717.421 467.165 702.803 Q 468.969 688.186 488.113 475.377 Q 504.699 499.038 450.282 476.841 Q 400.991 456.736 420.719 457.113 Z " fill="rgb(79,75,90)" vector-effect="non-scaling-stroke" stroke-width="1" stroke="rgb(0,0,0)" stroke-linejoin="miter" stroke-linecap="square" stroke-miterlimit="3"/><path d=" M 395.245 776.154 C 407.8 790.34 400.559 819.256 415.557 840.227 C 423.143 850.835 434.016 863.094 429.436 864.119 C 424.856 865.143 405.646 857.046 395.019 849.422 C 384.393 841.799 360.655 807.292 361.292 804.251 C 361.929 801.209 343.65 797.97 345.543 794.239 C 347.435 790.508 360.272 766.463 364.144 766.163 C 368.017 765.863 370.638 777.401 382.697 781.594 C 394.757 785.787 390.361 776.511 395.245 776.154 Z " fill="rgb(255,255,255)" vector-effect="non-scaling-stroke" stroke-width="1" stroke="rgb(0,0,0)" stroke-linejoin="miter" stroke-linecap="square" stroke-miterlimit="3"/><path d=" M 346.597 793.203 C 346.997 793.389 361.154 804.021 361.794 803.808 C 362.435 803.595 350.087 821.492 349.275 822.189 C 348.463 822.886 342.636 821.969 339.446 818.827 C 336.255 815.686 336.429 815.039 336.985 814 C 337.541 812.961 346.196 793.017 346.597 793.203 Z " fill="rgb(255,255,255)" vector-effect="non-scaling-stroke" stroke-width="1" stroke="rgb(0,0,0)" stroke-linejoin="miter" stroke-linecap="square" stroke-miterlimit="3"/></g><g><path d=" M 503.841 469.495 C 505.097 468.897 508.513 484.061 506 486.333 C 503.487 488.605 486.245 488.267 482.018 488.387 C 477.791 488.507 401.936 480.256 399.308 478.702 Q 396.681 477.147 384.8 477.254 Q 387.427 466.984 387.77 464.233 C 388.113 461.483 387.541 456.461 390.397 457.418 C 393.253 458.374 458.37 471.288 471.508 471.169 C 484.645 471.049 502.584 470.092 503.841 469.495 Z " fill="rgb(61,16,13)" vector-effect="non-scaling-stroke" stroke-width="0.5" stroke="rgb(0,0,0)" stroke-linejoin="miter" stroke-linecap="square" stroke-miterlimit="3"/><path d=" M 484.891 264.043 Q 500.196 281.049 501.259 287.213 C 502.322 293.378 506.786 336.318 507.211 342.695 C 507.636 349.072 510.923 354.149 504.333 369.667 C 497.744 385.184 499.133 386.272 499.984 389.886 C 500.834 393.5 500.196 404.979 499.771 409.655 C 499.346 414.332 495.519 419.646 497.22 421.985 C 498.921 424.323 504.235 430.913 506.148 437.077 C 508.061 443.242 512.95 447.706 515.714 451.957 Q 518.477 456.209 520.391 461.098 Q 507.985 475.458 500.97 473.758 C 493.955 472.057 490.468 474.298 484.303 476.424 C 478.138 478.55 441.526 470.026 438.762 467.263 C 435.999 464.499 420.481 463.436 409.64 463.861 C 398.799 464.287 380.305 454.508 379.242 451.32 C 378.179 448.131 385.832 443.88 386.257 440.904 C 386.682 437.928 379.455 428.787 384.556 420.284 C 389.658 411.781 390.508 413.269 391.146 407.742 C 391.784 402.215 400.712 381.808 401.562 373.943 C 402.413 366.078 389.446 309.108 389.233 302.093 C 389.02 295.078 389.4 277.177 390.25 272.5 C 391.1 267.823 393.961 263.194 398 257.667 C 402.039 252.14 402.838 253.202 403.901 249.375 C 404.963 245.549 403.995 239.246 406.333 237.333 C 408.672 235.42 411.227 240.362 418.667 241 C 426.107 241.638 435.256 242.84 443.333 246.667 C 451.411 250.493 456.208 257.155 458.333 255.667 C 460.459 254.179 471.499 253.202 475.75 255.752 Q 480.002 258.303 484.891 264.043 Z " fill="rgb(164,177,167)" vector-effect="non-scaling-stroke" stroke-width="1" stroke="rgb(0,0,0)" stroke-linejoin="miter" stroke-linecap="square" stroke-miterlimit="3"/></g><g><path d=" M 617.447 117.254 Q 613.581 134.446 614.078 138.195 Q 614.575 141.945 603.393 220.605 L 595.424 219.159 L 590.097 217.255 Q 601.524 154.203 603.801 147.588 C 606.077 140.973 611.747 133.036 612.197 130.345 Q 612.648 127.654 617.447 117.254 Z " fill="rgb(162,170,196)" vector-effect="non-scaling-stroke" stroke-width="0.25" stroke="rgb(0,0,0)" stroke-linejoin="miter" stroke-linecap="square" stroke-miterlimit="3"/><path d=" M 638.099 121.412 Q 634.232 138.603 634.73 142.353 Q 635.227 146.103 624.045 224.763 L 616.076 223.317 L 610.748 221.413 Q 622.176 158.361 624.453 151.746 C 626.729 145.131 632.399 137.194 632.849 134.503 Q 633.299 131.811 638.099 121.412 Z " fill="rgb(162,170,196)" vector-effect="non-scaling-stroke" stroke-width="0.25" stroke="rgb(0,0,0)" stroke-linejoin="miter" stroke-linecap="square" stroke-miterlimit="3"/><path d=" M 607.198 290.782 C 611.068 294.591 592.066 330.079 588.123 335.863 C 584.18 341.648 578.309 353.97 575.377 354.713 C 572.445 355.457 564.245 359.374 559.592 357.432 Q 554.939 355.491 506.059 331.29 Q 522.768 295.433 531.19 298.291 Q 539.612 301.15 554.667 310.667 Q 572.027 282.116 574.487 279.1 C 576.948 276.084 591.398 275.23 607.198 290.782 Z " fill="rgb(245,223,202)" vector-effect="non-scaling-stroke" stroke-width="1" stroke="rgb(0,0,0)" stroke-linejoin="miter" stroke-linecap="square" stroke-miterlimit="3"/><path d=" M 574.131 258.316 C 573.303 259.427 594.919 251.002 603.224 255.45 C 611.529 259.898 623.919 269.657 624.086 276.064 C 624.254 282.47 627.229 272.458 626.832 270.617 C 626.435 268.776 621.864 258.21 618.778 256.704 C 615.691 255.198 595.158 243.41 590.741 244.044 C 586.325 244.678 574.959 257.205 574.131 258.316 Z " fill="rgb(255,255,255)"/><path d=" M 605.188 305.913 C 602.738 304.454 614.374 305.189 612.617 298.665 C 610.859 292.141 598.618 280.369 586.805 280.138 C 574.992 279.907 577.043 275.755 567.668 283.844 Q 565.961 285.317 568.636 288.072 Q 563.417 285.13 564.11 280.065 C 564.803 275 569.854 271.536 572.113 266.906 Q 574.372 262.277 574.63 258.779 Q 589.395 249.316 607.029 257.329 C 624.663 265.342 625.162 275.93 623.927 279.675 C 622.692 283.421 618.729 298.156 617.246 300.924 C 615.763 303.693 607.639 307.372 605.188 305.913 Z " fill="rgb(228,202,195)" vector-effect="non-scaling-stroke" stroke-width="1" stroke="rgb(0,0,0)" stroke-linejoin="miter" stroke-linecap="square" stroke-miterlimit="3"/><path d=" M 574.164 257.506 Q 583.344 251.708 585.296 251.252 C 587.248 250.796 601.798 246.952 614.831 255.586 Q 627.863 264.219 624.004 273.175 L 624.897 277.953 Q 629.212 270.313 629.679 267.23 C 630.146 264.147 633.85 249.673 634.191 241.785 C 634.533 233.897 635.962 230.765 634.646 229.109 C 633.329 227.454 626.424 221.909 625.933 220.435 C 625.442 218.96 623.647 214.032 620.736 212.858 C 617.825 211.684 616.527 213.028 615.184 211.73 C 613.841 210.432 611.189 207.359 606.826 207.997 C 602.463 208.634 600.9 210.318 597.975 207.704 C 595.051 205.091 589.911 198.358 584.206 200.935 Q 578.501 203.512 577.866 205.624 Q 569.459 209.081 569.486 211.96 C 569.514 214.84 571.451 221.097 572.754 221.313 C 574.057 221.529 571.417 224.812 571.149 226.83 C 570.88 228.848 570.354 239.241 570.92 241.321 Q 571.487 243.401 574.164 257.506 Z " fill="rgb(227,195,189)" vector-effect="non-scaling-stroke" stroke-width="1" stroke="rgb(0,0,0)" stroke-linejoin="miter" stroke-linecap="square" stroke-miterlimit="3"/><path d=" M 544.366 304.018 C 544.424 305.221 541.49 303.342 540.069 302.385 C 538.647 301.428 534.68 297.982 527.848 302.835 C 518.041 309.8 512.782 319.152 511.7 322.27 C 510.618 325.387 500.677 341.707 500.545 346.386 C 500.413 351.066 499.709 349.775 502.26 346.979 Q 504.81 344.183 510.641 334.341 L 519.234 338.922 L 503.509 355.344 Q 500.74 357.671 497.834 356.604 C 494.929 355.538 470.64 350.152 466.603 347.083 C 462.566 344.015 425.461 309.523 440.829 277.403 C 456.197 245.284 480.161 254.405 482.667 258 C 485.173 261.595 487.167 266.44 490.724 267.341 C 494.281 268.243 495.735 275.693 498.263 276.092 C 500.791 276.492 506.36 282.505 509.163 282.072 C 511.966 281.639 510.303 284.09 516.594 288.39 C 522.884 292.69 527.517 292.741 530.681 293.188 C 533.845 293.634 543.907 294.48 544.366 304.018 Z " fill="rgb(164,177,167)" vector-effect="non-scaling-stroke" stroke-width="1" stroke="rgb(0,0,0)" stroke-linejoin="miter" stroke-linecap="square" stroke-miterlimit="3"/><path d=" M 572.482 280.349 Q 566.11 283.836 566.566 285.788 Q 567.021 287.74 569.38 288.273 Q 574.39 280.489 572.482 280.349 Z " fill="rgb(0,0,0)"/><path d=" M 607.824 293.743 L 605.337 305.172 Q 612.134 304.021 613.017 301.084 C 613.142 300.671 610.533 291.153 607.958 291.922 Q 605.384 292.692 607.824 293.743 Z " fill="rgb(0,0,0)"/></g><g><path d=" M 500.375 218.25 C 498.356 220.801 501.96 220.581 501.375 221.75 C 500.79 222.919 499.372 222.02 499.904 223.455 C 500.435 224.89 509.709 226.205 510.718 225.408 C 512.369 224.105 513.043 221.741 512.14 220.784 C 511.237 219.828 502.394 215.699 500.375 218.25 Z " fill="rgb(117,21,15)"/><path d=" M 500.75 216.75 Q 508.951 218.233 509.908 218.951 C 510.865 219.668 511.821 221.422 512.618 221.462 C 513.415 221.502 513.894 221.86 514.133 221.342 C 514.372 220.824 515.824 214.868 515.625 212.875 C 515.426 210.882 513.296 208.827 511.741 209.784 C 510.187 210.74 504.089 214.407 503.371 214.487 C 502.654 214.566 501.418 214.367 501.339 215.164 Q 501.259 215.961 500.75 216.75 Z " fill="rgb(117,21,15)"/></g><g><path d=" M 518.477 177.26 Q 515.687 180.847 515.767 182.84 C 515.847 184.833 519.753 192.246 520.949 193.442 C 522.144 194.638 524.137 194.558 524.536 195.674 C 524.934 196.79 521.427 199.819 519.035 200.457 C 516.644 201.095 510.267 203.008 509.071 202.529" fill="rgb(245,223,202)" vector-effect="non-scaling-stroke" stroke-width="1" stroke="rgb(0,0,0)" stroke-linejoin="miter" stroke-linecap="square" stroke-miterlimit="3"/><path d=" M 511.223 196.71 C 510.586 194.877 505.085 197.268 505.165 198.225" fill="none" vector-effect="non-scaling-stroke" stroke-width="1" stroke="rgb(0,0,0)" stroke-linejoin="miter" stroke-linecap="square" stroke-miterlimit="3"/></g><g><path d=" M 499.525 170.982 C 500.003 172.895 497.014 177.2 496.237 178.994 C 495.46 180.787 496.245 182.967 494.75 182.25 C 493.255 181.533 482.068 174.151 482.127 172.537 C 482.187 170.923 487.09 168.113 489.122 168.053 C 491.155 167.993 499.047 169.069 499.525 170.982 Z " fill="rgb(255,255,255)" vector-effect="non-scaling-stroke" stroke-width="0.1" stroke="rgb(0,0,0)" stroke-linejoin="miter" stroke-linecap="square" stroke-miterlimit="3"/><ellipse vector-effect="non-scaling-stroke" cx="494.120622580508" cy="174.3668880433212" rx="3.099451752108223" ry="3.377918120461686" fill="rgb(131,163,202)"/><path d=" M 514.385 162.752 Q 512.685 167.11 511.25 167.428 C 509.815 167.747 500.568 164.984 498.868 163.815 C 497.167 162.645 492.915 161.157 489.461 160.892 C 486.007 160.626 479.683 160.52 479.258 160.36 C 478.833 160.201 490.79 156.587 493.075 155.737 C 495.36 154.887 514.864 157.225 515.342 158.766 Q 515.82 160.307 514.385 162.752 Z " fill="rgb(15,15,15)"/><path d=" M 499.525 171.221 Q 500.422 172.895 500.721 172.806 C 501.02 172.716 503.561 171.849 503.71 170.803 C 503.86 169.757 502.933 168.292 502.993 167.784 C 503.053 167.276 501.797 167.814 501.468 167.575 C 501.139 167.335 496.626 166.289 495.908 166.767 C 495.191 167.246 489.332 166.618 486.731 167.425 C 484.13 168.232 480.722 170.773 480.513 171.132 Q 480.304 171.491 482.516 171.73 Q 487.568 168.352 488.405 168.71 Q 489.242 169.069 499.525 171.221 Z " fill="rgb(15,15,15)"/></g><g><path d=" M 519.142 179.306 Q 522.011 180.262 522.038 180.98 C 522.065 181.697 522.383 183.185 521.108 184.461 C 519.833 185.736 518.717 186.215 518.584 185.975 C 518.451 185.736 517.348 183.058 517.375 182.5 C 517.402 181.942 518.663 179.014 519.142 179.306 Z " fill="rgb(255,255,255)" vector-effect="non-scaling-stroke" stroke-width="0.05" stroke="rgb(0,0,0)" stroke-linejoin="miter" stroke-linecap="square" stroke-miterlimit="3"/><path d=" M 521.309 183.148 C 521.529 182.186 521.249 181.301 520.684 181.171 C 520.118 181.042 519.481 181.718 519.261 182.679 C 519.041 183.641 519.321 184.527 519.886 184.656 C 520.452 184.785 521.089 184.11 521.309 183.148 Z " fill="rgb(131,163,202)"/><path d=" M 528.787 169.554 C 527.884 169.607 525.758 170.404 524.748 171.202 C 523.739 171.999 522.569 173.699 523.26 173.699 C 523.951 173.699 528.84 174.443 528.628 175.347 C 528.415 176.25 527.246 177.791 527.246 178.642 C 527.246 179.492 530.328 175.878 530.807 174.337 C 531.285 172.796 532.401 170.83 531.71 170.511 C 531.019 170.192 529.691 169.501 528.787 169.554 Z " fill="rgb(15,15,15)"/><path d=" M 519.089 179.332 Q 521.639 180.209 521.852 180.82 C 522.065 181.432 521.852 183.85 521.48 184.195 C 521.108 184.54 523.181 184.7 523.685 184.54 C 524.19 184.381 526.103 184.62 526.741 184.089 C 527.379 183.557 529.744 182.84 529.744 182.548 C 529.744 182.255 527.937 180.688 527.512 180.528 C 527.087 180.369 527.219 180.262 527.724 179.731 C 528.229 179.2 527.166 179.704 527.273 179.253 C 527.379 178.801 519.779 178.349 519.567 178.642 Q 519.354 178.934 519.089 179.332 Z " fill="rgb(15,15,15)"/></g><path d=" M 494.794 722.844 Q 496.803 828.523 500.344 836.908 C 503.885 845.294 470.062 842.885 469.1 837.588 C 468.138 832.29 448.722 769.926 444.085 731.955 Q 442.043 715.231 440.622 684.252 L 493.441 674.937 L 494.794 722.844 Z " fill="rgb(245,223,202)" vector-effect="non-scaling-stroke" stroke-width="1" stroke="rgb(0,0,0)" stroke-linejoin="miter" stroke-linecap="square" stroke-miterlimit="3"/><g><path d=" M 384.321 476.453 Q 367.319 516.425 381.229 550.224 C 395.138 584.024 412.896 616.478 414.57 653.791 C 416.245 691.105 418.454 705.281 420.146 713.939 C 421.838 722.597 508.676 721.356 506.797 705.992 C 505.955 699.112 499.259 612.609 498.625 561.879 C 498.424 545.76 496.189 529.498 498.696 516.002 Q 501.604 500.346 507.553 483.694 Q 493.231 488.684 432.101 479.895 Q 376.728 471.934 384.321 476.453 Z " fill="rgb(79,75,90)" vector-effect="non-scaling-stroke" stroke-width="1" stroke="rgb(0,0,0)" stroke-linejoin="miter" stroke-linecap="square" stroke-miterlimit="3"/><path d=" M 498.725 798.985 C 519.714 807.733 527.033 842.759 554.214 857.558 C 567.963 865.044 586.127 872.592 581.716 876.097 C 577.305 879.603 552.315 880.914 536.845 878.244 C 521.375 875.574 477.666 850.731 476.761 847.112 C 475.857 843.493 454.416 849.565 454.507 844.544 C 454.598 839.523 455.873 806.83 459.899 804.478 C 463.925 802.126 472.797 813.216 488.019 811.431 C 503.241 809.645 493.636 801.927 498.725 798.985 Z " fill="rgb(255,255,255)" vector-effect="non-scaling-stroke" stroke-width="1" stroke="rgb(0,0,0)" stroke-linejoin="miter" stroke-linecap="square" stroke-miterlimit="3"/><path d=" M 455.103 842.873 C 455.633 842.865 476.492 846.937 477.072 846.371 C 477.653 845.805 473.686 871.602 473.174 872.78 C 472.662 873.958 465.888 876.02 460.797 874.296 C 455.706 872.573 455.555 871.784 455.611 870.371 C 455.668 868.957 454.573 842.882 455.103 842.873 Z " fill="rgb(255,255,255)" vector-effect="non-scaling-stroke" stroke-width="1" stroke="rgb(0,0,0)" stroke-linejoin="miter" stroke-linecap="square" stroke-miterlimit="3"/></g><path d=" M 431.748 199.952 Q 430.366 205.904 430.897 208.136 C 431.429 210.368 433.795 218.833 433.875 219.75 C 433.955 220.667 432.83 220.91 432.75 220.313 C 432.67 219.715 429.675 211.418 429.675 209.943 C 429.675 208.468 429.635 204.283 429.356 205.16 C 429.077 206.037 428.28 212.055 428.36 212.892 C 428.439 213.729 429.755 219.668 430.034 220.545 C 430.313 221.422 430.193 222.418 429.795 221.94 C 429.396 221.462 428.997 219.947 428.479 220.186 C 427.961 220.425 427.403 221.023 427.403 221.82 C 427.403 222.618 427.084 224.212 426.726 224.092 C 426.367 223.973 426.447 220.585 426.207 221.223 C 425.968 221.86 425.151 225.986 423.118 228.198 C 421.086 230.41 412.357 236.149 411.161 235.551 C 409.965 234.954 397.769 239.318 394.541 236.448 C 391.312 233.578 385.094 227.54 384.018 224.132 C 382.942 220.724 382.484 208.588 382.324 205.559 C 382.165 202.529 383.201 194.717 386.151 192.804 C 389.1 190.891 390.376 192.326 389.738 190.891 C 389.1 189.456 381.846 176.941 381.527 171.361 C 381.208 165.781 383.759 145.055 386.151 141.229 C 388.542 137.402 391.571 119.227 392.847 115.72 C 394.122 112.213 410.543 93.081 415.964 90.052 C 421.385 87.023 458.372 76.979 466.025 81.602 C 473.678 86.225 474.475 88.139 475.75 89.574 C 477.026 91.008 485.794 87.023 490.099 89.414 C 494.403 91.806 495.679 94.994 498.708 94.994 C 501.737 94.994 507.477 98.661 509.23 99.458 C 510.984 100.255 516.724 100.415 517.202 103.444 C 517.68 106.473 520.231 105.198 522.941 105.357 C 525.652 105.516 546.696 123.054 547.972 124.967 C 549.247 126.88 558.175 150.157 557.378 155.577 C 556.581 160.998 554.528 171.76 553.931 172.716 C 553.333 173.673 548.49 179.352 547.713 179.831 C 546.936 180.309 552.436 174.51 553.273 171.76 C 554.11 169.009 556.202 160.221 556.202 159.324 Q 555.963 158.607 555.485 160.101 C 555.007 161.596 552.974 166.618 551.42 169.488 C 549.865 172.357 547.892 176.841 547.414 177.918 Q 546.936 178.994 542.691 182.461 Q 544.963 180.488 547.115 175.108 C 549.267 169.727 551.121 165.841 551.24 164.466 C 551.36 163.091 551.599 158.009 551.3 158.846 C 551.001 159.683 547.952 168.292 546.816 169.846 C 545.68 171.401 538.141 178.212 537.125 178.75 Q 536.109 179.288 534.5 179.125 Q 540.478 174.663 541.375 171.375 C 542.272 168.087 543.049 168.113 542.332 168.77 C 541.615 169.428 535.098 173.792 533.663 173.613 Q 532.228 173.434 531.331 171.939 Q 538.326 170.444 538.566 168.531 C 538.805 166.618 539.283 164.585 538.326 165.422 C 537.37 166.259 532.049 170.803 532.049 170.265 C 532.049 169.727 535.815 150.237 534.919 149.28 C 534.022 148.323 534.082 154.003 530.315 158.069 C 526.549 162.134 517.756 168.908 515.125 169.625 Q 512.494 170.342 505.875 170.5 Q 516.983 165.243 515.907 164.346 C 514.83 163.449 493.606 159.204 492.65 159.085 C 491.693 158.965 497.014 157.889 496.775 157.471 C 496.536 157.052 495.161 155.856 493.786 156.275 C 492.411 156.693 497.486 150.795 499.027 147.553 Q 500.568 144.311 502.588 140.166 Q 490.63 152.07 488.026 153.505 C 485.422 154.94 471.339 162.167 464.431 168.916 C 457.522 175.666 458.16 172.158 456.991 175.24 C 455.821 178.323 453.802 187.463 454.652 191.024 C 455.503 194.585 455.95 194.458 456.375 197.063 C 456.8 199.667 461.242 210.634 462.464 212.76 C 463.687 214.885 467.072 220.496 467.125 222.25 C 467.178 224.004 470.628 227.191 468.5 228.5 Q 466.062 230 464.875 231.375 Q 466.037 227.241 466.25 226.125 C 466.463 225.009 463.216 217.698 461.25 215.625 C 459.284 213.552 448.95 206.257 448.313 203.813 C 447.675 201.368 441.353 170.683 439.918 169.249 C 438.483 167.814 430.831 160.52 429.396 161.955 C 427.961 163.389 417.558 166.857 418.754 170.803 C 419.95 174.749 428.679 192.685 430.353 194.957 Q 432.027 197.228 431.748 199.952 Z " fill="rgb(90,43,33)" vector-effect="non-scaling-stroke" stroke-width="0.1" stroke="rgb(0,0,0)" stroke-linejoin="miter" stroke-linecap="square" stroke-miterlimit="3"/><g><path d=" M 428.588 190.492 Q 423.336 182.562 422.1 179.782 C 420.864 177.001 417.735 170.114 417.595 166.247 C 417.505 163.773 426.014 159.598 427.352 160.113 C 428.691 160.627 435.282 166.085 435.591 167.63 C 435.9 169.175 436.003 171.955 435.797 173.603 C 435.591 175.251 433.428 175.354 433.428 176.795 C 433.428 178.237 432.501 181.018 433.634 181.533 C 434.767 182.047 436.518 195.538 433.119 193.993 Q 429.721 192.449 428.588 190.492 Z " fill="rgb(245,223,202)" vector-effect="non-scaling-stroke" stroke-width="1" stroke="rgb(0,0,0)" stroke-linejoin="miter" stroke-linecap="square" stroke-miterlimit="3"/><path d=" M 434.355 175.663 Q 432.707 171.749 431.06 173.397 C 429.412 175.045 427.146 176.075 429 178.752 C 430.854 181.43 430.957 182.356 432.604 181.945 C 434.252 181.533 432.604 179.576 433.016 177.928 Q 433.428 176.281 434.355 175.663 Z " fill="rgb(202,174,148)" vector-effect="non-scaling-stroke" stroke-width="0.5" stroke="rgb(0,0,0)" stroke-linejoin="miter" stroke-linecap="square" stroke-miterlimit="3"/><path d=" M 431.782 182.591 C 431.782 183.402 434.149 192.178 433.106 191.483 C 432.064 190.788 418.625 172.599 419.32 168.544 C 420.015 164.489 425.808 161.361 427.43 162.52 C 429.051 163.678 432.643 166.69 432.99 167.965 C 433.338 169.239 433.24 173.504 434.282 174.778 C 435.325 176.053 435.899 173.989 435.782 171.778 C 435.657 169.403 435.959 168.65 435.032 167.028 C 434.105 165.406 428.472 159.508 426.966 159.855 C 425.46 160.203 417.664 164.27 417.806 166.036 C 417.946 167.794 420.829 178.763 428.704 190.788 C 430.23 193.118 432.99 194.959 434.033 193.8 C 435.076 192.642 434.826 189.89 434.595 187.341 C 434.363 184.792 433.852 182.028 433.157 182.028 C 432.462 182.028 431.782 181.78 431.782 182.591 Z " fill="rgb(232,211,192)"/></g></g></g></g></svg>