<?xml version="1.0" encoding="UTF-8" standalone="no"?><!-- Generator: Gravit.io --><svg xmlns="http://www.w3.org/2000/svg" xmlns:xlink="http://www.w3.org/1999/xlink" style="isolation:isolate" viewBox="0 0 1000 1000" width="1000pt" height="1000pt"><defs><clipPath id="_clipPath_BZ6bMunu6wo4CGDwVuB9g85FRMQYqw1V"><rect width="1000" height="1000"/></clipPath></defs><g clip-path="url(#_clipPath_BZ6bMunu6wo4CGDwVuB9g85FRMQYqw1V)"><g style="isolation:isolate"><g><g><path d=" M 452.752 296.76 C 457.142 309.547 505.329 331.268 513.041 337.314 Q 520.753 343.36 553.525 290.007 Q 533.504 279.82 529.143 272.563 Q 524.783 265.307 505.455 290.41 Q 490.059 278.955 483.781 281.358" fill="rgb(234,212,192)" vector-effect="non-scaling-stroke" stroke-width="1" stroke="rgb(0,0,0)" stroke-linejoin="miter" stroke-linecap="square" stroke-miterlimit="3"/><path d=" M 547.52 254.755 Q 556.093 270.763 564.505 270.927 Q 572.917 271.09 571.061 270.001 L 547.52 254.755 Z " fill="rgb(255,255,255)"/><path d=" M 544.499 249.847 Q 555.786 269.819 565.177 271.084 C 574.568 272.348 573.855 269.746 573.337 271.564 C 572.818 273.382 569.714 281.776 568.328 282.914 C 566.941 284.052 560.198 294.042 558.65 294.229 C 557.102 294.417 538.481 292.838 531.882 281.518 C 525.282 270.197 523.927 272.052 525.744 269.818 Q 527.562 267.584 544.499 249.847 Z " fill="rgb(224,192,187)" vector-effect="non-scaling-stroke" stroke-width="1" stroke="rgb(0,0,0)" stroke-linejoin="miter" stroke-linecap="square" stroke-miterlimit="3"/><path d=" M 546.187 250.132 C 545.312 243.827 543.377 232.422 554.706 220.555 C 566.036 208.689 561.357 211.168 563.803 209.625 C 566.249 208.081 574.594 204.604 577.394 205.678 C 580.194 206.753 580.868 203.013 585.06 205.822 C 589.253 208.63 593.605 209.637 595.347 213.869 C 597.088 218.102 603.982 225.22 603.349 227.163 C 602.716 229.106 604.873 234.637 602.37 234.866 C 599.866 235.095 603.09 237.946 604.456 239.083 C 605.822 240.22 605.481 246.1 592.923 249.043 C 580.365 251.987 576.767 262.437 576.025 264.624 C 575.283 266.811 575.357 271.236 573.061 270.738 C 570.765 270.24 547.061 256.437 546.187 250.132 Z " fill="rgb(227,195,189)" vector-effect="non-scaling-stroke" stroke-width="1" stroke="rgb(0,0,0)" stroke-linejoin="miter" stroke-linecap="square" stroke-miterlimit="3"/><path d=" M 653.982 156.512 Q 642.294 165.641 640.617 168.348 Q 638.94 171.054 589.695 216.297 L 585.278 211.105 L 582.825 207.023 Q 623.904 172.072 628.915 168.98 C 633.926 165.888 641.852 163.746 643.581 162.234 Q 645.31 160.722 653.982 156.512 Z " fill="rgb(162,170,196)" vector-effect="non-scaling-stroke" stroke-width="0.25" stroke="rgb(0,0,0)" stroke-linejoin="miter" stroke-linecap="square" stroke-miterlimit="3"/><path d=" M 665.209 170.237 Q 653.52 179.366 651.843 182.072 Q 650.166 184.779 600.921 230.022 L 596.505 224.829 L 594.052 220.748 Q 635.13 185.796 640.141 182.704 C 645.153 179.613 653.078 177.47 654.807 175.958 Q 656.536 174.446 665.209 170.237 Z " fill="rgb(162,170,196)" vector-effect="non-scaling-stroke" stroke-width="0.25" stroke="rgb(0,0,0)" stroke-linejoin="miter" stroke-linecap="square" stroke-miterlimit="3"/></g><path d=" M 536.188 293.278 C 543.501 293.56 545.001 293.091 545.188 296.653 C 545.376 300.216 509.563 354.591 507.032 353.278 C 504.501 351.966 497.188 343.997 499.532 339.028 C 501.876 334.06 528.876 292.997 536.188 293.278 Z " fill="rgb(115,142,121)"/><path d=" M 415.767 245.208 Q 414.491 244.335 415.767 243.591 C 417.042 242.847 419.525 236.621 420.588 235.027 C 421.65 233.432 430.26 222.804 425.37 217.914 C 420.481 213.025 373.609 183.903 382.962 150.423 C 392.315 116.942 403.688 94.728 424.626 86.757 C 445.565 78.785 470.542 87.395 489.78 96.11 C 509.018 104.826 538.672 122.682 539.628 130.866 C 540.585 139.05 531.869 168.81 531.551 170.192 C 531.232 171.574 532.401 173.274 529.85 176.038 C 527.299 178.801 522.304 184.328 521.985 186.454 C 521.666 188.579 519.54 192.087 520.284 192.618 C 521.028 193.15 522.729 207.18 519.54 214.832 C 516.352 222.485 513.057 226.524 510.612 228.224 C 508.168 229.925 504.235 237.152 502.322 238.853 C 500.409 240.553 491.906 240.447 486.485 238.853 C 481.065 237.259 476.45 233.381 471.667 239.333 C 466.884 245.285 464.362 264.575 463.087 265.107 C 461.811 265.638 455.523 270.324 451.696 268.411 C 447.87 266.498 434.102 248.936 431.657 248.724 Q 429.213 248.511 415.767 245.208 Z " fill="rgb(245,223,202)" vector-effect="non-scaling-stroke" stroke-width="1" stroke="rgb(0,0,0)" stroke-linejoin="miter" stroke-linecap="square" stroke-miterlimit="3"/><g><path d=" M 436.108 693.85 Q 390.678 777.707 389.728 785.865 C 388.778 794.023 363.297 777.087 364.898 772.501 C 366.499 767.914 378.997 710.319 392.247 678.448 Q 398.082 664.411 410.747 639.458 L 456.355 655.64 L 436.108 693.85 Z " fill="rgb(234,212,192)" vector-effect="non-scaling-stroke" stroke-width="1" stroke="rgb(0,0,0)" stroke-linejoin="miter" stroke-linecap="square" stroke-miterlimit="3"/><path d=" M 422.923 457.194 Q 375.633 494.765 380.317 529.229 C 385 563.692 401.761 598.384 394.334 633.143 C 386.908 667.902 385.535 681.485 385.012 689.864 C 384.489 698.242 464.743 717.971 466.705 703.373 Q 468.668 688.776 490.116 476.187 Q 506.444 500.026 452.271 477.242 Q 403.2 456.603 422.923 457.194 Z " fill="rgb(79,75,90)" vector-effect="non-scaling-stroke" stroke-width="1" stroke="rgb(0,0,0)" stroke-linejoin="miter" stroke-linecap="square" stroke-miterlimit="3"/><path d=" M 393.995 775.941 C 406.396 790.261 398.842 819.097 413.612 840.23 C 421.083 850.919 431.822 863.295 427.231 864.27 C 422.64 865.246 403.519 856.94 392.976 849.202 C 382.432 841.464 359.07 806.702 359.74 803.668 C 360.41 800.634 342.167 797.196 344.1 793.486 C 346.033 789.776 359.129 765.872 363.005 765.614 C 366.88 765.356 369.376 776.921 381.389 781.244 C 393.403 785.568 389.108 776.245 393.995 775.941 Z " fill="rgb(255,255,255)" vector-effect="non-scaling-stroke" stroke-width="1" stroke="rgb(0,0,0)" stroke-linejoin="miter" stroke-linecap="square" stroke-miterlimit="3"/><path d=" M 345.165 792.461 C 345.563 792.652 359.604 803.437 360.247 803.231 C 360.89 803.024 348.349 820.787 347.53 821.475 C 346.71 822.163 340.893 821.183 337.737 818.007 C 334.581 814.831 334.762 814.187 335.329 813.154 C 335.896 812.121 344.767 792.271 345.165 792.461 Z " fill="rgb(255,255,255)" vector-effect="non-scaling-stroke" stroke-width="1" stroke="rgb(0,0,0)" stroke-linejoin="miter" stroke-linecap="square" stroke-miterlimit="3"/></g><g><path d=" M 503.841 469.495 C 505.097 468.897 508.513 484.061 506 486.333 C 503.487 488.605 486.245 488.267 482.018 488.387 C 477.791 488.507 401.936 480.256 399.308 478.702 Q 396.681 477.147 384.8 477.254 Q 387.427 466.984 387.77 464.233 C 388.113 461.483 387.541 456.461 390.397 457.418 C 393.253 458.374 458.37 471.288 471.508 471.169 C 484.645 471.049 502.584 470.092 503.841 469.495 Z " fill="rgb(61,16,13)" vector-effect="non-scaling-stroke" stroke-width="0.5" stroke="rgb(0,0,0)" stroke-linejoin="miter" stroke-linecap="square" stroke-miterlimit="3"/><path d=" M 484.891 264.043 Q 500.196 281.049 501.259 287.213 C 502.322 293.378 506.786 336.318 507.211 342.695 C 507.636 349.072 510.923 354.149 504.333 369.667 C 497.744 385.184 499.025 387.136 499.875 390.75 C 500.725 394.364 500.196 404.979 499.771 409.655 C 499.346 414.332 495.519 419.646 497.22 421.985 C 498.921 424.323 504.235 430.913 506.148 437.077 C 508.061 443.242 512.95 447.706 515.714 451.957 Q 518.477 456.209 520.391 461.098 Q 507.985 475.458 500.97 473.758 C 493.955 472.057 490.468 474.298 484.303 476.424 C 478.138 478.55 441.526 470.026 438.762 467.263 C 435.999 464.499 420.481 463.436 409.64 463.861 C 398.799 464.287 380.305 454.508 379.242 451.32 C 378.179 448.131 385.832 443.88 386.257 440.904 C 386.682 437.928 379.455 428.787 384.556 420.284 C 389.658 411.781 390.508 413.269 391.146 407.742 C 391.784 402.215 400.712 381.808 401.562 373.943 C 402.413 366.078 389.446 309.108 389.233 302.093 C 389.02 295.078 389.4 277.177 390.25 272.5 C 391.1 267.823 393.961 263.194 398 257.667 C 402.039 252.14 402.838 253.202 403.901 249.375 C 404.963 245.549 403.995 239.246 406.333 237.333 C 408.672 235.42 411.227 240.362 418.667 241 C 426.107 241.638 436.256 244.507 444.333 248.333 C 452.411 252.16 456.208 257.155 458.333 255.667 C 460.459 254.179 472.415 255.116 476.667 257.667 Q 480.918 260.218 484.891 264.043 Z " fill="rgb(164,177,167)" vector-effect="non-scaling-stroke" stroke-width="1" stroke="rgb(0,0,0)" stroke-linejoin="miter" stroke-linecap="square" stroke-miterlimit="3"/></g><g><path d=" M 611.719 113.665 Q 608.676 131.021 609.351 134.743 Q 610.026 138.465 602.602 217.567 L 594.574 216.503 L 589.162 214.855 Q 597.574 151.33 599.533 144.614 C 601.492 137.898 606.777 129.701 607.099 126.991 Q 607.42 124.281 611.719 113.665 Z " fill="rgb(162,170,196)" vector-effect="non-scaling-stroke" stroke-width="0.25" stroke="rgb(0,0,0)" stroke-linejoin="miter" stroke-linecap="square" stroke-miterlimit="3"/><path d=" M 632.545 116.835 Q 629.502 134.191 630.177 137.913 Q 630.853 141.634 623.428 220.737 L 615.4 219.672 L 609.988 218.025 Q 618.4 154.5 620.359 147.784 C 622.318 141.068 627.603 132.87 627.925 130.161 Q 628.247 127.451 632.545 116.835 Z " fill="rgb(162,170,196)" vector-effect="non-scaling-stroke" stroke-width="0.25" stroke="rgb(0,0,0)" stroke-linejoin="miter" stroke-linecap="square" stroke-miterlimit="3"/><path d=" M 609.745 287.484 C 613.791 291.104 595.552 325.887 591.889 331.852 C 588.226 337.818 583.898 351.976 581.004 352.858 C 578.11 353.74 570.106 358.043 565.366 356.325 Q 560.626 354.608 510.649 332.762 Q 525.632 296.15 534.18 298.604 Q 542.729 301.058 560.626 311.318 Q 577.229 280.759 579.543 277.629 C 581.857 274.499 593.222 272.702 609.745 287.484 Z " fill="rgb(245,223,202)" vector-effect="non-scaling-stroke" stroke-width="1" stroke="rgb(0,0,0)" stroke-linejoin="miter" stroke-linecap="square" stroke-miterlimit="3"/><path d=" M 576.931 257.342 C 576.137 258.478 597.488 249.404 605.924 253.6 C 614.359 257.796 627.038 267.176 627.398 273.574 C 627.759 279.973 630.431 269.876 629.979 268.048 C 629.526 266.22 624.638 255.796 621.508 254.384 C 618.378 252.971 597.498 241.809 593.102 242.575 C 588.707 243.342 577.725 256.207 576.931 257.342 Z " fill="rgb(255,255,255)"/><path d=" M 609.41 303.98 C 606.917 302.596 618.569 302.98 616.616 296.512 C 614.662 290.044 602.071 278.646 590.257 278.772 C 578.442 278.898 580.367 274.686 571.241 283.054 Q 569.579 284.578 572.335 287.25 Q 567.03 284.467 567.57 279.384 C 568.11 274.301 573.054 270.685 575.172 265.99 Q 577.291 261.294 577.443 257.79 Q 591.916 247.886 609.783 255.363 C 627.651 262.84 628.469 273.408 627.348 277.189 C 626.226 280.971 622.71 295.819 621.311 298.63 C 619.913 301.442 611.903 305.365 609.41 303.98 Z " fill="rgb(228,202,195)" vector-effect="non-scaling-stroke" stroke-width="1" stroke="rgb(0,0,0)" stroke-linejoin="miter" stroke-linecap="square" stroke-miterlimit="3"/><path d=" M 576.939 256.531 Q 585.94 250.459 587.877 249.945 C 589.814 249.43 604.242 245.149 617.529 253.385 Q 630.816 261.621 627.229 270.69 L 628.266 275.439 Q 632.349 267.672 632.722 264.576 C 633.096 261.481 636.361 246.901 636.464 239.006 C 636.568 231.112 637.902 227.938 636.536 226.323 C 635.17 224.708 628.1 219.374 627.565 217.915 C 627.03 216.455 625.087 211.584 622.142 210.499 C 619.197 209.413 617.94 210.795 616.558 209.538 C 615.177 208.282 612.434 205.29 608.092 206.059 C 603.75 206.828 602.239 208.558 599.236 206.034 C 596.234 203.51 590.894 196.935 585.269 199.684 Q 579.645 202.432 579.074 204.561 Q 570.774 208.271 570.889 211.148 C 571.003 214.025 573.128 220.221 574.437 220.398 C 575.746 220.574 573.207 223.935 572.999 225.961 C 572.791 227.986 572.58 238.39 573.208 240.452 Q 573.837 242.514 576.939 256.531 Z " fill="rgb(227,195,189)" vector-effect="non-scaling-stroke" stroke-width="1" stroke="rgb(0,0,0)" stroke-linejoin="miter" stroke-linecap="square" stroke-miterlimit="3"/><path d=" M 547.312 303.375 C 547.428 304.574 544.709 303.159 543.244 302.27 C 541.778 301.382 537.652 298.129 531.059 303.301 C 521.595 310.725 516.787 320.318 515.854 323.483 C 514.922 326.649 505.769 343.423 505.86 348.104 C 505.952 352.784 505.187 351.528 507.602 348.614 Q 510.016 345.699 515.372 335.591 L 522.938 338.437 L 509.247 356.91 Q 506.592 359.366 503.639 358.439 C 500.686 357.512 476.169 353.289 471.99 350.416 C 467.812 347.544 429.106 314.857 442.928 282.043 C 456.749 249.228 481.119 257.197 483.794 260.669 C 486.468 264.14 488.691 268.885 492.287 269.616 C 495.883 270.347 497.689 277.719 500.234 277.998 C 502.778 278.277 508.627 284.018 511.406 283.452 C 514.185 282.886 512.641 285.413 519.129 289.409 C 525.618 293.404 530.247 293.235 533.429 293.53 C 536.611 293.825 546.4 293.869 547.312 303.375 Z " fill="rgb(164,177,167)" vector-effect="non-scaling-stroke" stroke-width="1" stroke="rgb(0,0,0)" stroke-linejoin="miter" stroke-linecap="square" stroke-miterlimit="3"/><path d=" M 578.226 277.566 Q 569.683 283.093 570.198 285.03 Q 570.712 286.967 573.086 287.429 Q 580.138 277.649 578.226 277.566 Z " fill="rgb(0,0,0)"/><path d=" M 611.677 291.736 L 609.536 303.235 Q 616.295 301.879 617.09 298.918 C 617.202 298.5 614.306 289.066 611.756 289.913 Q 609.206 290.759 611.677 291.736 Z " fill="rgb(0,0,0)"/></g><g><path d=" M 500.906 218.344 C 498.887 220.895 501.96 220.581 501.375 221.75 C 500.79 222.919 499.372 222.02 499.904 223.455 C 500.435 224.89 509.709 226.205 510.718 225.408 C 512.369 224.105 513.043 221.741 512.14 220.784 C 511.237 219.828 502.926 215.793 500.906 218.344 Z " fill="rgb(117,21,15)"/><path d=" M 500.75 216.75 Q 508.951 218.233 509.908 218.951 C 510.865 219.668 511.821 221.422 512.618 221.462 C 513.415 221.502 513.894 221.86 514.133 221.342 C 514.372 220.824 515.871 214.618 515.672 212.625 C 515.473 210.632 512.586 208.997 511.031 209.953 C 509.477 210.91 504.061 214.795 503.344 214.875 C 502.626 214.955 501.418 214.367 501.339 215.164 Q 501.259 215.961 500.75 216.75 Z " fill="rgb(117,21,15)"/></g><g><path d=" M 518.477 177.26 Q 515.687 180.847 515.767 182.84 C 515.847 184.833 519.753 192.246 520.949 193.442 C 522.144 194.638 524.226 194.915 524.625 196.031 C 525.024 197.147 521.427 199.819 519.035 200.457 C 516.644 201.095 510.267 203.008 509.071 202.529" fill="rgb(245,223,202)" vector-effect="non-scaling-stroke" stroke-width="1" stroke="rgb(0,0,0)" stroke-linejoin="miter" stroke-linecap="square" stroke-miterlimit="3"/><path d=" M 511.223 196.71 C 510.586 194.877 505.085 197.268 505.165 198.225" fill="none" vector-effect="non-scaling-stroke" stroke-width="1" stroke="rgb(0,0,0)" stroke-linejoin="miter" stroke-linecap="square" stroke-miterlimit="3"/></g><g><path d=" M 499.525 170.982 C 500.003 172.895 497.014 177.2 496.237 178.994 C 495.46 180.787 495.838 182.686 494.344 181.969 C 492.849 181.251 482.284 174.208 482.344 172.594 C 482.404 170.98 487.09 168.113 489.122 168.053 C 491.155 167.993 499.047 169.069 499.525 170.982 Z " fill="rgb(255,255,255)" vector-effect="non-scaling-stroke" stroke-width="0.1" stroke="rgb(0,0,0)" stroke-linejoin="miter" stroke-linecap="square" stroke-miterlimit="3"/><ellipse vector-effect="non-scaling-stroke" cx="494.120622580508" cy="174.3668880433212" rx="3.099451752108223" ry="3.377918120461686" fill="rgb(131,163,202)"/><path d=" M 514.385 162.752 Q 512.685 167.11 511.25 167.428 C 509.815 167.747 500.568 164.984 498.868 163.815 C 497.167 162.645 492.915 161.157 489.461 160.892 C 486.007 160.626 479.683 160.52 479.258 160.36 C 478.833 160.201 490.79 156.587 493.075 155.737 C 495.36 154.887 514.864 157.225 515.342 158.766 Q 515.82 160.307 514.385 162.752 Z " fill="rgb(15,15,15)"/><path d=" M 499.525 171.221 Q 500.422 172.895 500.721 172.806 C 501.02 172.716 503.561 171.849 503.71 170.803 C 503.86 169.757 502.933 168.292 502.993 167.784 C 503.053 167.276 501.797 167.814 501.468 167.575 C 501.139 167.335 496.626 166.289 495.908 166.767 C 495.191 167.246 489.332 166.618 486.731 167.425 C 484.13 168.232 480.722 170.773 480.513 171.132 Q 480.304 171.491 482.516 171.73 Q 487.568 168.352 488.405 168.71 Q 489.242 169.069 499.525 171.221 Z " fill="rgb(15,15,15)"/></g><g><path d=" M 519.142 179.306 Q 522.011 180.262 522.038 180.98 C 522.065 181.697 522.383 183.185 521.108 184.461 C 519.833 185.736 518.664 186.52 518.531 186.281 C 518.398 186.042 517.348 183.058 517.375 182.5 C 517.402 181.942 518.663 179.014 519.142 179.306 Z " fill="rgb(255,255,255)" vector-effect="non-scaling-stroke" stroke-width="0.05" stroke="rgb(0,0,0)" stroke-linejoin="miter" stroke-linecap="square" stroke-miterlimit="3"/><path d=" M 521.309 183.148 C 521.529 182.186 521.249 181.301 520.684 181.171 C 520.118 181.042 519.481 181.718 519.261 182.679 C 519.041 183.641 519.321 184.527 519.886 184.656 C 520.452 184.785 521.089 184.11 521.309 183.148 Z " fill="rgb(131,163,202)"/><path d=" M 528.787 169.554 C 527.884 169.607 525.758 170.404 524.748 171.202 C 523.739 171.999 522.569 173.699 523.26 173.699 C 523.951 173.699 528.84 174.443 528.628 175.347 C 528.415 176.25 527.246 177.791 527.246 178.642 C 527.246 179.492 530.328 175.878 530.807 174.337 C 531.285 172.796 532.401 170.83 531.71 170.511 C 531.019 170.192 529.691 169.501 528.787 169.554 Z " fill="rgb(15,15,15)"/><path d=" M 519.089 179.332 Q 521.639 180.209 521.852 180.82 C 522.065 181.432 521.852 183.85 521.48 184.195 C 521.108 184.54 523.181 184.7 523.685 184.54 C 524.19 184.381 526.103 184.62 526.741 184.089 C 527.379 183.557 529.744 182.84 529.744 182.548 C 529.744 182.255 527.937 180.688 527.512 180.528 C 527.087 180.369 527.219 180.262 527.724 179.731 C 528.229 179.2 527.166 179.704 527.273 179.253 C 527.379 178.801 519.779 178.349 519.567 178.642 Q 519.354 178.934 519.089 179.332 Z " fill="rgb(15,15,15)"/></g><path d=" M 494.794 722.844 Q 496.803 828.523 500.344 836.908 C 503.885 845.294 470.062 842.885 469.1 837.588 C 468.138 832.29 448.722 769.926 444.085 731.955 Q 442.043 715.231 440.622 684.252 L 493.441 674.937 L 494.794 722.844 Z " fill="rgb(245,223,202)" vector-effect="non-scaling-stroke" stroke-width="1" stroke="rgb(0,0,0)" stroke-linejoin="miter" stroke-linecap="square" stroke-miterlimit="3"/><g><path d=" M 385.486 475.298 Q 367.989 515.056 381.478 549.025 C 394.967 582.994 412.321 615.666 413.533 652.998 C 414.744 690.33 416.777 704.532 418.362 713.21 C 419.946 721.889 506.793 721.725 505.105 706.339 C 504.348 699.448 498.726 612.869 498.721 562.136 C 498.72 546.015 496.687 529.727 499.361 516.262 Q 502.463 500.644 508.619 484.067 Q 494.236 488.879 433.219 479.332 Q 377.949 470.685 385.486 475.298 Z " fill="rgb(79,75,90)" vector-effect="non-scaling-stroke" stroke-width="1" stroke="rgb(0,0,0)" stroke-linejoin="miter" stroke-linecap="square" stroke-miterlimit="3"/><path d=" M 495.88 799.224 C 516.759 808.232 523.643 843.346 550.638 858.481 C 564.293 866.137 582.362 873.91 577.908 877.36 C 573.454 880.81 548.45 881.812 533.014 878.95 C 517.578 876.088 474.181 850.705 473.321 847.075 C 472.462 843.445 450.947 849.251 451.1 844.231 C 451.254 839.212 452.934 806.537 456.989 804.235 C 461.044 801.933 469.778 813.133 485.021 811.536 C 500.264 809.94 490.755 802.103 495.88 799.224 Z " fill="rgb(255,255,255)" vector-effect="non-scaling-stroke" stroke-width="1" stroke="rgb(0,0,0)" stroke-linejoin="miter" stroke-linecap="square" stroke-miterlimit="3"/><path d=" M 451.717 842.568 C 452.247 842.566 473.054 846.896 473.641 846.338 C 474.229 845.779 469.942 871.525 469.416 872.697 C 468.889 873.869 462.09 875.846 457.02 874.059 C 451.951 872.273 451.81 871.482 451.884 870.07 C 451.958 868.657 451.187 842.57 451.717 842.568 Z " fill="rgb(255,255,255)" vector-effect="non-scaling-stroke" stroke-width="1" stroke="rgb(0,0,0)" stroke-linejoin="miter" stroke-linecap="square" stroke-miterlimit="3"/></g><path d=" M 431.748 199.952 Q 430.366 205.904 430.897 208.136 C 431.429 210.368 432.483 217.052 432.563 217.969 C 432.642 218.885 431.658 221.66 431.578 221.063 C 431.498 220.465 429.675 211.418 429.675 209.943 C 429.675 208.468 429.635 204.283 429.356 205.16 C 429.077 206.037 428.28 212.055 428.36 212.892 C 428.439 213.729 429.755 219.668 430.034 220.545 C 430.313 221.422 430.193 222.418 429.795 221.94 C 429.396 221.462 428.997 219.947 428.479 220.186 C 427.961 220.425 427.403 221.023 427.403 221.82 C 427.403 222.618 427.084 224.212 426.726 224.092 C 426.367 223.973 426.447 220.585 426.207 221.223 C 425.968 221.86 425.151 225.986 423.118 228.198 C 421.086 230.41 412.357 236.149 411.161 235.551 C 409.965 234.954 397.769 239.318 394.541 236.448 C 391.312 233.578 385.094 227.54 384.018 224.132 C 382.942 220.724 382.484 208.588 382.324 205.559 C 382.165 202.529 383.201 194.717 386.151 192.804 C 389.1 190.891 390.376 192.326 389.738 190.891 C 389.1 189.456 381.846 176.941 381.527 171.361 C 381.208 165.781 383.759 145.055 386.151 141.229 C 388.542 137.402 391.571 119.227 392.847 115.72 C 394.122 112.213 410.543 93.081 415.964 90.052 C 421.385 87.023 458.372 76.979 466.025 81.602 C 473.678 86.225 474.475 88.139 475.75 89.574 C 477.026 91.008 485.794 87.023 490.099 89.414 C 494.403 91.806 495.679 94.994 498.708 94.994 C 501.737 94.994 507.477 98.661 509.23 99.458 C 510.984 100.255 516.724 100.415 517.202 103.444 C 517.68 106.473 520.231 105.198 522.941 105.357 C 525.652 105.516 546.696 123.054 547.972 124.967 C 549.247 126.88 558.175 150.157 557.378 155.577 C 556.581 160.998 554.528 171.76 553.931 172.716 C 553.333 173.673 549.215 179.615 548.437 180.094 C 547.66 180.572 552.436 174.51 553.273 171.76 C 554.11 169.009 556.202 160.221 556.202 159.324 Q 555.963 158.607 555.485 160.101 C 555.007 161.596 552.974 166.618 551.42 169.488 C 549.865 172.357 547.892 176.841 547.414 177.918 Q 546.936 178.994 542.691 182.461 Q 544.963 180.488 547.115 175.108 C 549.267 169.727 551.121 165.841 551.24 164.466 C 551.36 163.091 551.599 158.009 551.3 158.846 C 551.001 159.683 547.952 168.292 546.816 169.846 C 545.68 171.401 538.141 178.212 537.125 178.75 Q 536.109 179.288 534.5 179.125 Q 540.478 174.663 541.375 171.375 C 542.272 168.087 543.049 168.113 542.332 168.77 C 541.615 169.428 535.098 173.792 533.663 173.613 Q 532.228 173.434 531.331 171.939 Q 538.326 170.444 538.566 168.531 C 538.805 166.618 539.283 164.585 538.326 165.422 C 537.37 166.259 532.049 170.803 532.049 170.265 C 532.049 169.727 535.815 150.237 534.919 149.28 C 534.022 148.323 534.082 154.003 530.315 158.069 C 526.549 162.134 517.881 168.126 515.25 168.844 Q 512.619 169.561 505.406 169.734 Q 516.983 165.243 515.907 164.346 C 514.83 163.449 493.606 159.204 492.65 159.085 C 491.693 158.965 497.014 157.889 496.775 157.471 C 496.536 157.052 495.161 155.856 493.786 156.275 C 492.411 156.693 497.486 150.795 499.027 147.553 Q 500.568 144.311 502.588 140.166 Q 490.63 152.07 488.026 153.505 C 485.422 154.94 471.339 162.167 464.431 168.916 C 457.522 175.666 458.16 172.158 456.991 175.24 C 455.821 178.323 453.802 187.463 454.652 191.024 C 455.503 194.585 455.95 194.458 456.375 197.063 C 456.8 199.667 461.242 210.634 462.464 212.76 C 463.687 214.885 466.353 220.621 466.406 222.375 C 466.459 224.129 467.737 228.191 465.609 229.5 Q 463.172 231 462.375 231.469 Q 464.131 227.804 464.344 226.688 C 464.556 225.572 463.216 217.698 461.25 215.625 C 459.284 213.552 448.95 206.257 448.313 203.813 C 447.675 201.368 441.353 170.683 439.918 169.249 C 438.483 167.814 430.831 160.52 429.396 161.955 C 427.961 163.389 417.558 166.857 418.754 170.803 C 419.95 174.749 428.679 192.685 430.353 194.957 Q 432.027 197.228 431.748 199.952 Z " fill="rgb(90,43,33)" vector-effect="non-scaling-stroke" stroke-width="0.1" stroke="rgb(0,0,0)" stroke-linejoin="miter" stroke-linecap="square" stroke-miterlimit="3"/><g><path d=" M 428.588 190.492 Q 423.336 182.562 422.1 179.782 C 420.864 177.001 417.735 170.114 417.595 166.247 C 417.505 163.773 426.014 159.598 427.352 160.113 C 428.691 160.627 435.282 166.085 435.591 167.63 C 435.9 169.175 436.003 171.955 435.797 173.603 C 435.591 175.251 433.428 175.354 433.428 176.795 C 433.428 178.237 432.501 181.018 433.634 181.533 C 434.767 182.047 436.518 195.538 433.119 193.993 Q 429.721 192.449 428.588 190.492 Z " fill="rgb(245,223,202)" vector-effect="non-scaling-stroke" stroke-width="1" stroke="rgb(0,0,0)" stroke-linejoin="miter" stroke-linecap="square" stroke-miterlimit="3"/><path d=" M 434.355 175.663 Q 432.707 171.749 431.06 173.397 C 429.412 175.045 427.146 176.075 429 178.752 C 430.854 181.43 430.957 182.356 432.604 181.945 C 434.252 181.533 432.604 179.576 433.016 177.928 Q 433.428 176.281 434.355 175.663 Z " fill="rgb(202,174,148)" vector-effect="non-scaling-stroke" stroke-width="0.5" stroke="rgb(0,0,0)" stroke-linejoin="miter" stroke-linecap="square" stroke-miterlimit="3"/><path d=" M 431.782 182.591 C 431.782 183.402 434.149 192.178 433.106 191.483 C 432.064 190.788 418.625 172.599 419.32 168.544 C 420.015 164.489 425.808 161.361 427.43 162.52 C 429.051 163.678 432.643 166.69 432.99 167.965 C 433.338 169.239 433.24 173.504 434.282 174.778 C 435.325 176.053 435.899 173.989 435.782 171.778 C 435.657 169.403 435.959 168.65 435.032 167.028 C 434.105 165.406 428.472 159.508 426.966 159.855 C 425.46 160.203 417.664 164.27 417.806 166.036 C 417.946 167.794 420.829 178.763 428.704 190.788 C 430.23 193.118 432.99 194.959 434.033 193.8 C 435.076 192.642 434.826 189.89 434.595 187.341 C 434.363 184.792 433.852 182.028 433.157 182.028 C 432.462 182.028 431.782 181.78 431.782 182.591 Z " fill="rgb(232,211,192)"/></g></g></g></g></svg>