<?xml version="1.0" encoding="UTF-8" standalone="no"?><!-- Generator: Gravit.io --><svg xmlns="http://www.w3.org/2000/svg" xmlns:xlink="http://www.w3.org/1999/xlink" style="isolation:isolate" viewBox="0 0 1500 1500" width="1500pt" height="1500pt"><defs><clipPath id="_clipPath_8vnpZjv9pw7dHjYfhJj8h0UILHfyNpGI"><rect width="1500" height="1500"/></clipPath></defs><g clip-path="url(#_clipPath_8vnpZjv9pw7dHjYfhJj8h0UILHfyNpGI)"><g><path d=" M 188.487 1193.081 C 187.218 1201.627 189.334 1213.811 191.703 1214.065 C 194.072 1214.319 239.594 1208.565 240.355 1206.703 C 241.117 1204.842 237.981 1191.304 237.394 1188.173 C 234.855 1174.635 189.757 1184.535 188.487 1193.081 Z " fill="rgb(141,92,153)"/><g><path d=" M 909.9 437.738 Q 877.916 473.275 874.87 479.875 C 871.824 486.475 857.609 519.982 854.055 524.043 C 850.502 528.105 830.702 550.443 828.164 561.612 C 825.625 572.781 821.564 571.258 824.102 582.173 C 826.641 593.088 828.925 605.018 824.864 610.349 C 820.802 615.68 816.995 612.887 819.787 617.964 C 822.579 623.041 826.133 629.641 825.118 632.433 C 824.102 635.225 830.702 643.856 824.864 648.679 C 819.026 653.502 680.937 647.917 673.068 642.079 C 665.199 636.241 636.769 625.325 635.753 620.756 C 634.738 616.187 631.946 606.034 633.722 601.718 C 635.499 597.403 644.384 597.149 644.13 593.849 C 643.876 590.549 646.414 567.958 651.745 559.073 C 657.076 550.189 661.137 549.935 659.868 535.974 C 658.599 522.013 644.891 491.552 640.576 482.414 C 636.261 473.275 632.707 468.96 632.707 463.376 C 632.707 457.791 642.353 330.871 650.984 333.664 C 659.614 336.456 665.452 341.025 667.991 338.994 C 670.529 336.963 692.106 319.702 708.351 317.418 C 724.597 315.133 751.25 323.764 754.296 324.525 C 757.342 325.287 843.648 336.456 851.517 342.294 C 859.386 348.132 903.3 349.909 906.346 353.971 C 909.393 358.032 936.807 353.717 934.523 367.932 Q 932.238 382.147 909.9 437.738 Z " fill="rgb(141,92,153)" vector-effect="non-scaling-stroke" stroke-width="1" stroke="rgb(0,0,0)" stroke-linejoin="miter" stroke-linecap="square" stroke-miterlimit="3"/></g><g><path d=" M 1027.513 595.626 C 1021.209 591.438 1007.036 578.027 1003.482 577.011 C 999.929 575.996 985.375 567.365 981.991 564.489 C 978.606 561.612 966.253 541.474 965.237 536.058 C 964.222 530.643 959.822 520.659 958.299 515.582 C 956.776 510.505 944.761 504.921 936.469 498.152 C 928.177 491.383 914.3 474.122 911.254 469.552 C 908.208 464.983 896.531 455.845 895.685 451.445 C 894.839 447.045 887.023 440.34 885.976 438.246 C 884.929 436.151 872.649 413.782 869.127 405.976 C 865.605 398.171 860.179 394.363 863.701 383.035 C 867.223 371.708 879.408 352.099 886.547 347.434 C 893.686 342.77 902.444 334.774 917.769 339.819 C 933.095 344.864 942.899 347.815 948.992 361.618 C 955.084 375.42 956.987 379.704 957.083 384.368 C 957.178 389.032 955.94 404.643 958.32 405.881 C 960.7 407.118 974.788 417.875 977.834 423.872 C 980.88 429.869 985.925 451.572 989.447 457.569 C 992.969 463.566 991.446 467.278 999.157 470.991 C 1006.867 474.703 1020.321 481.144 1026.159 486.602 C 1031.997 492.06 1040.247 503.99 1042.785 511.605 C 1045.324 519.22 1066.012 567.704 1065.631 572.527 C 1065.25 577.35 1033.816 599.815 1027.513 595.626 Z " fill="rgb(141,92,153)" vector-effect="non-scaling-stroke" stroke-width="1" stroke="rgb(0,0,0)" stroke-linejoin="miter" stroke-linecap="square" stroke-miterlimit="3"/><path d=" M 1052.016 659.109 Q 1053.286 653.906 1054.406 651.234 C 1059.416 639.291 1077.94 628.888 1081.266 627.891 C 1086.977 626.177 1100.078 625.577 1101.094 625.641 C 1102.109 625.704 1110.858 629.557 1114.031 631.969 C 1117.204 634.38 1126.235 637.319 1123.76 640.175 C 1121.285 643.031 1118.163 649.451 1116.703 648.562 C 1115.244 647.674 1098.363 643.764 1091.953 644.906 C 1085.544 646.049 1066.615 654.488 1063.125 655.313 Q 1059.635 656.137 1052.016 659.109 Z " fill="rgb(76,31,82)"/><path d=" M 1052.368 655.215 C 1050.908 655.532 1051.099 653.375 1051.86 651.852 C 1052.622 650.329 1056.048 647.473 1054.97 645.823 C 1053.891 644.173 1050.274 642.206 1050.274 640.81 C 1050.274 639.414 1049.512 634.527 1048.37 633.385 C 1047.228 632.243 1038.787 630.973 1038.407 628.118 C 1038.026 625.262 1039.739 619.868 1038.343 618.599 C 1036.947 617.33 1029.84 614.283 1029.459 612.253 C 1029.078 610.222 1030.474 607.43 1031.172 605.082 C 1031.87 602.734 1028.57 598.99 1029.776 596.324 C 1030.982 593.659 1037.645 586.615 1037.899 584.394 C 1038.153 582.173 1012.451 549.427 1013.213 547.651 C 1013.975 545.874 1019.559 539.528 1025.715 539.21 C 1031.87 538.893 1049.449 533.309 1051.099 535.149 C 1052.749 536.989 1060.935 560.342 1062.077 562.183 C 1063.219 564.023 1065.948 568.402 1067.027 571.575 C 1068.106 574.748 1069.819 578.175 1073.246 578.302 C 1076.673 578.429 1080.544 579.571 1080.607 581.982 C 1080.671 584.394 1080.988 586.234 1082.321 587.694 C 1083.654 589.153 1087.08 592.453 1087.461 594.357 C 1087.842 596.261 1086.319 601.274 1087.778 601.972 C 1089.238 602.67 1094.632 604.003 1095.14 606.668 C 1095.648 609.334 1094.251 612.76 1095.711 614.791 C 1097.171 616.822 1097.171 618.853 1099.265 618.789 C 1101.359 618.726 1102.247 617.774 1102.12 620.122 C 1101.993 622.47 1104.913 627.991 1101.676 627.991 C 1098.44 627.991 1088.413 626.975 1081.179 631.481 C 1073.944 635.987 1053.827 654.898 1052.368 655.215 Z " fill="rgb(49,39,74)" vector-effect="non-scaling-stroke" stroke-width="1" stroke="rgb(0,0,0)" stroke-linejoin="miter" stroke-linecap="square" stroke-miterlimit="3"/><path d=" M 1052.051 657.732 C 1050.464 656.992 1052.749 660.8 1050.845 661.561 C 1048.941 662.323 1034.472 672.032 1032.759 674.317 C 1031.045 676.601 1033.33 701.351 1037.518 708.775 C 1041.707 716.2 1047.608 724.767 1049.512 720.96 C 1051.416 717.152 1054.843 703.635 1060.554 704.397 C 1066.266 705.158 1071.787 708.014 1069.121 712.964 C 1066.456 717.914 1063.219 723.244 1065.694 724.767 C 1068.169 726.29 1071.787 728.765 1071.977 731.811 C 1072.167 734.857 1076.356 744.186 1078.45 746.09 C 1080.544 747.994 1079.211 750.088 1083.59 750.469 C 1087.969 750.849 1100.724 751.611 1102.438 749.517 C 1104.151 747.422 1116.145 752.563 1119.762 749.897 C 1123.38 747.232 1132.327 735.809 1131.756 729.336 C 1131.185 722.863 1124.522 690.689 1120.143 679.266 C 1115.764 667.844 1118.81 663.275 1118.43 656.421 C 1118.049 649.567 1118.43 646.712 1112.337 644.617 C 1106.245 642.523 1083.971 641.762 1079.592 645.76 C 1075.213 649.758 1053.637 658.473 1052.051 657.732 Z " fill="rgb(141,92,153)" vector-effect="non-scaling-stroke" stroke-width="1" stroke="rgb(0,0,0)" stroke-linejoin="miter" stroke-linecap="square" stroke-miterlimit="3"/></g><path d=" M 1013.25 1016.25 Q 1059.539 1047.588 1074.135 1064.341 C 1088.73 1081.095 1104.342 1090.614 1105.23 1096.706 C 1106.118 1102.798 1103.58 1105.717 1106.245 1104.575 C 1108.911 1103.433 1153.46 1081.349 1149.906 1078.049 C 1146.352 1074.749 1125.537 1041.623 1122.237 1033.373 C 1118.937 1025.123 1118.557 1023.727 1118.557 1021.95 C 1118.557 1020.173 1117.922 1023.473 1115.764 1016.493 C 1113.607 1009.512 1106.245 996.82 1104.468 992.124 C 1102.692 987.428 1098.888 954.438 1098 950.25 Q 1097.112 946.062 1013.25 1016.25 Z " fill="rgb(30,22,62)" vector-effect="non-scaling-stroke" stroke-width="1" stroke="rgb(0,0,0)" stroke-linejoin="miter" stroke-linecap="square" stroke-miterlimit="3"/><g><path d=" M 666.891 339.248 Q 649.291 329.433 635.076 336.371 C 620.861 343.309 607.154 355.325 599.708 370.893 C 592.262 386.462 593.954 390.354 591.077 392.893 C 588.201 395.431 570.262 404.062 566.37 411.169 C 562.478 418.277 544.54 453.137 539.463 458.722 C 534.386 464.306 515.877 470.42 511.689 473.085 C 507.501 475.75 493.984 490.981 491.699 493.456 C 489.415 495.931 481.419 507.163 480.657 509.257 C 479.896 511.351 526.919 572.463 531.869 568.275 C 536.819 564.087 548.242 537.243 551.859 530.961 C 555.476 524.678 560.807 510.59 565.566 507.544 C 570.326 504.498 592.791 497.644 598.883 493.265 C 604.975 488.887 627.25 469.658 631.628 463.376 C 636.007 457.093 646.859 442.624 650.095 439.959 C 653.332 437.294 676.177 417.685 683.031 410.45 C 689.885 403.216 703.973 394.839 702.069 383.416 Q 700.165 371.993 666.891 339.248 Z " fill="rgb(141,92,153)" vector-effect="non-scaling-stroke" stroke-width="1" stroke="rgb(0,0,0)" stroke-linejoin="miter" stroke-linecap="square" stroke-miterlimit="3"/><path d=" M 490.388 512.028 Q 492.757 482.244 496.141 476.322 Q 499.526 470.399 499.018 470.906 Q 480.911 481.906 476.173 491.89 C 471.434 501.875 474.142 501.875 471.265 501.029 C 468.388 500.182 457.219 496.459 453.158 498.659 Q 449.096 500.859 449.773 501.536 Q 466.188 503.905 467.542 509.321 C 468.896 514.736 466.188 519.982 460.942 519.474 C 455.696 518.967 455.696 516.936 453.835 517.613 C 451.973 518.29 444.866 525.059 447.742 526.243 C 450.619 527.428 458.065 524.89 457.896 526.92 C 457.727 528.951 452.65 535.72 454.85 536.228 C 457.05 536.735 474.311 539.274 479.388 541.981 C 484.465 544.689 498.172 554.335 501.049 560.258 C 503.926 566.181 503.926 573.627 506.633 576.673 C 509.341 579.719 522.033 572.273 527.787 569.904 C 533.54 567.535 561.124 553.996 561.124 550.443 C 561.124 546.889 544.879 551.966 543.355 551.12 Q 541.832 550.274 490.388 512.028 Z " fill="rgb(49,39,74)" vector-effect="non-scaling-stroke" stroke-width="1" stroke="rgb(0,0,0)" stroke-linejoin="miter" stroke-linecap="square" stroke-miterlimit="3"/><path d=" M 403.49 612.38 Q 364.398 645.379 363.129 651.725 C 361.86 658.071 355.26 670.255 358.814 673.301 C 362.368 676.347 374.552 690.308 376.583 691.324 C 378.613 692.339 377.344 702.239 381.406 704.777 C 385.467 707.316 389.021 712.139 394.859 713.408 C 400.697 714.677 405.267 725.085 411.613 725.338 C 417.959 725.592 427.605 709.6 434.966 712.646 C 442.327 715.692 449.689 725.846 456.035 722.546 C 462.381 719.246 470.757 713.408 466.95 711.123 C 463.142 708.839 444.866 701.477 443.85 699.954 C 442.835 698.431 438.773 703.508 436.235 700.462 C 433.697 697.416 425.066 692.085 423.289 685.993 C 421.512 679.901 418.466 669.494 426.589 663.401 C 434.712 657.309 444.612 658.579 445.881 662.132 C 447.15 665.686 455.273 682.693 459.842 683.455 C 464.411 684.216 481.165 689.293 480.149 682.947 C 479.134 676.601 477.103 667.971 478.119 663.401 C 479.134 658.832 486.242 650.963 479.134 644.363 C 472.026 637.764 461.873 633.702 457.558 630.402 C 453.242 627.102 427.351 610.857 422.274 610.095 Q 417.197 609.334 403.49 612.38 Z " fill="rgb(141,92,153)" vector-effect="non-scaling-stroke" stroke-width="1" stroke="rgb(0,0,0)" stroke-linejoin="miter" stroke-linecap="square" stroke-miterlimit="3"/><path d=" M 748.458 820.867 Q 790.765 846.928 798.888 853.358 C 807.01 859.789 810.733 862.158 818.518 864.866 C 826.302 867.573 842.886 876.373 847.963 881.788 C 853.04 887.204 856.763 894.311 860.148 899.726 C 863.532 905.142 875.04 912.588 876.393 919.018 C 877.747 925.449 884.178 932.218 889.931 931.203 C 895.685 930.187 903.808 927.48 911.254 930.526 C 918.7 933.572 929.668 931.615 932.524 940.468 C 935.379 949.32 933.761 955.888 941.186 959.601 C 948.611 963.313 950.61 968.549 954.798 967.121 C 958.986 965.693 963.27 958.935 964.698 964.36 C 966.126 969.786 972.503 975.974 969.553 979.971 C 966.602 983.969 974.968 985.609 976.152 987.216 C 977.337 988.824 993.858 1018.333 994.873 1021.506 C 995.888 1024.679 992.398 1026.9 995.063 1029.28 C 997.729 1031.66 1012.578 1033.754 1016.957 1031.279 C 1021.336 1028.804 1049.681 1006.593 1053.997 999.908 C 1058.312 993.224 1083.019 968.263 1088.857 964.794 C 1094.696 961.325 1104.151 954.365 1103.485 950.558 C 1102.818 946.75 1072.167 917.336 1068.836 911.149 C 1065.504 904.962 1053.796 889.922 1053.129 885.448 C 1052.463 880.974 1046.752 874.596 1043.23 874.12 C 1039.708 873.644 1036.757 878.213 1036.947 874.311 C 1037.137 870.408 1039.232 857.748 1035.519 856.129 C 1031.807 854.511 1019.908 858.604 1019.051 855.844 C 1018.195 853.083 1016.344 837.959 1014.905 831.613 C 1013.467 825.267 1008.305 823.744 1003.567 825.859 C 998.829 827.974 998.744 832.374 995.783 828.567 C 992.821 824.759 937.823 764.684 926.019 756.941 C 914.215 749.199 885.532 737.269 873.347 729.146 C 861.163 721.023 804.684 669.367 792.88 675.459 C 781.076 681.551 722.82 803.775 730.816 811.771 Q 738.812 819.767 748.458 820.867 Z " fill="rgb(64,53,111)" vector-effect="non-scaling-stroke" stroke-width="1" stroke="rgb(0,0,0)" stroke-linejoin="miter" stroke-linecap="square" stroke-miterlimit="3"/><path d=" M 347.581 989.015 C 349.485 986.92 326.449 1068.974 329.876 1072.02 C 333.303 1075.066 371.569 1094.675 372.141 1089.345 C 372.712 1084.014 371.379 1083.253 374.615 1077.16 C 377.852 1071.068 384.515 1057.742 386.038 1056.98 C 387.561 1056.219 390.798 1056.79 390.988 1053.173 C 391.178 1049.555 389.465 1050.507 391.369 1049.555 C 393.273 1048.603 400.126 1043.654 401.459 1040.417 C 402.792 1037.181 405.267 1032.231 412.12 1027.471 C 418.974 1022.712 438.012 1013.954 431.158 1011.86 C 424.305 1009.766 345.678 991.109 347.581 989.015 Z " fill="rgb(30,22,62)" vector-effect="non-scaling-stroke" stroke-width="1" stroke="rgb(0,0,0)" stroke-linejoin="miter" stroke-linecap="square" stroke-miterlimit="3"/><path d=" M 481.249 509.321 Q 468.557 514.736 466.188 517.444 C 463.819 520.151 455.358 532.166 454.342 536.228 C 453.327 540.289 453.327 545.197 451.635 547.735 C 449.942 550.274 438.943 562.796 438.266 565.842 C 437.589 568.888 439.45 572.104 436.404 572.611 C 433.358 573.119 430.651 573.458 427.266 576.504 C 423.882 579.55 425.066 582.934 423.712 585.303 C 422.358 587.673 417.112 591.057 414.913 592.749 C 412.713 594.442 414.066 598.165 411.19 600.365 C 408.313 602.565 403.744 599.518 404.759 602.565 C 405.774 605.611 404.928 604.934 405.436 606.626 C 405.944 608.318 402.559 610.687 405.267 611.703 C 407.974 612.718 415.928 608.318 420.666 609.503 C 425.405 610.687 454.342 631.502 457.558 629.133 C 460.773 626.764 462.973 624.056 464.157 621.856 C 465.342 619.656 466.357 621.179 469.234 620.503 C 472.111 619.826 472.788 614.072 472.619 612.041 C 472.45 610.01 470.588 607.472 473.296 609.503 C 476.003 611.534 481.588 608.149 481.08 605.611 C 480.572 603.072 476.68 602.057 481.926 601.549 C 487.172 601.041 495.972 586.488 502.064 583.103 C 508.156 579.719 524.402 570.75 527.617 569.227 Q 530.833 567.704 481.249 509.321 Z " fill="rgb(49,39,74)" vector-effect="non-scaling-stroke" stroke-width="1" stroke="rgb(0,0,0)" stroke-linejoin="miter" stroke-linecap="square" stroke-miterlimit="3"/></g><g><path d=" M 758.104 356.509 Q 789.77 293.874 795.672 297.111 C 801.574 300.347 789.072 357.334 792.69 362.855 C 796.307 368.376 824.293 390.27 820.866 393.697 C 817.439 397.123 793.642 417.685 790.024 417.875" fill="rgb(141,92,153)" vector-effect="non-scaling-stroke" stroke-width="1" stroke="rgb(0,0,0)" stroke-linejoin="miter" stroke-linecap="square" stroke-miterlimit="3"/></g><path d=" M 705.475 818.498 Q 544.709 868.25 525.756 879.758 C 506.803 891.265 510.187 908.526 503.08 911.572 C 495.972 914.618 482.434 909.542 483.111 913.603 C 483.788 917.664 486.157 927.818 482.095 930.187 C 478.034 932.556 475.665 936.279 477.357 939.664 C 479.049 943.048 473.973 949.141 470.588 955.91 C 467.204 962.679 458.446 980.321 458.192 982.732 C 457.938 985.143 458.7 998.343 456.669 1000.12 C 454.638 1001.897 450.45 999.739 444.485 1003.801 C 438.52 1007.862 429.889 1013.7 425.32 1011.416 C 420.751 1009.131 349.676 992.378 346.376 986.793 C 343.076 981.209 333.176 966.232 333.176 960.902 C 333.176 955.571 352.976 931.456 353.229 926.38 C 353.483 921.303 357.545 908.611 360.591 900.742 C 363.637 892.873 362.875 882.211 358.306 869.519 C 353.737 856.827 349.676 848.197 359.829 842.105 C 369.983 836.013 397.651 830.174 402.221 824.336 C 406.79 818.498 457.558 766.207 472.28 755.291 C 487.003 744.376 548.432 704.524 556.047 699.701 C 563.663 694.878 580.924 678.632 599.962 675.586 C 619 672.54 683.983 662.64 695.152 661.625 C 706.321 660.609 744.65 716.2 745.666 734.984 C 746.681 753.768 745.92 780.422 741.097 792.86 C 736.274 805.298 732.974 809.106 723.836 812.659 Q 714.697 816.213 705.475 818.498 Z " fill="rgb(64,53,111)" vector-effect="non-scaling-stroke" stroke-width="1" stroke="rgb(0,0,0)" stroke-linejoin="miter" stroke-linecap="square" stroke-miterlimit="3"/><path d=" M 629.323 602.226 Q 623.569 618.133 622.554 623.887 C 621.538 629.641 609.692 639.456 605.631 641.825 C 601.569 644.194 599.877 656.717 595.816 662.132 C 591.754 667.548 577.539 714.254 592.093 733.546 C 606.646 752.838 654.03 824.928 667.229 817.821 C 680.429 810.713 682.798 788.375 697.013 795.144 C 711.228 801.913 738.304 819.851 743.72 818.159 C 749.135 816.467 908.546 752.838 892.978 736.254 C 877.409 719.669 871.655 722.715 870.64 717.977 C 869.624 713.239 864.547 705.793 860.486 701.731 C 856.425 697.67 856.425 685.486 860.148 679.055 C 863.871 672.624 875.04 664.163 870.301 658.071 C 865.563 651.979 859.809 655.702 854.732 660.102 Q 849.656 664.501 841.533 679.732 Q 833.41 671.271 835.441 665.178 C 837.471 659.086 831.379 648.594 835.441 648.256 C 839.502 647.917 845.933 659.425 846.271 653.332 C 846.609 647.24 850.671 633.025 844.917 632.687 C 839.163 632.348 798.888 636.748 779.596 634.041 C 760.304 631.333 658.768 614.072 651.66 611.026 Q 644.553 607.98 629.323 602.226 Z " fill="rgb(30,22,62)" vector-effect="non-scaling-stroke" stroke-width="1" stroke="rgb(0,0,0)" stroke-linejoin="miter" stroke-linecap="square" stroke-miterlimit="3"/><g><path d=" M 828.862 399.598 C 825.435 398.647 813.631 389.318 809.633 384.178 C 805.635 379.037 787.359 356.953 786.788 355.05 C 786.217 353.146 780.696 330.681 780.125 321.543 C 779.553 312.404 777.84 278.898 780.886 271.854 C 783.932 264.809 796.497 239.87 807.73 236.443 C 818.962 233.016 858.942 224.449 870.936 236.062 C 882.93 247.675 899.493 266.904 899.874 273.186 C 900.254 279.469 901.968 308.597 899.493 314.689 C 897.018 320.781 889.212 332.965 886.357 337.344 C 883.501 341.723 881.978 345.34 878.741 349.719 C 875.505 354.098 857.8 370.09 857.228 375.991 C 856.657 381.893 857.228 387.795 855.896 391.222 C 854.563 394.649 844.473 399.408 838.952 399.979 C 833.431 400.55 832.065 400.488 828.862 399.598 Z " fill="rgb(141,92,153)" vector-effect="non-scaling-stroke" stroke-width="1" stroke="rgb(0,0,0)" stroke-linejoin="miter" stroke-linecap="square" stroke-miterlimit="3"/></g><g><path d=" M 870.132 341.194 Q 873.263 358.032 871.486 360.147 C 869.709 362.263 866.324 367.255 863.024 367.001 Q 859.725 366.747 847.879 356.424 Q 846.609 356.255 847.033 354.309 C 847.456 352.363 852.025 346.863 853.802 342.971 C 855.578 339.079 856.255 335.017 857.271 334.51 C 858.286 334.002 869.709 333.156 869.878 335.948 Q 870.047 338.74 870.132 341.194 Z " fill="rgb(46,25,81)"/></g><g><path d=" M 883.332 328.121 Q 885.32 327.36 884.516 329.729 C 883.712 332.098 881.089 333.367 879.82 333.664 C 878.551 333.96 878.424 334.552 878.297 333.41 C 878.17 332.267 877.282 332.267 878.509 331.294 Q 879.736 330.321 883.332 328.121 Z " fill="rgb(162,124,55)"/><path d=" M 827.064 324.187 Q 829.095 331.294 830.448 332.056 C 831.802 332.817 836.794 333.917 840.094 333.748 Q 843.394 333.579 844.24 333.071 Q 840.602 326.725 837.471 324.779 C 834.341 322.833 833.241 321.564 830.364 322.579 Q 827.487 323.595 827.064 324.187 Z " fill="rgb(162,124,55)"/></g><g><path d=" M 830.279 374.278 Q 828.481 378.974 829.941 380.624 C 831.4 382.274 842.442 383.543 846.313 383.543 C 850.184 383.543 855.727 380.264 855.663 378.678 C 855.6 377.091 853.422 378.33 853.294 378.212 Q 852.786 377.747 830.279 374.278 Z " fill="rgb(100,60,111)"/><path d=" M 830.364 374.447 Q 838.656 376.647 843.902 376.986 C 849.148 377.324 855.325 380.032 856.34 377.493 C 857.355 374.955 860.486 370.216 858.455 371.063 C 856.425 371.909 846.758 372.628 845.044 372.311 C 843.331 371.993 832.669 371.676 831.019 372.564 Q 829.37 373.453 830.364 374.447 Z " fill="rgb(100,60,111)"/></g><path d=" M 330.807 1060.661 Q 327.592 1057.276 322.853 1055.415 C 318.115 1053.553 309.823 1051.015 308.977 1056.092 C 308.131 1061.168 303.223 1076.907 300.515 1080.291 C 297.808 1083.676 291.377 1080.46 290.869 1085.029 C 290.362 1089.599 295.608 1090.445 293.239 1094.506 C 290.869 1098.568 282.747 1098.737 282.916 1102.121 C 283.085 1105.506 275.808 1113.629 269.547 1117.69 C 263.286 1121.752 257.024 1124.628 254.993 1129.028 C 252.963 1133.428 242.978 1141.551 240.101 1141.72 C 237.225 1141.89 237.902 1143.074 235.194 1145.105 C 232.486 1147.136 228.425 1149.843 220.133 1152.551 C 211.841 1155.258 213.025 1159.997 206.933 1161.858 C 200.841 1163.72 185.441 1169.643 173.257 1172.181 C 161.073 1174.72 164.119 1171.504 163.273 1175.396 C 162.426 1179.289 162.426 1182.673 163.78 1184.365 C 165.134 1186.058 159.55 1188.258 159.719 1192.658 C 159.888 1197.057 163.103 1200.442 165.98 1203.319 C 168.857 1206.196 177.149 1204.334 179.011 1206.534 C 180.872 1208.734 181.041 1213.642 184.595 1212.965 C 188.149 1212.288 192.549 1214.826 191.195 1211.272 C 189.841 1207.719 186.626 1197.227 187.98 1193.673 C 189.334 1190.119 221.317 1177.596 226.563 1180.812 C 231.809 1184.027 241.455 1193.334 241.794 1198.242 C 242.132 1203.15 235.194 1203.488 238.748 1206.196 C 242.301 1208.903 250.763 1206.365 255.332 1205.857 C 259.901 1205.35 266.162 1205.011 273.608 1201.796 C 281.054 1198.58 284.27 1195.027 286.977 1192.319 C 289.685 1189.611 311.854 1182.165 319.638 1180.642 C 327.422 1179.119 361.437 1174.212 362.96 1170.827 C 364.483 1167.443 365.329 1162.874 363.975 1158.474 C 362.622 1154.074 361.775 1150.351 360.591 1145.782 C 359.406 1141.213 358.56 1142.905 358.052 1133.767 C 357.545 1124.628 367.191 1104.49 371.76 1100.091 C 376.329 1095.691 379.375 1090.275 377.344 1088.245 Q 375.313 1086.214 330.807 1060.661 Z " fill="rgb(30,22,62)" vector-effect="non-scaling-stroke" stroke-width="1" stroke="rgb(0,0,0)" stroke-linejoin="miter" stroke-linecap="square" stroke-miterlimit="3"/><path d=" M 1103.495 1101.106 Q 1094.865 1109.906 1097.065 1113.29 C 1099.265 1116.675 1107.049 1116.844 1110.941 1123.444 C 1114.834 1130.044 1121.433 1139.859 1123.803 1141.72 C 1126.172 1143.582 1124.987 1148.828 1126.003 1151.874 C 1127.018 1154.92 1129.726 1156.105 1129.556 1162.028 C 1129.387 1167.95 1126.341 1181.15 1126.341 1186.565 C 1126.341 1191.981 1127.187 1200.95 1131.079 1207.888 C 1134.972 1214.826 1135.818 1219.226 1137.848 1220.918 C 1139.879 1222.611 1135.987 1234.456 1136.664 1238.687 C 1137.341 1242.918 1137.848 1254.933 1142.417 1255.441 C 1146.987 1255.948 1149.525 1273.209 1155.786 1274.394 C 1162.048 1275.579 1186.755 1278.625 1191.324 1275.24 C 1195.893 1271.856 1192.847 1270.84 1195.555 1273.209 C 1198.262 1275.579 1201.816 1277.948 1206.385 1276.763 C 1210.954 1275.579 1221.616 1276.763 1226.015 1273.717 C 1230.415 1270.671 1237.015 1271.856 1239.384 1267.625 C 1241.753 1263.394 1247.338 1262.717 1247.846 1259.333 C 1248.353 1255.948 1247.676 1247.148 1244.8 1240.549 C 1241.923 1233.949 1225.169 1214.319 1221.616 1208.226 C 1218.062 1202.134 1219.923 1198.411 1217.046 1193.673 C 1214.17 1188.935 1204.862 1179.796 1206.047 1173.873 C 1207.231 1167.95 1208.247 1164.058 1204.354 1158.643 C 1200.462 1153.228 1198.939 1153.735 1199.955 1149.674 C 1200.97 1145.613 1196.739 1139.69 1194.539 1134.951 C 1192.339 1130.213 1195.385 1128.351 1192.17 1120.059 C 1188.955 1111.767 1188.786 1107.367 1183.54 1103.306 C 1178.294 1099.244 1176.94 1104.321 1174.74 1100.26 C 1172.54 1096.198 1167.632 1069.461 1163.232 1068.784 Q 1158.832 1068.107 1149.017 1073.522 Q 1102.988 1098.229 1103.495 1101.106 Z " fill="rgb(30,22,62)" vector-effect="non-scaling-stroke" stroke-width="1" stroke="rgb(0,0,0)" stroke-linejoin="miter" stroke-linecap="square" stroke-miterlimit="3"/></g><path d=" M 719.667 520 Q 761.667 503.333 768.667 479.667" fill="none" vector-effect="non-scaling-stroke" stroke-width="1" stroke="rgb(0,0,0)" stroke-linejoin="miter" stroke-linecap="square" stroke-miterlimit="3"/><path d=" M 785 482 Q 805 530.667 821.667 534.667" fill="none" vector-effect="non-scaling-stroke" stroke-width="1" stroke="rgb(0,0,0)" stroke-linejoin="miter" stroke-linecap="square" stroke-miterlimit="3"/></g></svg>